<svg width="451" height="313" viewBox="0 0 451 313" fill="none" xmlns="http://www.w3.org/2000/svg">
<g clip-path="url(#clip0_19_839)">
<path d="M169.963 61.1097C166.528 48.5811 194.231 37.8375 201.506 47.9268C202.518 46.4924 206.256 45.6212 207.971 46.0612C209.687 46.5012 211.129 47.6012 212.537 48.6661C214.472 50.1533 216.477 51.6934 217.665 53.8319C218.861 55.9615 219.046 58.8657 217.436 60.7137C216.161 62.1833 212.396 63.1338 210.478 63.521C209.141 63.7938 208.015 64.0138 207.048 64.1722C206.186 62.9138 205.746 61.3561 205.904 59.8337C204.602 60.6961 203.723 62.1745 203.582 63.741C203.556 64.0666 214.393 103.958 214.393 103.958C213.276 104.618 211.895 105.234 210.302 105.798C207.602 101.723 205.385 96.9181 203.925 91.8931C203.591 94.9996 203.644 98.3701 204.048 101.793C204.259 103.615 204.576 105.446 204.981 107.276C192.103 110.057 172.733 109.142 164.306 97.3141C164.305 97.2652 164.304 97.2162 164.302 97.1672C164.242 94.9541 161.224 94.4041 160.416 96.4654C160.212 96.9872 160.023 97.4389 159.856 97.7981C157.401 89.0154 160.577 78.8511 169.963 61.1097Z" fill="#2F2E41"/>
<path d="M345.009 160.461C341.962 164.076 336.562 164.536 332.948 161.488C332.598 161.193 332.272 160.87 331.974 160.522L291.305 173.409L284.977 163.031L333.391 148.079C337.19 145.275 342.541 146.083 345.343 149.883C347.688 153.063 347.55 157.436 345.009 160.461Z" fill="#FFB6B6"/>
<path d="M200.984 128.259C200.984 128.259 218.994 107.993 226.839 116.602C234.684 125.21 259.159 162.935 259.159 162.935L316.293 150.875L321.819 165.96L256.945 186.992C252.068 188.573 246.724 186.934 243.571 182.889L200.984 128.259Z" fill="#6C63FF"/>
<path d="M240.099 313H150.772L150.69 312.302L150.638 311.837L149.871 305.325L148.784 296.052L148.366 292.488C148.337 292.308 148.308 292.133 148.284 291.953C147.918 289.633 147.709 287.302 147.634 284.976C147.523 281.779 147.668 278.587 148.011 275.435V275.418C148.197 273.714 148.436 272.028 148.732 270.36C149.104 268.214 149.551 266.104 150.069 264.04C150.661 261.644 151.335 259.313 152.073 257.063C152.922 254.429 153.852 251.906 154.811 249.522C154.915 249.266 155.02 249.01 155.119 248.76L155.124 248.755C160.18 236.423 165.922 227.998 165.922 227.998H230.999C230.999 227.998 234.009 241.214 235.502 252.127C235.741 253.854 235.938 255.516 236.084 257.063C236.345 259.918 236.421 262.371 236.194 264.04C236.054 265.075 235.799 265.807 235.404 266.144C231.824 269.203 235.921 275.691 235.921 275.691C235.921 275.691 238.989 280.383 236.316 283.023C235.787 283.546 235.485 284.22 235.34 284.976C235.107 286.226 235.311 287.68 235.63 288.965C235.95 290.255 236.392 291.378 236.636 291.953C236.746 292.209 236.816 292.354 236.816 292.354L237.269 295.942L237.711 299.395L238.46 305.325L238.687 306.372L239.855 311.837L239.954 312.302L240.099 313Z" fill="#2F2E41"/>
<path d="M194.978 100.532L167.666 102.966L162.632 118.638L157.146 119.433C147.772 120.791 142.192 130.627 145.835 139.375L150.662 150.968C150.662 150.968 143.571 172.862 152.279 182.062L155.985 222.579L147.626 249.289L245.335 252.445L228.692 218.941L228.198 198.138C228.198 198.138 238.834 160.538 228.973 148.578L225.126 114.56L205.083 111.552L194.978 100.532Z" fill="#6C63FF"/>
<path d="M213.469 80.4258C216.284 68.2811 208.725 56.1533 196.585 53.3375C184.446 50.5218 172.324 58.0844 169.509 70.2291C166.695 82.3738 174.254 94.5016 186.393 97.3173C198.532 100.133 210.655 92.5705 213.469 80.4258Z" fill="#FFB6B6"/>
<path d="M157.648 62.8698C154.213 50.3411 181.916 39.5975 189.191 49.6869C190.203 48.2525 193.941 47.3812 195.656 47.8212C197.372 48.2612 198.814 49.3613 200.222 50.4261C202.157 51.9134 204.162 53.4534 205.35 55.5919C206.546 57.7216 206.731 60.6257 205.121 62.4738C203.846 63.9434 200.081 64.8938 198.163 65.281C196.826 65.5539 195.7 65.7739 194.733 65.9323C193.871 64.6738 193.431 63.1162 193.589 61.5937C192.287 62.4561 191.408 63.9346 191.267 65.5011C191.241 65.8267 202.078 105.718 202.078 105.718C200.961 106.378 199.58 106.994 197.987 107.558C195.287 103.483 193.07 98.6782 191.61 93.6532C191.276 96.7597 191.329 100.13 191.733 103.554C191.944 105.375 192.261 107.206 192.666 109.036C179.788 111.817 160.418 110.902 151.992 99.0742C151.99 99.0253 151.989 98.9763 151.987 98.9273C151.927 96.7141 148.909 96.1642 148.101 98.2254C147.897 98.7473 147.709 99.1989 147.541 99.5582C145.086 90.7755 148.262 80.6111 157.648 62.8698Z" fill="#2F2E41"/>
<path d="M350.522 312.302H47.1656L0.0930176 312.884L330.218 293.166C341.231 292.508 350.522 301.265 350.522 312.302Z" fill="#3F3D56"/>
<path d="M379.36 72.3963H302.038C300.255 72.3963 298.804 70.9501 298.804 69.1727C298.804 67.3953 300.255 65.9498 302.038 65.9498H379.36C381.143 65.9498 382.593 67.3953 382.593 69.1727C382.593 70.9501 381.143 72.3963 379.36 72.3963Z" fill="#6C63FF"/>
<path d="M340.67 82.7921C340.381 82.0795 339.383 82.0796 339.094 82.7923C337.078 87.7644 334.208 93.3327 331.086 97.588C330.586 98.2693 331.275 99.1797 332.069 98.8922L338.761 96.47V137.915H341.002V96.47L347.696 98.8925C348.49 99.18 349.179 98.2696 348.68 97.5883C345.558 93.3329 342.687 87.7644 340.67 82.7921Z" fill="#3F3D56"/>
<path d="M449.007 96.0875H401.335C400.236 96.0875 399.342 95.1959 399.342 94.1001C399.342 93.0043 400.236 92.1131 401.335 92.1131H449.007C450.106 92.1131 451 93.0043 451 94.1001C451 95.1959 450.106 96.0875 449.007 96.0875Z" fill="#F2F2F2"/>
<path d="M425.153 102.497C424.975 102.057 424.359 102.058 424.181 102.497C422.938 105.562 421.169 108.995 419.244 111.619C418.936 112.039 419.361 112.6 419.851 112.423L423.976 110.93V136.482H425.358V110.93L429.485 112.423C429.975 112.6 430.399 112.039 430.091 111.619C428.166 108.995 426.397 105.562 425.153 102.497Z" fill="#F2F2F2"/>
<path d="M425.179 161.137C430.9 161.137 435.537 156.497 435.537 150.773C435.537 145.05 430.9 140.41 425.179 140.41C419.458 140.41 414.82 145.05 414.82 150.773C414.82 156.497 419.458 161.137 425.179 161.137Z" fill="#F2F2F2"/>
<path d="M296.166 45.3655H248.495C247.395 45.3655 246.501 44.4738 246.501 43.3781C246.501 42.2823 247.395 41.3911 248.495 41.3911H296.166C297.265 41.3911 298.159 42.2823 298.159 43.3781C298.159 44.4738 297.265 45.3655 296.166 45.3655Z" fill="#F2F2F2"/>
<path d="M272.312 43.7748C272.134 43.3355 271.519 43.3355 271.341 43.7749C270.098 46.8404 268.328 50.2733 266.404 52.8968C266.095 53.3169 266.52 53.8782 267.01 53.7009L271.136 52.2076V77.7595H272.517V52.2076L276.644 53.7011C277.134 53.8783 277.559 53.3171 277.251 52.897C275.326 50.2734 273.556 46.8404 272.312 43.7748Z" fill="#F2F2F2"/>
<path d="M272.338 102.415C278.059 102.415 282.697 97.7749 282.697 92.0513C282.697 86.3278 278.059 81.6879 272.338 81.6879C266.617 81.6879 261.979 86.3278 261.979 92.0513C261.979 97.7749 266.617 102.415 272.338 102.415Z" fill="#F2F2F2"/>
<path d="M152.241 292.859C154.685 288.811 153.387 283.547 149.341 281.102C148.949 280.865 148.539 280.66 148.114 280.489L147.256 237.819L135.401 235.154L136.79 285.827C135.355 290.326 137.838 295.137 142.335 296.572C146.098 297.773 150.193 296.238 152.241 292.859Z" fill="#FFB6B6"/>
<path d="M160.488 124.508C160.488 124.508 145.96 121.02 141.311 130.904C136.662 140.788 136.266 183.798 136.266 183.798L133.756 271.022L152.185 270.21L166.881 162.881L160.488 124.508Z" fill="#6C63FF"/>
<path d="M153.967 305.729C154.294 306.14 154.791 306.377 155.315 306.375H249.658C250.617 306.374 251.393 305.595 251.392 304.636C251.392 304.517 251.38 304.398 251.355 304.282L249.891 297.322C249.767 296.746 249.361 296.271 248.81 296.061C248.614 295.984 248.405 295.944 248.194 295.944H156.774C156.563 295.944 156.354 295.984 156.158 296.061C155.607 296.271 155.201 296.746 155.077 297.322L153.613 304.282C153.507 304.793 153.637 305.325 153.967 305.729Z" fill="#CCCCCC"/>
<path d="M117.849 149.936V258.81C117.851 261.699 120.192 264.04 123.079 264.043H284.347C287.234 264.04 289.575 261.699 289.577 258.81V149.936C289.57 147.05 287.231 144.713 284.347 144.709H123.079C120.195 144.713 117.856 147.05 117.849 149.936Z" fill="#E6E6E6"/>
<path d="M223.88 240.76C223.688 240.696 223.484 240.667 223.281 240.667H185.553C184.443 240.667 183.537 241.568 183.537 242.679V302.308H225.292V242.679C225.292 241.801 224.722 241.022 223.88 240.76ZM208.747 270.086C208.735 272.552 206.73 274.54 204.266 274.528C201.819 274.511 199.843 272.534 199.832 270.086V263.168C199.855 260.708 201.872 258.732 204.33 258.755C206.759 258.778 208.723 260.743 208.747 263.168V270.086Z" fill="#CCCCCC"/>
</g>
<defs>
<clipPath id="clip0_19_839">
<rect width="451" height="313" fill="white"/>
</clipPath>
</defs>
</svg>
