<svg width="361" height="283" viewBox="0 0 361 283" fill="none" xmlns="http://www.w3.org/2000/svg">
<g clip-path="url(#clip0_19_863)">
<path d="M154.817 114.34C160.313 108.978 162.232 100.143 159.104 94.6044C155.975 89.0662 148.984 88.923 143.488 94.2844C137.992 99.6458 130.268 114.144 133.396 119.683C136.525 125.221 149.321 119.701 154.817 114.34ZM135.85 117.247C134.68 116.684 134.361 114.917 135.139 113.299C135.916 111.681 137.495 110.825 138.666 111.388C139.837 111.95 140.155 113.718 139.378 115.336C138.6 116.954 137.021 117.809 135.85 117.247Z" fill="#3F3D56"/>
<path d="M148.025 110.26C147.496 109.777 146.967 109.293 146.438 108.81C145.711 108.228 145.116 107.499 144.692 106.671C144.233 105.515 144.118 104.251 144.359 103.031C144.648 101.263 145.474 99.6254 146.725 98.3419L146.64 99.5734C147.276 98.8303 148.024 98.1911 148.857 97.6788C149.64 97.274 150.502 97.3026 150.843 98.0223C151.233 98.8462 150.862 100.324 151.391 100.985C152.305 102.129 154.688 99.6592 155.693 100.675C156.278 101.267 156.001 102.671 155.694 103.853C155.378 105.313 154.878 106.728 154.206 108.062C152.983 110.265 150.748 111.721 149.237 111.127C148.784 110.914 148.373 110.62 148.025 110.26Z" fill="#6C63FF"/>
<path d="M143.339 110.556C143.06 109.612 143.632 108.385 144.174 107.351L144.448 107.067C145.012 106.784 145.624 106.608 146.252 106.548C146.544 106.526 146.835 106.604 147.077 106.769C147.319 106.934 147.497 107.177 147.584 107.456C147.744 108.01 147.615 108.802 147.998 109.126C148.74 109.752 150.229 107.813 150.937 108.488C151.335 108.868 151.048 109.845 150.536 110.325C150.053 110.728 149.457 110.97 148.83 111.019C147.921 111.17 147.012 111.321 146.103 111.472C145.572 111.594 145.023 111.622 144.482 111.554C144.217 111.511 143.969 111.395 143.767 111.219C143.565 111.042 143.417 110.813 143.339 110.556Z" fill="#2F2E41"/>
<path d="M140.341 111.258C140.532 109.863 141.6 107.617 142.552 105.697L142.923 105.112C143.455 104.478 144.067 103.916 144.744 103.441C145.262 103.157 145.621 103.366 145.491 104.293C145.376 105.114 144.897 106.452 145.084 106.798C145.445 107.466 147.645 103.648 147.954 104.412C148.127 104.841 147.424 106.552 146.754 107.564C146.273 108.307 145.657 108.954 144.939 109.472C144.073 110.135 143.207 110.798 142.34 111.462C141.916 111.847 141.421 112.146 140.882 112.342C140.481 112.414 140.224 112.105 140.341 111.258Z" fill="#FF6584"/>
<path d="M140.641 116.331C140.512 115.705 140.248 115.115 139.867 114.602C139.485 114.089 138.996 113.666 138.434 113.363C137.871 113.059 137.249 112.883 136.611 112.846C135.973 112.809 135.334 112.912 134.74 113.149L124.577 101.397L122.386 109.167L132.373 119.136C132.836 120.107 133.64 120.874 134.632 121.293C135.623 121.711 136.734 121.751 137.753 121.406C138.772 121.06 139.629 120.352 140.161 119.417C140.693 118.482 140.864 117.384 140.641 116.331Z" fill="#FFB8B8"/>
<path d="M106.904 71.5735L104.208 76.1388C104.208 76.1388 111.318 79.6606 111.456 82.4411C111.595 85.2215 112.103 84.5164 113.161 85.2796C114.219 86.0429 115.473 88.0201 115.513 90.1936C115.553 92.367 132.369 109.207 132.369 109.207L127.789 115.553C126.298 114.165 124.64 112.969 122.853 111.991C120.131 110.563 112.575 107.912 112.026 106.444C111.477 104.976 109.266 103.908 107.15 102.381C105.035 100.855 109.569 99.559 106.043 97.0148C102.517 94.4707 83.3858 74.4414 79.9581 72.5042C76.5304 70.567 76.5085 64.6536 76.5085 64.6536L79.0529 61.128L106.904 71.5735Z" fill="#3F3D56"/>
<path d="M260.127 190.79V188.56C260.186 187.902 260.186 187.239 260.127 186.58V4.26591C260.127 3.13452 259.677 2.04947 258.877 1.24947C258.077 0.449456 256.992 1.52588e-05 255.86 1.52588e-05C254.729 1.52588e-05 253.644 0.449456 252.844 1.24947C252.044 2.04947 251.594 3.13452 251.594 4.26591V186.58C251.535 187.239 251.535 187.902 251.594 188.56V190.79L208.405 279.148C209.423 280.167 210.633 280.975 211.964 281.526C213.295 282.078 214.721 282.361 216.162 282.361C217.602 282.361 219.029 282.078 220.36 281.526C221.691 280.975 222.9 280.167 223.919 279.148L251.594 208.938V278.095C251.594 279.227 252.044 280.312 252.844 281.112C253.644 281.912 254.729 282.361 255.86 282.361C256.992 282.361 258.077 281.912 258.877 281.112C259.677 280.312 260.127 279.227 260.127 278.095V208.938L287.802 279.148C288.82 280.167 290.03 280.975 291.361 281.526C292.692 282.078 294.118 282.361 295.559 282.361C296.999 282.361 298.426 282.078 299.757 281.526C301.088 280.975 302.297 280.167 303.316 279.148L260.127 190.79Z" fill="#E6E6E6"/>
<path d="M47.1822 256.335C42.5358 251.745 38.5782 246.507 35.4322 240.784C32.2958 235.09 29.9791 228.982 28.551 222.64C27.1031 216.204 26.6235 209.589 27.1282 203.011C28.1746 189.615 33.125 176.82 41.367 166.208C41.8703 165.562 42.3856 164.927 42.9131 164.301C43.501 163.601 44.5001 164.609 43.9162 165.304C35.5056 175.388 30.2363 187.716 28.7604 200.764C27.693 210.734 28.8849 220.817 32.2477 230.263C35.6105 239.71 41.0578 248.278 48.1853 255.332C48.8365 255.974 47.8332 256.977 47.1822 256.335Z" fill="#E6E6E6"/>
<path d="M40.7952 167.412C41.3695 167.197 41.932 166.952 42.4801 166.677C42.5078 166.72 42.5348 166.763 42.5626 166.806L40.7952 167.412Z" fill="#E6E6E6"/>
<path d="M51.7482 154.899C51.516 156.199 51.0968 157.458 50.5037 158.638C48.8659 161.927 46.2572 164.633 43.0307 166.39C42.852 166.486 42.6674 166.587 42.4829 166.676C42.2625 166.331 42.0363 165.986 41.8219 165.64C40.375 163.324 39.0888 160.889 38.4993 158.233C37.8085 155.131 38.1837 151.648 40.1725 149.165C42.1554 146.683 45.9425 145.569 48.6875 147.177C49.4801 147.65 50.1526 148.3 50.6525 149.076C50.3786 149.415 50.1047 149.749 49.8308 150.088C49.8067 150.119 49.7809 150.149 49.7534 150.178C49.5152 150.475 49.2711 150.767 49.0329 151.065C48.0385 152.285 47.05 153.512 46.0556 154.726C47.4572 154.984 48.8835 155.082 50.3072 155.018C50.4203 155.012 50.5394 155.006 50.6525 155C51.0158 154.976 51.3849 154.947 51.7482 154.899Z" fill="#E6E6E6"/>
<path d="M31.6633 179.317L31.2822 184.282L31.181 185.628C31.0738 185.574 30.9607 185.521 30.8535 185.467C27.1497 183.629 23.8809 181.021 21.2655 177.819C18.6501 174.616 16.7483 170.893 15.6872 166.896C15.3324 165.51 15.0836 164.099 14.9429 162.675C16.8721 162.377 18.8074 162.074 20.7367 161.776C19.1747 159.744 17.2182 158.049 14.9846 156.792C15.4939 151.823 17.2897 147.073 20.1948 143.009C20.695 151.333 29.4125 156.626 32.6041 164.324C33.5833 166.734 34.0072 169.332 33.8443 171.928C33.6814 174.523 32.936 177.049 31.6633 179.317Z" fill="#E6E6E6"/>
<path d="M30.008 222.93C29.5435 222.954 29.0791 222.966 28.6206 222.96C24.658 222.935 20.7422 222.1 17.1134 220.508C13.4846 218.916 10.2193 216.6 7.51761 213.701C5.33061 211.306 3.57215 208.553 2.31926 205.562C2.36095 205.556 2.39668 205.55 2.43836 205.544C4.36764 205.246 6.30287 204.943 8.23214 204.645C6.18312 201.975 3.4598 199.9 0.342335 198.631C-0.0792728 195.941 -0.111352 193.204 0.247081 190.504C4.60583 197.607 14.7941 198.179 21.231 203.466C24.3008 206.025 26.3935 209.564 27.1558 213.487C27.3458 214.456 27.4474 215.44 27.4595 216.428C27.4654 216.666 27.4654 216.898 27.4595 217.131L27.6024 217.452L30.008 222.93Z" fill="#E6E6E6"/>
<path d="M49.158 231.152C47.9254 232.665 46.6928 234.189 45.4602 235.701C46.9756 235.98 48.5194 236.072 50.0571 235.975C48.6916 240.866 46.0701 245.314 42.4531 248.878C42.1137 249.211 41.7624 249.538 41.4051 249.848C41.3337 249.914 41.2562 249.979 41.1848 250.045L40.8633 249.134L40.8573 249.128L39.0352 244.085C36.7234 241.761 35.1226 238.826 34.4204 235.624V235.612C33.9933 233.738 33.8946 231.804 34.1286 229.896C35.1469 221.626 42.1375 214.189 40.3988 206.038C44.2299 209.141 47.2024 213.173 49.0329 217.75C48.0385 218.97 47.05 220.197 46.0556 221.412C47.4572 221.669 48.8835 221.767 50.3072 221.703C50.8059 223.719 51.0775 225.784 51.117 227.86C51.123 228.158 51.123 228.449 51.117 228.747C50.4918 229.521 49.8606 230.289 49.2354 231.063C49.2113 231.094 49.1854 231.124 49.158 231.152Z" fill="#E6E6E6"/>
<path d="M291.044 272.235C290.299 265.747 290.498 259.185 291.633 252.754C292.757 246.352 294.78 240.14 297.642 234.303C300.547 228.381 304.319 222.924 308.835 218.115C318.046 208.331 329.923 201.462 342.997 198.357C343.793 198.169 344.593 197.997 345.397 197.839C346.294 197.662 346.44 199.074 345.55 199.249C332.676 201.838 320.843 208.143 311.516 217.386C304.435 224.487 299.045 233.091 295.745 242.56C292.445 252.029 291.32 262.119 292.454 272.082C292.559 272.99 291.149 273.143 291.044 272.235Z" fill="#E6E6E6"/>
<path d="M341.796 198.937C342.378 199.13 342.97 199.291 343.57 199.42C343.565 199.471 343.558 199.521 343.553 199.572L341.796 198.937Z" fill="#E6E6E6"/>
<path d="M358.174 196.049C357.178 196.917 356.062 197.635 354.861 198.183C351.523 199.72 347.795 200.194 344.179 199.542C343.98 199.504 343.773 199.467 343.573 199.421C343.618 199.014 343.658 198.603 343.707 198.199C344.031 195.488 344.555 192.784 345.76 190.345C347.166 187.495 349.641 185.016 352.747 184.327C355.848 183.635 359.497 185.14 360.629 188.113C360.95 188.979 361.066 189.907 360.97 190.825C360.544 190.917 360.121 191.006 359.695 191.099C359.657 191.108 359.618 191.115 359.579 191.12C359.207 191.202 358.833 191.277 358.461 191.359C356.921 191.688 355.382 192.024 353.846 192.347C354.777 193.427 355.827 194.397 356.977 195.239C357.068 195.305 357.165 195.375 357.257 195.441C357.555 195.65 357.861 195.859 358.174 196.049Z" fill="#E6E6E6"/>
<path d="M327.219 202.492L323.81 206.123L322.888 207.108C322.838 206.999 322.784 206.886 322.734 206.777C320.999 203.024 320.086 198.944 320.055 194.809C320.024 190.675 320.876 186.581 322.553 182.802C323.146 181.5 323.836 180.244 324.619 179.046C326.309 180.023 328.007 180.999 329.697 181.976C329.754 179.414 329.291 176.867 328.338 174.488C331.849 170.935 336.226 168.358 341.037 167.012C336.21 173.812 339.686 183.399 337.349 191.398C336.602 193.889 335.303 196.18 333.55 198.101C331.796 200.021 329.632 201.522 327.219 202.492Z" fill="#E6E6E6"/>
<path d="M298.596 235.442C298.219 235.169 297.849 234.888 297.496 234.596C294.424 232.093 291.895 228.989 290.065 225.475C288.235 221.96 287.142 218.109 286.853 214.157C286.65 210.921 287.005 207.673 287.903 204.557C287.939 204.579 287.971 204.596 288.007 204.618C289.697 205.595 291.396 206.571 293.086 207.548C293.162 204.183 292.341 200.859 290.706 197.918C292.064 195.557 293.754 193.404 295.725 191.524C294.67 199.791 302.252 206.621 303.954 214.774C304.743 218.692 304.156 222.761 302.291 226.296C301.832 227.17 301.294 228.001 300.685 228.778C300.54 228.967 300.394 229.148 300.244 229.326L300.154 229.666L298.596 235.442Z" fill="#E6E6E6"/>
<path d="M308.366 253.849C306.457 254.255 304.542 254.671 302.633 255.077C303.64 256.244 304.785 257.283 306.044 258.171C301.915 261.126 297.084 262.95 292.032 263.461C291.559 263.508 291.08 263.543 290.607 263.56C290.51 263.567 290.409 263.569 290.312 263.575L290.633 262.664L290.632 262.656L292.372 257.584C292.027 254.324 292.619 251.034 294.079 248.099L294.086 248.09C294.928 246.362 296.063 244.793 297.441 243.453C303.418 237.646 313.526 236.231 317.28 228.789C318.321 233.608 318.11 238.612 316.668 243.326C315.128 243.654 313.589 243.991 312.053 244.314C312.984 245.393 314.034 246.363 315.183 247.206C314.309 249.089 313.226 250.868 311.956 252.511C311.774 252.747 311.591 252.974 311.4 253.202C310.428 253.414 309.454 253.617 308.482 253.828C308.444 253.837 308.405 253.844 308.366 253.849Z" fill="#E6E6E6"/>
<path d="M334.867 160.682H176.854C175.017 160.68 173.256 159.949 171.957 158.651C170.658 157.352 169.928 155.591 169.925 153.755V43.2891C169.927 41.4524 170.658 39.6916 171.957 38.3929C173.256 37.0941 175.017 36.3636 176.854 36.3616H334.867C336.704 36.3637 338.465 37.0943 339.764 38.393C341.062 39.6917 341.793 41.4525 341.795 43.2891V153.755C341.793 155.591 341.062 157.352 339.764 158.651C338.465 159.949 336.704 160.68 334.867 160.682Z" fill="#F2F2F2"/>
<path d="M279.223 43.2683H232.497C229.535 43.265 226.695 42.0868 224.6 39.9923C222.505 37.8977 221.327 35.0579 221.324 32.0958V31.8926H290.397V32.0958C290.393 35.0579 289.215 37.8977 287.12 39.9923C285.026 42.0868 282.186 43.265 279.223 43.2683Z" fill="#E6E6E6"/>
<path d="M279.426 167.589H232.701C229.738 167.585 226.898 166.407 224.803 164.312C222.709 162.218 221.53 159.378 221.527 156.416V156.213H290.6V156.416C290.597 159.378 289.418 162.218 287.324 164.312C285.229 166.407 282.389 167.585 279.426 167.589Z" fill="#E6E6E6"/>
<path d="M268.05 139.352C268.05 146.084 262.999 138.54 256.267 138.54C253.034 138.54 249.933 137.256 247.647 134.97C245.362 132.684 244.077 129.584 244.077 126.352C244.077 123.119 245.362 120.019 247.647 117.733C249.933 115.447 253.034 114.163 256.267 114.163C262.999 114.163 268.05 132.621 268.05 139.352Z" fill="#6C63FF"/>
<path d="M221.324 78.4111C221.324 81.6437 220.04 84.7438 217.754 87.0296C215.468 89.3153 212.367 90.5994 209.134 90.5994C202.402 90.5994 198.977 104.237 198.977 97.5061C198.977 90.7747 202.402 66.2229 209.134 66.2229C212.367 66.2229 215.468 67.507 217.754 69.7927C220.04 72.0785 221.324 75.1786 221.324 78.4111Z" fill="#6C63FF"/>
<path d="M204.917 64.9738C206.676 63.9477 208.83 64.3005 210.501 65.3401C212.402 66.5225 213.454 68.559 213.917 70.6967C214.382 72.9938 214.374 75.3615 213.894 77.6555C213.441 79.8676 212.28 82.2179 209.925 82.8529C208.355 83.276 206.601 82.7307 206.029 81.1112C205.809 80.4609 205.76 79.7649 205.887 79.0902C206.014 78.4155 206.312 77.7849 206.754 77.2592C208.075 75.7725 210.379 75.6958 212.108 76.4377C214.143 77.3102 215.383 79.2796 215.906 81.3638C216.527 83.8419 216.135 86.4121 215.482 88.8411C214.771 91.4811 213.83 94.062 212.984 96.6605C211.334 101.728 209.816 106.892 209.421 112.232C208.818 120.39 211.504 129.804 218.961 134.18C222.987 136.542 227.831 136.919 232.337 135.986C237.09 135.002 241.334 132.548 245.02 129.451C246.935 127.813 248.737 126.049 250.414 124.168C250.92 123.559 251.594 123.115 252.353 122.89C253.112 122.666 253.92 122.672 254.675 122.908C258.552 124.14 257.838 130.346 254.002 131.107C252.259 131.453 250.37 130.615 249.08 129.483C247.668 128.194 246.68 126.507 246.246 124.646C245.27 120.732 246.409 116.424 248.724 113.191C251.339 109.538 255.572 107.264 259.761 105.911C264.53 104.371 269.524 103.917 274.483 103.415C279.559 102.901 284.688 102.301 289.48 100.455C293.336 98.9572 296.917 96.8319 300.08 94.1653C306.454 88.835 310.969 81.6165 312.973 73.5526C313.44 71.6034 313.742 69.6186 313.878 67.6189C313.931 66.836 312.712 66.8393 312.659 67.6189C312.062 76.3361 308.022 84.6283 301.912 90.8185C298.865 93.9196 295.297 96.4621 291.371 98.3302C286.641 100.565 281.499 101.443 276.336 102.003C271.063 102.575 265.723 102.912 260.6 104.381C256.071 105.68 251.556 107.883 248.47 111.546C245.75 114.776 244.259 119.206 244.79 123.427C245.284 127.354 247.788 131.397 251.903 132.251C253.834 132.651 255.832 132.142 257.12 130.59C257.834 129.707 258.29 128.644 258.436 127.518C258.583 126.392 258.415 125.247 257.95 124.211C257.358 123.092 256.37 122.233 255.179 121.802C253.988 121.371 252.68 121.399 251.508 121.88C250.651 122.274 249.895 122.858 249.297 123.587C245.781 127.443 241.789 131.042 236.983 133.203C232.501 135.219 227.222 135.977 222.482 134.435C213.509 131.515 210.072 121.256 210.612 112.636C210.966 106.995 212.661 101.546 214.414 96.2073C215.309 93.4813 216.328 90.7626 216.956 87.9591C217.519 85.4491 217.691 82.7898 216.871 80.3143C216.156 78.1537 214.714 76.2298 212.581 75.3243C210.642 74.5019 208.267 74.5212 206.534 75.8182C204.028 77.6935 203.799 82.3432 206.893 83.7866C208.946 84.7443 211.42 83.9988 212.934 82.4083C214.632 80.6253 215.185 78.1123 215.376 75.734C215.737 71.2401 214.746 65.8195 210.175 63.7917C208.291 62.9562 206.117 62.8622 204.301 63.9213C204.168 64.0057 204.072 64.1388 204.034 64.2924C203.997 64.446 204.021 64.6082 204.1 64.7448C204.18 64.8813 204.31 64.9815 204.462 65.0242C204.615 65.0669 204.778 65.0489 204.917 64.9738Z" fill="#3F3D56"/>
<path d="M314.369 70.6919C314.369 77.8302 325.575 96.0313 321.805 101.496C321.337 102.178 320.843 102.842 320.322 103.486C318.635 105.595 316.701 107.493 314.56 109.138C314.199 109.422 313.833 109.694 313.463 109.958C312.149 110.89 310.771 111.728 309.339 112.465C309.079 112.595 308.815 112.725 308.551 112.855C301.311 116.335 293.071 117.133 285.298 115.108C277.525 113.082 270.722 108.365 266.101 101.796C261.479 95.2259 259.339 87.2299 260.061 79.2303C260.782 71.2308 264.318 63.7466 270.041 58.1096C270.341 57.8089 270.65 57.5164 270.967 57.2279C274.11 54.3477 277.771 52.0883 281.755 50.5691C281.759 50.5691 281.759 50.565 281.763 50.565C287.737 48.2965 294.23 47.7545 300.498 49.0009H300.506C300.644 49.0293 300.782 49.0578 300.92 49.0903C316.267 52.3364 314.369 54.3799 314.369 70.6919Z" fill="#6C63FF"/>
<path d="M309.343 112.311C309.348 112.362 309.347 112.414 309.339 112.465C309.079 112.595 308.815 112.725 308.551 112.855C308.433 112.818 308.329 112.747 308.253 112.649C308.176 112.552 308.132 112.434 308.124 112.311C308.074 111.697 307.955 111.091 307.771 110.503C306.186 105.4 300.628 102.792 295.776 101.869C289.84 100.736 283.595 101.207 277.947 98.7574C275.632 97.8152 273.58 96.3231 271.97 94.4103C270.286 92.3033 269.439 89.6482 269.594 86.9551C269.927 80.6213 274.392 75.6647 275.92 69.6884C276.55 67.2264 276.55 64.6587 275.428 62.3348C274.477 60.3603 272.771 58.6255 270.496 58.3818C270.404 58.375 270.315 58.3469 270.236 58.2996C270.157 58.2524 270.09 58.1873 270.041 58.1096C270.341 57.8089 270.65 57.5164 270.967 57.2279C271.379 57.2895 271.784 57.3943 272.174 57.5408C274.4 58.3939 275.948 60.3238 276.818 62.4892C277.821 64.9959 277.728 67.6936 277.029 70.2653C275.4 76.2619 270.613 81.4663 270.8 87.9302C270.963 93.5327 275.855 97.0267 280.787 98.5055C286.89 100.334 293.501 99.4684 299.539 101.585C304.289 103.251 308.9 106.976 309.343 112.311Z" fill="#3F3D56"/>
<path d="M314.56 109.138C314.199 109.422 313.833 109.694 313.463 109.958C313.414 109.906 313.376 109.843 313.353 109.774C313.33 109.705 313.322 109.632 313.329 109.56C313.532 104.305 311.72 99.1701 308.262 95.2066C306.765 93.4659 304.985 91.9907 302.996 90.8432C300.916 89.6528 298.633 89.0149 296.37 88.2755C294.143 87.5483 291.88 86.6667 290.177 85.005C288.442 83.3108 287.589 81.0154 287.329 78.6427C286.716 73.0199 289.531 67.852 289.759 62.3145C289.86 59.8444 289.316 57.4433 287.784 55.4566C286.46 53.7421 284.505 52.572 282.291 52.832C281.559 52.9214 281.523 51.8489 282.157 51.6417C282.2 51.6275 282.245 51.618 282.291 51.6132C284.867 51.3126 287.203 52.7264 288.735 54.709C290.519 57.0126 291.136 59.82 290.957 62.6923C290.608 68.2502 287.683 73.5927 288.633 79.2399C288.797 80.4279 289.207 81.5683 289.84 82.5873C290.472 83.6063 291.311 84.4812 292.302 85.1553C294.342 86.5001 296.751 87.1054 299.051 87.853C301.346 88.5534 303.514 89.6149 305.475 90.9976C307.394 92.4019 309.075 94.104 310.456 96.0394C313.212 99.8434 314.652 104.442 314.56 109.138Z" fill="#3F3D56"/>
<path d="M321.805 101.496C321.337 102.178 320.843 102.842 320.322 103.486C320.865 100.33 320.744 97.0951 319.968 93.9877C319.019 90.0759 317.099 86.4666 314.385 83.4937C313.026 82.0139 311.46 80.7374 309.737 79.7031C307.767 78.5249 305.613 77.5295 304.219 75.6282C301.196 71.5004 303.236 66.1132 304.211 61.6767C304.723 59.3609 305 56.8948 304.053 54.6522C303.317 52.9133 301.863 51.2842 299.888 51.0851C299.112 51.0079 299.108 49.785 299.888 49.8663C300.034 49.8825 300.181 49.9028 300.327 49.9272C302.484 50.3172 304.146 51.9261 305.048 53.9087C306.218 56.4967 305.987 59.2919 305.39 62.0017C304.406 66.4586 302.127 72.3617 306.202 76.002C307.921 77.5377 310.152 78.3868 312.004 79.7478C313.665 80.9612 315.152 82.395 316.425 84.0096C320.326 88.9691 322.243 95.2015 321.805 101.496Z" fill="#3F3D56"/>
<path d="M103.677 269.936H110.887L114.318 242.127H103.677V269.936Z" fill="#FFB6B6"/>
<path d="M99.871 282.427H105.042L105.965 277.546L108.328 282.427H122.042C122.7 282.427 123.34 282.217 123.87 281.828C124.399 281.438 124.79 280.89 124.986 280.262C125.181 279.635 125.171 278.961 124.957 278.34C124.743 277.718 124.335 277.182 123.794 276.808L112.843 269.245V264.311L101.323 264.998L99.871 282.427Z" fill="#2F2E41"/>
<path d="M47.7754 255.632L53.9773 259.309L71.1143 237.14L61.9618 231.713L47.7754 255.632Z" fill="#FFB6B6"/>
<path d="M38.1298 264.435L42.5772 267.072L45.8612 263.344L45.4042 268.748L57.1999 275.743C57.7653 276.078 58.4231 276.224 59.0772 276.159C59.7314 276.094 60.3476 275.822 60.836 275.382C61.3244 274.942 61.6593 274.358 61.792 273.714C61.9246 273.07 61.8479 272.401 61.5731 271.804L56.0115 259.713L58.529 255.468L48.2705 250.184L38.1298 264.435Z" fill="#2F2E41"/>
<path d="M104.457 92.131L110.399 114.466L77.1123 114.904L81.4919 93.4445L104.457 92.131Z" fill="#FFB6B6"/>
<path d="M110.527 114.183L117.596 137.239L120.727 198.894L112.614 257.762H103.635L99.9564 199.853L90.9085 160.23L96.2057 201.672L68.4591 242.235H54.8247L79.8914 197.536L65.3001 151.134C65.3001 151.134 66.7634 128.188 76.0172 115.999L78.2697 109.492L110.527 114.183Z" fill="#2F2E41"/>
<path d="M110.987 71.561C110.968 71.3602 110.939 71.15 110.901 70.9493C110.182 66.1302 107.582 61.7923 103.672 58.8852C99.7611 55.978 94.858 54.7384 90.0354 55.4375C85.5064 56.1161 81.3805 58.4236 78.4316 61.927V61.9366C78.2787 62.1182 78.1353 62.3093 77.992 62.5005C77.7339 62.8254 77.4949 63.1695 77.2655 63.5135C75.1936 66.6436 74.1266 70.3314 74.2069 74.0841C74.2069 74.0841 75.9465 83.3453 76.3097 85.8016C76.5582 87.3881 76.7494 88.946 76.8928 90.4656C76.9788 91.2302 77.0457 91.9853 77.1031 92.7212V92.7307C77.3898 96.3721 77.4854 99.6408 77.5714 102.174C77.6096 103.55 78.5655 107.459 78.6228 107.507C78.6818 107.551 78.7457 107.594 78.8133 107.636C79.2981 107.918 79.8449 108.076 80.4054 108.097C80.9659 108.117 81.5228 108 82.027 107.754L86.3268 105.748C89.1818 104.42 92.3553 103.93 95.478 104.334C100.588 104.997 108.032 105.907 108.369 105.632C108.771 105.287 110.71 87.9329 111.217 82.4756C111.284 81.6919 111.341 80.8795 111.37 80.0097V80.0002C111.454 77.1815 111.326 74.3605 110.987 71.561Z" fill="#3F3D56"/>
<path d="M135.712 74.6813C135.519 75.2553 135.203 75.78 134.785 76.2184C134.367 76.6569 133.858 76.9984 133.294 77.219C132.73 77.4396 132.125 77.5338 131.52 77.495C130.916 77.4563 130.327 77.2855 129.796 76.9947L118.884 86.8761L117.719 79.3159L128.259 71.0914C128.807 70.2313 129.651 69.6021 130.632 69.3229C131.613 69.0437 132.662 69.1339 133.58 69.5764C134.499 70.0189 135.223 70.783 135.616 71.7238C136.009 72.6647 136.043 73.717 135.712 74.6813Z" fill="#FFB8B8"/>
<path d="M95.0987 55.5186C95.0987 55.5186 105.838 57.524 99.7258 78.3682L102.086 88.7L113.158 82.3317L113.829 79.6397L123.523 72.8356L128.106 81.098L122.533 86.4231L120.923 89.7472L118.064 90.6927L109.208 99.1547L105.494 101.424C105.494 101.424 100.772 104.35 96.5719 102.765C95.4505 102.345 94.402 101.752 93.4648 101.006C91.6315 99.5448 90.0046 97.3106 88.9859 93.9327C85.2068 81.4012 83.7882 72.6382 83.7882 72.6382L95.0987 55.5186Z" fill="#3F3D56"/>
<path d="M135.002 84.8357L128.5 60.3805C128.465 60.2472 128.482 60.1054 128.548 59.9842C128.614 59.8631 128.724 59.772 128.856 59.7295C128.987 59.6871 129.129 59.6966 129.254 59.7562C129.378 59.8157 129.475 59.9207 129.524 60.0496L138.275 82.9057L135.002 84.8357Z" fill="#3F3D56"/>
<path d="M140.415 90.3799C139.467 90.1824 138.546 89.8735 137.671 89.4599C137.226 89.2477 136.796 89.0084 136.376 88.7614C136.226 88.678 136.078 88.5889 135.931 88.503C135.581 88.2987 135.231 88.0943 134.879 87.8868C134.58 87.7143 134.279 87.5386 133.984 87.3636C133.547 87.109 133.077 86.813 132.951 86.3217C132.912 86.0892 132.926 85.851 132.99 85.6243C133.055 85.3976 133.169 85.1881 133.325 85.0109C133.644 84.6372 134.014 84.3093 134.423 84.0365C135.341 83.3625 136.259 82.6895 137.179 82.0176L137.425 81.4787C138.171 81.794 138.857 82.2374 139.451 82.7889C139.686 83.0274 139.87 83.3108 139.992 83.6223C140.114 83.9337 140.172 84.2667 140.163 84.6011C140.154 84.749 140.13 84.8955 140.09 85.0382C139.913 85.6628 139.448 86.1943 139.172 86.7934C139.116 86.9188 139.067 87.0475 139.027 87.1789C138.904 87.5648 138.867 87.9731 138.919 88.3749C138.972 88.7766 139.113 89.1618 139.331 89.5029C139.604 89.8905 139.979 90.1942 140.415 90.3799Z" fill="#CCCCCC"/>
<path d="M141.774 90.6058C141.309 90.6401 140.843 90.5626 140.414 90.3799C140.864 90.478 141.317 90.5534 141.774 90.6058Z" fill="#E6E6E6"/>
<path d="M140.415 90.3799C139.467 90.1824 138.546 89.8735 137.671 89.4599C137.226 89.2477 136.796 89.0084 136.376 88.7614C136.226 88.678 136.078 88.5889 135.931 88.503C135.581 88.2986 135.231 88.0943 134.879 87.8868C135.002 87.7215 135.134 87.5627 135.274 87.411C136.576 85.9941 138.355 85.1948 140.163 84.6011C140.154 84.7489 140.13 84.8955 140.09 85.0382C139.913 85.6628 139.448 86.1943 139.172 86.7934C139.116 86.9188 139.067 87.0475 139.027 87.1789C138.904 87.5648 138.867 87.9731 138.919 88.3749C138.972 88.7766 139.113 89.1618 139.331 89.5029C139.604 89.8904 139.979 90.1942 140.415 90.3799Z" fill="#6C63FF"/>
<path d="M357.011 282.517C357.011 282.58 356.998 282.643 356.974 282.702C356.95 282.761 356.914 282.814 356.869 282.859C356.824 282.904 356.771 282.939 356.712 282.964C356.654 282.988 356.591 283 356.527 283H6.16857C6.04034 283 5.91736 282.949 5.82668 282.858C5.73601 282.768 5.68506 282.645 5.68506 282.517C5.68506 282.388 5.73601 282.265 5.82668 282.175C5.91736 282.084 6.04034 282.033 6.16857 282.033H356.527C356.591 282.033 356.654 282.045 356.712 282.069C356.771 282.094 356.824 282.129 356.869 282.174C356.914 282.219 356.95 282.273 356.974 282.331C356.998 282.39 357.011 282.453 357.011 282.517Z" fill="#CCCCCC"/>
<path d="M102.615 45.0927C106.343 38.273 103.836 29.7223 97.016 25.9943C90.1956 22.2663 81.6442 24.7727 77.9159 31.5924C74.1876 38.4121 76.6941 46.9628 83.5145 50.6908C90.3348 54.4188 98.8862 51.9124 102.615 45.0927Z" fill="#FFB6B6"/>
<path d="M81.6814 26.8603V26.8702C81.6828 27.4825 81.6047 28.0923 81.449 28.6845C81.4243 28.7883 81.3946 28.8971 81.36 29.0009V29.0058C81.0283 30.0633 80.4562 31.0296 79.6885 31.8289C78.9209 32.6283 77.9784 33.239 76.9352 33.6132C76.7819 33.6725 76.6237 33.7219 76.4655 33.7665C76.1322 33.8631 75.7916 33.9325 75.447 33.9741C75.1375 34.0179 74.8252 34.0394 74.5126 34.0383C74.2683 34.0394 74.0241 34.0278 73.7809 34.0037C73.212 33.9461 72.6523 33.8183 72.1148 33.6231C72.0306 33.5986 71.9481 33.5689 71.8676 33.5341C71.8272 33.5197 71.7876 33.5032 71.7489 33.4847C70.852 33.1093 70.0408 32.5555 69.3644 31.8571C68.6881 31.1586 68.1608 30.33 67.8145 29.4215C67.4682 28.5131 67.3101 27.5437 67.3499 26.5723C67.3897 25.6009 67.6265 24.6477 68.0459 23.7706L68.0509 23.7657C68.4023 23.0298 68.8791 22.3607 69.4599 21.7883C70.7552 20.498 71.326 17.2645 73.2937 17.2645C73.3877 17.2628 73.4818 17.2661 73.5755 17.2743C74.8955 17.3188 77.3356 20.1668 78.3739 20.8391C79.1449 21.3262 79.8134 21.9593 80.3415 22.7028C80.8931 23.4677 81.2864 24.3349 81.4984 25.2537C81.6197 25.7806 81.6811 26.3196 81.6814 26.8603Z" fill="#2F2E41"/>
<path d="M72.9225 24.3643C71.8092 25.6603 70.0661 26.1641 68.4937 26.8385C65.7186 28.0559 63.2823 29.9317 61.3961 32.3034C59.5099 34.6751 58.2308 37.471 57.6696 40.4488C57.2348 42.8742 57.2917 45.385 56.605 47.7495C55.9224 50.114 54.2322 52.4339 51.8065 52.8442C50.165 53.1245 48.5194 52.4908 46.9754 51.8651C46.1263 51.5238 45.2771 51.1812 44.4279 50.8372C45.3136 48.6149 46.198 46.3926 47.0811 44.1702C45.6619 46.2675 44.0114 48.1986 42.1607 49.9272C39.1174 48.7002 36.0714 47.4732 33.0227 46.2463C40.5232 46.2747 39.2433 38.9943 40.9214 31.6895C41.8437 27.6755 49.6977 24.9575 51.2377 21.1385C52.0698 19.0671 53.4779 17.2774 55.2955 15.9813C57.1131 14.6851 59.264 13.9368 61.4936 13.8248C63.7232 13.7128 65.9383 14.2419 67.8766 15.3494C69.8149 16.4569 71.3954 18.0964 72.4309 20.074C73.9708 20.6875 74.0155 23.0846 72.9225 24.3643Z" fill="#2F2E41"/>
<path d="M103.004 24.2643C101.631 22.4561 98.1717 22.3858 97.4777 24.5476L96.0189 22.5694C94.1262 18.4342 89.1324 19.2756 84.6172 19.821C80.1019 20.3665 76.1231 23.5481 74.1031 27.6226C72.0831 31.6971 71.9 36.5361 73.0633 40.9325C73.8461 43.8905 75.2833 46.7767 77.6679 48.6942C80.0525 50.6117 91.2624 55.1467 92.1956 51.2418C91.029 56.3363 93.3759 55.5388 96.8499 59.4437C98.6493 54.039 99.4928 43.8556 101.292 38.4509C101.563 37.6374 101.834 36.8238 102.105 36.0103C102.676 34.2954 103.247 32.5776 103.66 30.8179C104.178 28.6074 104.378 26.0725 103.004 24.2643Z" fill="#2F2E41"/>
<path d="M93.753 39.7794L93.1514 35.9498C93.5602 31.187 92.8928 23.611 96.0189 22.5694L97.9305 24.4809C96.7213 24.8841 94.4213 32.0065 93.753 39.7794Z" fill="#FF6584"/>
<path d="M98.2114 19.5012C98.2114 22.4182 97.2109 24.7828 95.9767 24.7828C94.7425 24.7828 93.7419 22.4182 93.7419 19.5012C93.7419 16.5843 95.9767 14.2197 95.9767 14.2197C95.9767 14.2197 98.2114 16.5843 98.2114 19.5012Z" fill="#FF6584"/>
<path d="M100.055 20.8054C98.8824 23.4765 97.016 25.2398 95.8858 24.7439C94.7556 24.2481 94.7897 21.6807 95.9618 19.0096C97.134 16.3385 100.131 15.0711 100.131 15.0711C100.131 15.0711 101.227 18.1343 100.055 20.8054Z" fill="#FF6584"/>
</g>
<defs>
<clipPath id="clip0_19_863">
<rect width="361" height="283" fill="white"/>
</clipPath>
</defs>
</svg>
