<svg width="333" height="325" viewBox="0 0 333 325" fill="none" xmlns="http://www.w3.org/2000/svg">
<g clip-path="url(#clip0_20_914)">
<path d="M102.832 238.412H61.1194C60.0678 238.412 59.2122 237.557 59.2122 236.506C59.2122 235.455 60.0678 234.6 61.1194 234.6H102.832C103.883 234.6 104.739 235.455 104.739 236.506C104.739 237.557 103.883 238.412 102.832 238.412Z" fill="#6C63FF"/>
<path d="M28.3356 248.616C28.3356 248.959 28.6107 249.234 28.9533 249.234H134.997C135.34 249.234 135.615 248.959 135.615 248.616C135.615 248.274 135.34 247.999 134.997 247.999H28.9533C28.6107 247.999 28.3356 248.274 28.3356 248.616Z" fill="#3F3D56"/>
<path d="M252.072 124.213C270.706 124.213 285.812 109.114 285.812 90.4882C285.812 71.8625 270.706 56.7633 252.072 56.7633C233.437 56.7633 218.331 71.8625 218.331 90.4882C218.331 109.114 233.437 124.213 252.072 124.213Z" fill="#FF6884"/>
<path d="M0 291.232C0 291.574 0.275131 291.849 0.617743 291.849H271.731C272.073 291.849 272.349 291.574 272.349 291.232C272.349 290.89 272.073 290.615 271.731 290.615H0.617743C0.275131 290.615 0 290.89 0 291.232Z" fill="#3F3D56"/>
<path d="M3.92158 249.537L3.05432 248.587L87.6984 171.385L118.194 185.049L151.125 128.602L178.181 115.567L203.249 157.327C216.783 122.306 250.724 85.6653 291.395 48.491L292.395 49.3007C254.25 85.8037 221.614 122.472 203.092 159.566L179.905 120.825C178.809 118.995 176.507 118.288 174.573 119.188C159.784 126.066 147.448 137.293 139.216 151.368L118.587 186.635L113.879 184.525C98.1305 177.469 79.6947 180.426 66.9465 192.053L3.92158 249.537Z" fill="#3F3D56"/>
<path d="M293.303 55.5196L292.018 55.6088L289.944 51.1168L285.302 50.1743L285.121 48.8993L292.774 47.8123L293.303 55.5196Z" fill="#3F3D56"/>
<path d="M161.272 83.0049L165.822 65.5212L183.547 64.669L188.85 88.7696L161.272 83.0049Z" fill="#FFB6B6"/>
<path opacity="0.1" d="M161.272 83.0049L165.822 65.5212L183.547 64.669L188.85 88.7696L161.272 83.0049Z" fill="black"/>
<path d="M172.935 75.3055C184.751 75.3055 194.33 65.7312 194.33 53.9207C194.33 42.1102 184.751 32.5358 172.935 32.5358C161.119 32.5358 151.541 42.1102 151.541 53.9207C151.541 65.7312 161.119 75.3055 172.935 75.3055Z" fill="#FFB6B6"/>
<path d="M184.74 58.4472C184.74 58.4472 176.612 42.3513 167.089 43.2806C157.567 44.2099 152.55 45.34 152.55 45.34C152.55 45.34 149.723 32.8038 163.031 27.9818C163.031 27.9818 146.11 11.3093 166.256 3.13067C186.403 -5.04793 197.676 5.38284 197.676 5.38284C197.676 5.38284 212.588 20.263 193.807 31.3846C193.807 31.3846 207.753 50.135 190.868 65.5896C190.868 65.5896 194.644 53.0834 190.704 55.3898C186.763 57.6961 184.74 58.4472 184.74 58.4472Z" fill="#2F2E41"/>
<path d="M149.33 171.432L146.484 174.159L125.924 218.222L123.674 291.105H158.217L174.42 255.012L185.338 290.756H216.397L223.597 225.87L204.243 179.98L149.33 171.432Z" fill="#2F2E41"/>
<path d="M185.113 81.2282H162.044L136.952 94.725L142.803 120.819C142.803 120.819 141.453 136.565 144.604 148.263C147.754 159.96 146.404 175.256 146.404 175.256L204.243 179.98L206.043 126.893L205.143 91.3508L185.113 81.2282Z" fill="#E6E6E6"/>
<path d="M140.778 94.95C140.778 94.95 126.825 95.3999 124.574 104.398C122.323 113.396 120.523 159.735 120.523 159.735C120.523 159.735 121.873 187.232 136.952 174.158C152.03 161.085 150.68 121.494 150.68 121.494L140.778 94.95Z" fill="#E6E6E6"/>
<path d="M276.116 324.481H193.888C191.103 324.481 188.837 322.217 188.837 319.433V234.468C188.837 231.684 191.103 229.42 193.888 229.42H276.116C278.901 229.42 281.166 231.684 281.166 234.468V319.433C281.166 322.217 278.901 324.481 276.116 324.481Z" fill="white"/>
<path d="M276.116 325H193.888C190.817 325 188.318 322.503 188.318 319.433V234.468C188.318 231.398 190.817 228.901 193.888 228.901H276.116C279.187 228.901 281.685 231.398 281.685 234.468V319.433C281.685 322.503 279.187 325 276.116 325ZM193.888 229.939C191.389 229.939 189.356 231.97 189.356 234.468V319.433C189.356 321.931 191.389 323.962 193.888 323.962H276.116C278.614 323.962 280.647 321.93 280.647 319.433V234.468C280.647 231.97 278.614 229.939 276.116 229.939H193.888Z" fill="#3F3D56"/>
<path d="M238.247 302.16H231.47C230.644 302.16 229.973 301.642 229.973 301.005V271.84C229.973 271.204 230.644 270.686 231.47 270.686H238.247C239.072 270.686 239.743 271.204 239.743 271.84V301.005C239.743 301.642 239.072 302.16 238.247 302.16Z" fill="#6C63FF"/>
<path d="M215.841 284.973C215.174 284.973 214.632 285.391 214.632 285.906V300.973C214.632 301.487 215.174 301.906 215.841 301.906H222.618C223.285 301.906 223.827 301.487 223.827 300.973V285.906C223.827 285.391 223.285 284.973 222.618 284.973H215.841Z" fill="#6C63FF"/>
<path d="M253.876 302.16H247.098C246.273 302.16 245.602 301.642 245.602 301.005V253.209C245.602 252.573 246.273 252.055 247.098 252.055H253.876C254.701 252.055 255.372 252.573 255.372 253.209V301.005C255.372 301.642 254.701 302.16 253.876 302.16Z" fill="#6C63FF"/>
<path d="M108.035 92.6512H100.293C99.3505 92.6512 98.5837 92.0596 98.5837 91.3324V58.0175C98.5837 57.2903 99.3505 56.6987 100.293 56.6987H108.035C108.977 56.6987 109.744 57.2903 109.744 58.0175V91.3324C109.744 92.0596 108.977 92.6512 108.035 92.6512Z" fill="#6C63FF"/>
<path d="M82.4404 73.0184C81.679 73.0184 81.0593 73.4965 81.0593 74.084V91.2951C81.0593 91.8826 81.679 92.3607 82.4404 92.3607H90.182C90.9434 92.3607 91.5631 91.8826 91.5631 91.2951V74.084C91.5631 73.4965 90.9434 73.0184 90.182 73.0184H82.4404Z" fill="#6C63FF"/>
<path d="M125.887 92.6512H118.146C117.203 92.6512 116.436 92.0596 116.436 91.3324V36.7353C116.436 36.0081 117.203 35.4165 118.146 35.4165H125.887C126.83 35.4165 127.596 36.0081 127.596 36.7353V91.3324C127.596 92.0596 126.83 92.6512 125.887 92.6512Z" fill="#6C63FF"/>
<path d="M222.396 241.782C226.405 241.398 229.167 235.982 228.563 229.683C228.357 227.163 227.55 224.729 226.209 222.585L225.436 215.455L225.555 215.419L227.497 181.612C227.949 173.752 224.836 166.028 218.838 160.924C215.271 157.887 211.464 156.35 209.017 160.186C204.956 166.552 210.216 192.794 213.671 207.713L215.01 223.656C214.1 226.016 213.769 228.56 214.045 231.074C214.647 237.372 218.386 242.166 222.396 241.782Z" fill="#FFB6B6"/>
<path d="M200.192 92.2506C200.192 92.2506 211.894 87.7517 217.296 101.249C222.697 114.745 228.548 181.33 228.548 181.33L201.092 176.381L200.192 92.2506Z" fill="#E6E6E6"/>
<path d="M39.4981 85.649H23.7401C22.6885 85.649 21.8329 84.7937 21.8329 83.7426C21.8329 82.6915 22.6886 81.8366 23.7401 81.8366H39.4981C40.5497 81.8366 41.4049 82.6915 41.4049 83.7426C41.4049 84.7937 40.5497 85.649 39.4981 85.649Z" fill="#E6E6E6"/>
<path d="M39.4981 58.628H23.7401C22.6885 58.628 21.8329 57.7727 21.8329 56.7216C21.8329 55.6705 22.6886 54.8156 23.7401 54.8156H39.4981C40.5497 54.8156 41.4049 55.6705 41.4049 56.7216C41.4049 57.7727 40.5497 58.628 39.4981 58.628Z" fill="#E6E6E6"/>
<path d="M39.4981 39.1417H23.7401C22.6885 39.1417 21.8329 38.2864 21.8329 37.2353C21.8329 36.1842 22.6886 35.3293 23.7401 35.3293H39.4981C40.5497 35.3293 41.4049 36.1842 41.4049 37.2353C41.4049 38.2864 40.5497 39.1417 39.4981 39.1417Z" fill="#E6E6E6"/>
<path d="M21.2008 92.7454C21.2008 93.0879 21.4759 93.3629 21.8185 93.3629H127.863C128.205 93.3629 128.48 93.0879 128.48 92.7454C128.48 92.403 128.205 92.128 127.863 92.128H21.8185C21.4759 92.128 21.2008 92.403 21.2008 92.7454Z" fill="#3F3D56"/>
<path d="M225.721 252.55C225.721 252.892 225.996 253.167 226.338 253.167H332.382C332.725 253.167 333 252.892 333 252.55C333 252.207 332.725 251.932 332.382 251.932H226.338C225.996 251.932 225.721 252.207 225.721 252.55Z" fill="#3F3D56"/>
<path d="M194.575 302.878C194.575 303.22 194.851 303.495 195.193 303.495H301.237C301.58 303.495 301.855 303.22 301.855 302.878C301.855 302.535 301.58 302.26 301.237 302.26H195.193C194.851 302.26 194.575 302.535 194.575 302.878Z" fill="#3F3D56"/>
<path d="M123.266 89.624C119.256 90.0078 116.495 95.4236 117.098 101.724C117.305 104.243 118.112 106.677 119.452 108.821L120.225 115.951L120.107 115.987L118.164 149.794C117.712 157.654 120.825 165.378 126.823 170.482C130.391 173.519 134.197 175.056 136.645 171.22C140.706 164.854 135.445 138.612 131.991 123.693L130.651 107.75C131.561 105.39 131.892 102.846 131.617 100.332C131.015 94.0345 127.275 89.2403 123.266 89.624Z" fill="#FFB6B6"/>
</g>
<defs>
<clipPath id="clip0_20_914">
<rect width="333" height="325" fill="white"/>
</clipPath>
</defs>
</svg>
