<svg width="425" height="309" viewBox="0 0 425 309" fill="none" xmlns="http://www.w3.org/2000/svg">
<g clip-path="url(#clip0_19_21)">
<path d="M247.562 54.4731C255.527 54.4731 261.984 48.0182 261.984 40.0556C261.984 32.093 255.527 25.6381 247.562 25.6381C239.597 25.6381 233.139 32.093 233.139 40.0556C233.139 48.0182 239.597 54.4731 247.562 54.4731Z" fill="#F2F2F2"/>
<path d="M359.441 268.445C380.878 252.123 391.117 224.694 384.707 198.529C384.548 197.879 384.38 197.23 384.203 196.583C379.953 181.052 369.439 166.291 354.116 161.328C341.25 157.161 327.206 160.366 313.784 158.709C287.435 155.456 267.007 134.143 252.633 111.829C238.259 89.5147 227.212 64.537 208.113 46.1021C176.63 15.7153 125.275 9.17298 86.2409 28.9525C47.2072 48.7321 22.3432 92.6148 23.4035 136.349C24.464 180.084 50.436 221.897 88.1538 244.082C102.01 252.232 118.036 258.005 133.985 255.985C147.823 254.232 160.397 246.798 174.171 244.592C195.826 241.122 217.343 250.91 236.073 262.315C254.803 273.721 272.895 287.24 294.18 292.528C314.846 297.662 340.451 282.905 359.441 268.445Z" fill="#F2F2F2"/>
<path d="M328.641 29.8709C328.171 29.5577 327.695 29.2608 327.225 28.9584C313.641 20.2734 299.081 13.2179 283.846 7.93747L280.314 56.6533H257.919V0.826118C256.509 0.534536 255.089 0.259153 253.668 -3.05176e-05V56.6533H227.055C212.404 56.6533 198.353 50.8352 187.993 40.479C177.634 30.1228 171.814 16.0768 171.814 1.43094C170.388 1.73872 168.973 2.06806 167.557 2.41903V56.6533H145.881L142.516 10.1999C126.86 16.2024 111.996 24.0959 98.2563 33.7047C98.0186 33.8667 97.781 34.0341 97.5487 34.1961C96.355 35.033 95.1774 35.8862 94.0053 36.7501V222.601H157.889L156.76 206.969L150.548 121.141H275.641L269.43 206.969L268.301 222.601H331.476V31.75C330.537 31.1129 329.591 30.4865 328.641 29.8709ZM167.557 106.967H149.522L146.189 60.9082H167.557V106.967ZM253.668 106.967H223.376V106.055C223.376 105.616 223.29 105.182 223.122 104.777C222.954 104.371 222.707 104.003 222.397 103.693C222.086 103.383 221.718 103.138 221.312 102.97C220.906 102.803 220.472 102.717 220.033 102.718H206.864C206.426 102.718 205.992 102.804 205.586 102.971C205.181 103.139 204.813 103.385 204.503 103.695C204.193 104.005 203.947 104.373 203.78 104.778C203.612 105.183 203.526 105.617 203.526 106.055V106.967H171.814V60.9082H253.668V106.967ZM257.919 106.967V60.9082H280.006L276.673 106.967H257.919Z" fill="#3F3D56"/>
<path d="M0 234.502C4.69241 240.061 9.76779 245.284 15.189 250.135L409.811 250.674C415.232 245.824 420.308 240.601 425 235.042L0 234.502Z" fill="#3F3D56"/>
<path d="M267.606 184.448V230.725C267.606 231.315 267.841 231.88 268.258 232.297C268.675 232.714 269.241 232.949 269.831 232.949H338.432C339.022 232.949 339.588 232.714 340.005 232.297C340.422 231.88 340.657 231.315 340.657 230.725V184.448C340.656 183.859 340.421 183.294 340.004 182.878C339.587 182.461 339.022 182.227 338.432 182.226H269.831C269.241 182.227 268.676 182.461 268.259 182.878C267.842 183.294 267.607 183.859 267.606 184.448Z" fill="#3F3D56"/>
<path d="M269.215 185.024V230.154C269.216 230.469 269.341 230.771 269.564 230.994C269.787 231.217 270.089 231.342 270.404 231.343H337.861C338.176 231.342 338.479 231.217 338.701 230.994C338.924 230.771 339.05 230.469 339.05 230.154V185.024C339.05 184.708 338.925 184.406 338.702 184.182C338.479 183.959 338.177 183.833 337.861 183.833H270.404C270.089 183.833 269.786 183.959 269.564 184.182C269.341 184.406 269.215 184.708 269.215 185.024Z" fill="#2B59BB"/>
<path d="M266.171 239.75C266.297 239.908 266.457 240.035 266.638 240.122C266.82 240.209 267.019 240.254 267.221 240.253H340.677C340.878 240.252 341.076 240.207 341.257 240.121C341.439 240.034 341.598 239.908 341.725 239.753C341.852 239.597 341.942 239.414 341.989 239.219C342.036 239.024 342.039 238.821 341.998 238.624L340.858 233.21C340.811 232.989 340.709 232.784 340.562 232.612C340.415 232.441 340.227 232.309 340.016 232.228C339.863 232.168 339.701 232.138 339.537 232.138H268.357C268.193 232.138 268.03 232.168 267.877 232.228C267.666 232.309 267.478 232.441 267.331 232.612C267.184 232.784 267.083 232.989 267.035 233.21L265.895 238.624C265.855 238.821 265.858 239.024 265.906 239.218C265.954 239.413 266.044 239.595 266.171 239.75Z" fill="#2F2E41"/>
<path d="M337.016 234.47H338.751C338.897 234.47 339.015 234.352 339.015 234.206V233.376C339.015 233.231 338.897 233.113 338.751 233.113H337.016C336.871 233.113 336.752 233.231 336.752 233.376V234.206C336.752 234.352 336.871 234.47 337.016 234.47Z" fill="#3F3D56"/>
<path d="M332.491 234.47H334.226C334.372 234.47 334.49 234.352 334.49 234.206V233.376C334.49 233.231 334.372 233.113 334.226 233.113H332.491C332.346 233.113 332.228 233.231 332.228 233.376V234.206C332.228 234.352 332.346 234.47 332.491 234.47Z" fill="#3F3D56"/>
<path d="M327.967 234.47H329.702C329.847 234.47 329.965 234.352 329.965 234.206V233.376C329.965 233.231 329.847 233.113 329.702 233.113H327.967C327.821 233.113 327.703 233.231 327.703 233.376V234.206C327.703 234.352 327.821 234.47 327.967 234.47Z" fill="#3F3D56"/>
<path d="M323.442 234.47H325.177C325.322 234.47 325.44 234.352 325.44 234.206V233.376C325.44 233.231 325.322 233.113 325.177 233.113H323.442C323.296 233.113 323.178 233.231 323.178 233.376V234.206C323.178 234.352 323.296 234.47 323.442 234.47Z" fill="#3F3D56"/>
<path d="M318.917 234.47H320.652C320.798 234.47 320.916 234.352 320.916 234.206V233.376C320.916 233.231 320.798 233.113 320.652 233.113H318.917C318.771 233.113 318.653 233.231 318.653 233.376V234.206C318.653 234.352 318.771 234.47 318.917 234.47Z" fill="#3F3D56"/>
<path d="M314.392 234.47H316.127C316.273 234.47 316.391 234.352 316.391 234.206V233.376C316.391 233.231 316.273 233.113 316.127 233.113H314.392C314.246 233.113 314.128 233.231 314.128 233.376V234.206C314.128 234.352 314.246 234.47 314.392 234.47Z" fill="#3F3D56"/>
<path d="M309.867 234.47H311.602C311.748 234.47 311.866 234.352 311.866 234.206V233.376C311.866 233.231 311.748 233.113 311.602 233.113H309.867C309.722 233.113 309.604 233.231 309.604 233.376V234.206C309.604 234.352 309.722 234.47 309.867 234.47Z" fill="#3F3D56"/>
<path d="M305.342 234.47H307.078C307.223 234.47 307.341 234.352 307.341 234.206V233.376C307.341 233.231 307.223 233.113 307.078 233.113H305.342C305.197 233.113 305.079 233.231 305.079 233.376V234.206C305.079 234.352 305.197 234.47 305.342 234.47Z" fill="#3F3D56"/>
<path d="M300.818 234.47H302.553C302.698 234.47 302.816 234.352 302.816 234.206V233.376C302.816 233.231 302.698 233.113 302.553 233.113H300.818C300.672 233.113 300.554 233.231 300.554 233.376V234.206C300.554 234.352 300.672 234.47 300.818 234.47Z" fill="#3F3D56"/>
<path d="M296.293 234.47H298.028C298.173 234.47 298.292 234.352 298.292 234.206V233.376C298.292 233.231 298.173 233.113 298.028 233.113H296.293C296.147 233.113 296.029 233.231 296.029 233.376V234.206C296.029 234.352 296.147 234.47 296.293 234.47Z" fill="#3F3D56"/>
<path d="M291.768 234.47H293.503C293.649 234.47 293.767 234.352 293.767 234.206V233.376C293.767 233.231 293.649 233.113 293.503 233.113H291.768C291.622 233.113 291.504 233.231 291.504 233.376V234.206C291.504 234.352 291.622 234.47 291.768 234.47Z" fill="#3F3D56"/>
<path d="M287.243 234.47H288.978C289.124 234.47 289.242 234.352 289.242 234.206V233.376C289.242 233.231 289.124 233.113 288.978 233.113H287.243C287.098 233.113 286.98 233.231 286.98 233.376V234.206C286.98 234.352 287.098 234.47 287.243 234.47Z" fill="#3F3D56"/>
<path d="M282.718 234.47H284.453C284.599 234.47 284.717 234.352 284.717 234.206V233.376C284.717 233.231 284.599 233.113 284.453 233.113H282.718C282.573 233.113 282.455 233.231 282.455 233.376V234.206C282.455 234.352 282.573 234.47 282.718 234.47Z" fill="#3F3D56"/>
<path d="M278.194 234.47H279.929C280.074 234.47 280.192 234.352 280.192 234.206V233.376C280.192 233.231 280.074 233.113 279.929 233.113H278.194C278.048 233.113 277.93 233.231 277.93 233.376V234.206C277.93 234.352 278.048 234.47 278.194 234.47Z" fill="#3F3D56"/>
<path d="M273.669 234.47H275.404C275.549 234.47 275.667 234.352 275.667 234.206V233.376C275.667 233.231 275.549 233.113 275.404 233.113H273.669C273.523 233.113 273.405 233.231 273.405 233.376V234.206C273.405 234.352 273.523 234.47 273.669 234.47Z" fill="#3F3D56"/>
<path d="M269.144 234.47H270.879C271.025 234.47 271.143 234.352 271.143 234.206V233.376C271.143 233.231 271.025 233.113 270.879 233.113H269.144C268.998 233.113 268.88 233.231 268.88 233.376V234.206C268.88 234.352 268.998 234.47 269.144 234.47Z" fill="#3F3D56"/>
<path d="M337.07 236.732H338.805C338.95 236.732 339.068 236.613 339.068 236.468V235.638C339.068 235.493 338.95 235.375 338.805 235.375H337.07C336.924 235.375 336.806 235.493 336.806 235.638V236.468C336.806 236.613 336.924 236.732 337.07 236.732Z" fill="#3F3D56"/>
<path d="M332.545 236.732H334.28C334.426 236.732 334.544 236.613 334.544 236.468V235.638C334.544 235.493 334.426 235.375 334.28 235.375H332.545C332.399 235.375 332.281 235.493 332.281 235.638V236.468C332.281 236.613 332.399 236.732 332.545 236.732Z" fill="#3F3D56"/>
<path d="M328.02 236.732H329.755C329.901 236.732 330.019 236.613 330.019 236.468V235.638C330.019 235.493 329.901 235.375 329.755 235.375H328.02C327.874 235.375 327.756 235.493 327.756 235.638V236.468C327.756 236.613 327.874 236.732 328.02 236.732Z" fill="#3F3D56"/>
<path d="M323.495 236.732H325.23C325.376 236.732 325.494 236.613 325.494 236.468V235.638C325.494 235.493 325.376 235.375 325.23 235.375H323.495C323.35 235.375 323.232 235.493 323.232 235.638V236.468C323.232 236.613 323.35 236.732 323.495 236.732Z" fill="#3F3D56"/>
<path d="M318.97 236.732H320.705C320.851 236.732 320.969 236.613 320.969 236.468V235.638C320.969 235.493 320.851 235.375 320.705 235.375H318.97C318.825 235.375 318.707 235.493 318.707 235.638V236.468C318.707 236.613 318.825 236.732 318.97 236.732Z" fill="#3F3D56"/>
<path d="M314.446 236.732H316.181C316.326 236.732 316.444 236.613 316.444 236.468V235.638C316.444 235.493 316.326 235.375 316.181 235.375H314.446C314.3 235.375 314.182 235.493 314.182 235.638V236.468C314.182 236.613 314.3 236.732 314.446 236.732Z" fill="#3F3D56"/>
<path d="M309.921 236.732H311.656C311.801 236.732 311.919 236.613 311.919 236.468V235.638C311.919 235.493 311.801 235.375 311.656 235.375H309.921C309.775 235.375 309.657 235.493 309.657 235.638V236.468C309.657 236.613 309.775 236.732 309.921 236.732Z" fill="#3F3D56"/>
<path d="M305.396 236.732H307.131C307.277 236.732 307.395 236.613 307.395 236.468V235.638C307.395 235.493 307.277 235.375 307.131 235.375H305.396C305.25 235.375 305.132 235.493 305.132 235.638V236.468C305.132 236.613 305.25 236.732 305.396 236.732Z" fill="#3F3D56"/>
<path d="M300.871 236.732H302.606C302.752 236.732 302.87 236.613 302.87 236.468V235.638C302.87 235.493 302.752 235.375 302.606 235.375H300.871C300.725 235.375 300.607 235.493 300.607 235.638V236.468C300.607 236.613 300.725 236.732 300.871 236.732Z" fill="#3F3D56"/>
<path d="M296.346 236.732H298.081C298.227 236.732 298.345 236.613 298.345 236.468V235.638C298.345 235.493 298.227 235.375 298.081 235.375H296.346C296.201 235.375 296.083 235.493 296.083 235.638V236.468C296.083 236.613 296.201 236.732 296.346 236.732Z" fill="#3F3D56"/>
<path d="M291.822 236.732H293.557C293.702 236.732 293.82 236.613 293.82 236.468V235.638C293.82 235.493 293.702 235.375 293.557 235.375H291.822C291.676 235.375 291.558 235.493 291.558 235.638V236.468C291.558 236.613 291.676 236.732 291.822 236.732Z" fill="#3F3D56"/>
<path d="M287.297 236.732H289.032C289.177 236.732 289.295 236.613 289.295 236.468V235.638C289.295 235.493 289.177 235.375 289.032 235.375H287.297C287.151 235.375 287.033 235.493 287.033 235.638V236.468C287.033 236.613 287.151 236.732 287.297 236.732Z" fill="#3F3D56"/>
<path d="M282.772 236.732H284.507C284.653 236.732 284.771 236.613 284.771 236.468V235.638C284.771 235.493 284.653 235.375 284.507 235.375H282.772C282.626 235.375 282.508 235.493 282.508 235.638V236.468C282.508 236.613 282.626 236.732 282.772 236.732Z" fill="#3F3D56"/>
<path d="M278.247 236.732H279.982C280.128 236.732 280.246 236.613 280.246 236.468V235.638C280.246 235.493 280.128 235.375 279.982 235.375H278.247C278.101 235.375 277.983 235.493 277.983 235.638V236.468C277.983 236.613 278.101 236.732 278.247 236.732Z" fill="#3F3D56"/>
<path d="M273.722 236.732H275.457C275.603 236.732 275.721 236.613 275.721 236.468V235.638C275.721 235.493 275.603 235.375 275.457 235.375H273.722C273.577 235.375 273.459 235.493 273.459 235.638V236.468C273.459 236.613 273.577 236.732 273.722 236.732Z" fill="#3F3D56"/>
<path d="M269.197 236.732H270.932C271.078 236.732 271.196 236.613 271.196 236.468V235.638C271.196 235.493 271.078 235.375 270.932 235.375H269.197C269.052 235.375 268.934 235.493 268.934 235.638V236.468C268.934 236.613 269.052 236.732 269.197 236.732Z" fill="#3F3D56"/>
<path d="M299.514 239.445H317.086C317.231 239.445 317.349 239.327 317.349 239.182V238.352C317.349 238.207 317.231 238.088 317.086 238.088H299.514C299.368 238.088 299.25 238.207 299.25 238.352V239.182C299.25 239.327 299.368 239.445 299.514 239.445Z" fill="#3F3D56"/>
<path d="M280.897 193.706H279.361C278.895 193.706 278.518 194.083 278.518 194.549C278.518 195.014 278.895 195.392 279.361 195.392H280.897C281.363 195.392 281.74 195.014 281.74 194.549C281.74 194.083 281.363 193.706 280.897 193.706Z" fill="white"/>
<path d="M298.464 193.706H296.928C296.462 193.706 296.085 194.083 296.085 194.549C296.085 195.014 296.462 195.392 296.928 195.392H298.464C298.93 195.392 299.307 195.014 299.307 194.549C299.307 194.083 298.93 193.706 298.464 193.706Z" fill="white"/>
<path d="M303.441 193.706H301.905C301.44 193.706 301.062 194.083 301.062 194.549C301.062 195.014 301.44 195.392 301.905 195.392H303.441C303.907 195.392 304.285 195.014 304.285 194.549C304.285 194.083 303.907 193.706 303.441 193.706Z" fill="white"/>
<path d="M293.686 193.565H284.139C283.673 193.565 283.296 193.943 283.296 194.408C283.296 194.874 283.673 195.251 284.139 195.251H293.686C294.151 195.251 294.529 194.874 294.529 194.408C294.529 193.943 294.151 193.565 293.686 193.565Z" fill="white"/>
<path d="M317.109 193.565H307.562C307.096 193.565 306.719 193.943 306.719 194.408C306.719 194.874 307.096 195.251 307.562 195.251H317.109C317.574 195.251 317.952 194.874 317.952 194.408C317.952 193.943 317.574 193.565 317.109 193.565Z" fill="white"/>
<path d="M285.581 197.511H284.045C283.58 197.511 283.202 197.888 283.202 198.354C283.202 198.819 283.58 199.197 284.045 199.197H285.581C286.047 199.197 286.425 198.819 286.425 198.354C286.425 197.888 286.047 197.511 285.581 197.511Z" fill="white"/>
<path d="M303.149 197.511H301.613C301.147 197.511 300.769 197.888 300.769 198.354C300.769 198.819 301.147 199.197 301.613 199.197H303.149C303.614 199.197 303.992 198.819 303.992 198.354C303.992 197.888 303.614 197.511 303.149 197.511Z" fill="white"/>
<path d="M308.126 197.511H306.59C306.124 197.511 305.747 197.888 305.747 198.354C305.747 198.819 306.124 199.197 306.59 199.197H308.126C308.592 199.197 308.969 198.819 308.969 198.354C308.969 197.888 308.592 197.511 308.126 197.511Z" fill="white"/>
<path d="M298.37 197.37H288.824C288.358 197.37 287.981 197.748 287.981 198.213C287.981 198.679 288.358 199.056 288.824 199.056H298.37C298.836 199.056 299.214 198.679 299.214 198.213C299.214 197.748 298.836 197.37 298.37 197.37Z" fill="white"/>
<path d="M321.793 197.37H312.247C311.781 197.37 311.404 197.748 311.404 198.213C311.404 198.679 311.781 199.056 312.247 199.056H321.793C322.259 199.056 322.637 198.679 322.637 198.213C322.637 197.748 322.259 197.37 321.793 197.37Z" fill="white"/>
<path d="M290.266 201.316H288.73C288.264 201.316 287.887 201.693 287.887 202.159C287.887 202.624 288.264 203.002 288.73 203.002H290.266C290.732 203.002 291.109 202.624 291.109 202.159C291.109 201.693 290.732 201.316 290.266 201.316Z" fill="white"/>
<path d="M307.833 201.316H306.297C305.832 201.316 305.454 201.693 305.454 202.159C305.454 202.624 305.832 203.002 306.297 203.002H307.833C308.299 203.002 308.677 202.624 308.677 202.159C308.677 201.693 308.299 201.316 307.833 201.316Z" fill="white"/>
<path d="M312.811 201.316H311.275C310.809 201.316 310.431 201.693 310.431 202.159C310.431 202.624 310.809 203.002 311.275 203.002H312.811C313.276 203.002 313.654 202.624 313.654 202.159C313.654 201.693 313.276 201.316 312.811 201.316Z" fill="white"/>
<path d="M303.055 201.175H293.508C293.043 201.175 292.665 201.553 292.665 202.018C292.665 202.484 293.043 202.861 293.508 202.861H303.055C303.521 202.861 303.898 202.484 303.898 202.018C303.898 201.553 303.521 201.175 303.055 201.175Z" fill="white"/>
<path d="M326.478 201.175H316.931C316.466 201.175 316.088 201.553 316.088 202.018C316.088 202.484 316.466 202.861 316.931 202.861H326.478C326.944 202.861 327.321 202.484 327.321 202.018C327.321 201.553 326.944 201.175 326.478 201.175Z" fill="white"/>
<path d="M294.951 205.121H293.415C292.949 205.121 292.571 205.498 292.571 205.964C292.571 206.429 292.949 206.807 293.415 206.807H294.951C295.416 206.807 295.794 206.429 295.794 205.964C295.794 205.498 295.416 205.121 294.951 205.121Z" fill="white"/>
<path d="M312.518 205.121H310.982C310.516 205.121 310.139 205.498 310.139 205.964C310.139 206.429 310.516 206.807 310.982 206.807H312.518C312.984 206.807 313.361 206.429 313.361 205.964C313.361 205.498 312.984 205.121 312.518 205.121Z" fill="white"/>
<path d="M317.495 205.121H315.959C315.494 205.121 315.116 205.498 315.116 205.964C315.116 206.429 315.494 206.807 315.959 206.807H317.495C317.961 206.807 318.339 206.429 318.339 205.964C318.339 205.498 317.961 205.121 317.495 205.121Z" fill="white"/>
<path d="M307.74 204.98H298.193C297.727 204.98 297.35 205.358 297.35 205.823C297.35 206.289 297.727 206.666 298.193 206.666H307.74C308.205 206.666 308.583 206.289 308.583 205.823C308.583 205.358 308.205 204.98 307.74 204.98Z" fill="white"/>
<path d="M298.464 220.251H296.928C296.462 220.251 296.085 220.628 296.085 221.094C296.085 221.559 296.462 221.937 296.928 221.937H298.464C298.93 221.937 299.307 221.559 299.307 221.094C299.307 220.628 298.93 220.251 298.464 220.251Z" fill="white"/>
<path d="M303.441 220.251H301.905C301.44 220.251 301.062 220.628 301.062 221.094C301.062 221.559 301.44 221.937 301.905 221.937H303.441C303.907 221.937 304.285 221.559 304.285 221.094C304.285 220.628 303.907 220.251 303.441 220.251Z" fill="white"/>
<path d="M317.109 220.392H307.562C307.096 220.392 306.719 220.769 306.719 221.234C306.719 221.7 307.096 222.077 307.562 222.077H317.109C317.574 222.077 317.952 221.7 317.952 221.234C317.952 220.769 317.574 220.392 317.109 220.392Z" fill="white"/>
<path d="M280.897 220.251H279.361C278.895 220.251 278.518 220.628 278.518 221.094C278.518 221.559 278.895 221.937 279.361 221.937H280.897C281.363 221.937 281.74 221.559 281.74 221.094C281.74 220.628 281.363 220.251 280.897 220.251Z" fill="white"/>
<path d="M293.686 220.392H284.139C283.673 220.392 283.296 220.769 283.296 221.234C283.296 221.7 283.673 222.077 284.139 222.077H293.686C294.151 222.077 294.529 221.7 294.529 221.234C294.529 220.769 294.151 220.392 293.686 220.392Z" fill="white"/>
<path d="M285.581 216.446H284.045C283.58 216.446 283.202 216.823 283.202 217.289C283.202 217.754 283.58 218.132 284.045 218.132H285.581C286.047 218.132 286.425 217.754 286.425 217.289C286.425 216.823 286.047 216.446 285.581 216.446Z" fill="white"/>
<path d="M303.149 216.446H301.613C301.147 216.446 300.769 216.823 300.769 217.289C300.769 217.754 301.147 218.132 301.613 218.132H303.149C303.614 218.132 303.992 217.754 303.992 217.289C303.992 216.823 303.614 216.446 303.149 216.446Z" fill="white"/>
<path d="M308.126 216.446H306.59C306.124 216.446 305.747 216.823 305.747 217.289C305.747 217.754 306.124 218.132 306.59 218.132H308.126C308.592 218.132 308.969 217.754 308.969 217.289C308.969 216.823 308.592 216.446 308.126 216.446Z" fill="white"/>
<path d="M298.37 216.587H288.824C288.358 216.587 287.981 216.964 287.981 217.429C287.981 217.895 288.358 218.272 288.824 218.272H298.37C298.836 218.272 299.214 217.895 299.214 217.429C299.214 216.964 298.836 216.587 298.37 216.587Z" fill="white"/>
<path d="M290.266 212.641H288.73C288.264 212.641 287.887 213.018 287.887 213.484C287.887 213.95 288.264 214.327 288.73 214.327H290.266C290.732 214.327 291.109 213.95 291.109 213.484C291.109 213.018 290.732 212.641 290.266 212.641Z" fill="white"/>
<path d="M307.833 212.641H306.297C305.832 212.641 305.454 213.018 305.454 213.484C305.454 213.95 305.832 214.327 306.297 214.327H307.833C308.299 214.327 308.677 213.95 308.677 213.484C308.677 213.018 308.299 212.641 307.833 212.641Z" fill="white"/>
<path d="M312.811 212.641H311.275C310.809 212.641 310.431 213.018 310.431 213.484C310.431 213.95 310.809 214.327 311.275 214.327H312.811C313.276 214.327 313.654 213.95 313.654 213.484C313.654 213.018 313.276 212.641 312.811 212.641Z" fill="white"/>
<path d="M303.055 212.782H293.508C293.043 212.782 292.665 213.159 292.665 213.625C292.665 214.09 293.043 214.467 293.508 214.467H303.055C303.521 214.467 303.898 214.09 303.898 213.625C303.898 213.159 303.521 212.782 303.055 212.782Z" fill="white"/>
<path d="M294.951 208.836H293.415C292.949 208.836 292.571 209.214 292.571 209.679C292.571 210.145 292.949 210.522 293.415 210.522H294.951C295.416 210.522 295.794 210.145 295.794 209.679C295.794 209.214 295.416 208.836 294.951 208.836Z" fill="white"/>
<path d="M312.518 208.836H310.982C310.516 208.836 310.139 209.214 310.139 209.679C310.139 210.145 310.516 210.522 310.982 210.522H312.518C312.984 210.522 313.361 210.145 313.361 209.679C313.361 209.214 312.984 208.836 312.518 208.836Z" fill="white"/>
<path d="M317.495 208.836H315.959C315.494 208.836 315.116 209.214 315.116 209.679C315.116 210.145 315.494 210.522 315.959 210.522H317.495C317.961 210.522 318.339 210.145 318.339 209.679C318.339 209.214 317.961 208.836 317.495 208.836Z" fill="white"/>
<path d="M307.74 208.977H298.193C297.727 208.977 297.35 209.354 297.35 209.82C297.35 210.285 297.727 210.663 298.193 210.663H307.74C308.205 210.663 308.583 210.285 308.583 209.82C308.583 209.354 308.205 208.977 307.74 208.977Z" fill="white"/>
<path d="M272.731 264.844L265.52 253.449L288.153 235.413L297.495 225.067C298.709 223.723 300.254 222.72 301.977 222.16C303.699 221.6 305.539 221.502 307.311 221.875C309.084 222.248 310.727 223.08 312.078 224.287C313.428 225.494 314.437 227.034 315.006 228.754C315.848 231.301 315.667 234.077 314.501 236.494C313.335 238.911 311.275 240.78 308.756 241.708L293.984 247.148L272.731 264.844Z" fill="#FFB6B6"/>
<path d="M103.541 182.228V237.607H142.351V182.228C142.352 181.83 142.224 181.442 141.988 181.121C141.752 180.801 141.419 180.564 141.038 180.446C140.859 180.387 140.671 180.358 140.482 180.36H105.415C105.17 180.36 104.926 180.408 104.699 180.501C104.472 180.595 104.265 180.732 104.091 180.906C103.917 181.079 103.779 181.285 103.684 181.512C103.59 181.739 103.541 181.983 103.541 182.228ZM118.687 201.257C118.697 200.165 119.138 199.121 119.914 198.353C120.69 197.585 121.738 197.153 122.83 197.153C123.922 197.153 124.97 197.585 125.746 198.353C126.522 199.121 126.963 200.165 126.973 201.257V207.682C126.967 208.777 126.528 209.825 125.752 210.597C124.976 211.369 123.925 211.803 122.83 211.803C121.735 211.803 120.684 211.369 119.908 210.597C119.131 209.825 118.693 208.777 118.687 207.682V201.257Z" fill="#2F2E41"/>
<path d="M103.422 235.836V241.176C103.423 241.453 103.533 241.718 103.728 241.914C103.924 242.11 104.188 242.222 104.465 242.224H141.427C141.704 242.223 141.969 242.112 142.165 241.915C142.36 241.719 142.47 241.453 142.47 241.176V235.836H103.422Z" fill="#3F3D56"/>
<path d="M42.4881 98.7927V199.907C42.4891 201.195 43.0016 202.431 43.9131 203.342C44.8245 204.253 46.0604 204.765 47.3494 204.767H197.241C198.53 204.765 199.766 204.253 200.677 203.342C201.589 202.431 202.101 201.195 202.102 199.907V98.7927C202.099 97.5053 201.586 96.2716 200.675 95.3617C199.763 94.4519 198.529 93.9401 197.241 93.9384H47.3494C46.0616 93.9401 44.8268 94.4519 43.9157 95.3617C43.0045 96.2716 42.4912 97.5053 42.4881 98.7927Z" fill="#3F3D56"/>
<path d="M46.0045 100.051V198.66C46.0056 199.348 46.2797 200.008 46.7667 200.495C47.2537 200.982 47.9139 201.256 48.6026 201.257H195.993C196.682 201.256 197.342 200.982 197.829 200.495C198.316 200.008 198.59 199.348 198.591 198.66V100.051C198.591 99.3615 198.318 98.7004 197.83 98.2125C197.343 97.7245 196.683 97.4497 195.993 97.4482H48.6026C47.913 97.4497 47.2522 97.7246 46.7652 98.2125C46.2781 98.7004 46.0045 99.3615 46.0045 100.051Z" fill="white"/>
<path d="M73.3576 241.862C73.5076 242.05 73.6983 242.202 73.9154 242.306C74.1324 242.41 74.3701 242.463 74.6107 242.462H162.299C162.538 242.461 162.775 242.408 162.992 242.304C163.208 242.201 163.399 242.051 163.55 241.865C163.701 241.679 163.808 241.461 163.865 241.228C163.921 240.995 163.925 240.752 163.876 240.518L162.515 234.054C162.458 233.791 162.337 233.545 162.161 233.341C161.986 233.136 161.762 232.979 161.51 232.883C161.328 232.811 161.133 232.774 160.937 232.775H75.9665C75.7706 232.774 75.5764 232.811 75.394 232.883C75.142 232.979 74.9181 233.136 74.7426 233.341C74.5672 233.545 74.4457 233.791 74.3893 234.054L73.0281 240.518C72.9797 240.752 72.9841 240.995 73.0411 241.227C73.0981 241.46 73.2062 241.677 73.3576 241.862Z" fill="#2F2E41"/>
<path d="M191.21 111.032H53.2971C53.1538 111.029 53.0174 110.97 52.9171 110.867C52.8169 110.765 52.7607 110.627 52.7607 110.484C52.7607 110.34 52.8169 110.203 52.9171 110.1C53.0174 109.998 53.1538 109.939 53.2971 109.935H191.21C191.353 109.939 191.49 109.998 191.59 110.1C191.69 110.203 191.746 110.34 191.746 110.484C191.746 110.627 191.69 110.765 191.59 110.867C191.49 110.97 191.353 111.029 191.21 111.032Z" fill="#3F3D56"/>
<path d="M62.685 107.136C64.4601 107.136 65.8991 105.666 65.8991 103.852C65.8991 102.038 64.4601 100.567 62.685 100.567C60.9099 100.567 59.4709 102.038 59.4709 103.852C59.4709 105.666 60.9099 107.136 62.685 107.136Z" fill="#3F3D56"/>
<path d="M73.7883 107.136C75.5634 107.136 77.0024 105.666 77.0024 103.852C77.0024 102.038 75.5634 100.567 73.7883 100.567C72.0132 100.567 70.5742 102.038 70.5742 103.852C70.5742 105.666 72.0132 107.136 73.7883 107.136Z" fill="#3F3D56"/>
<path d="M84.8916 107.136C86.6667 107.136 88.1057 105.666 88.1057 103.852C88.1057 102.038 86.6667 100.567 84.8916 100.567C83.1165 100.567 81.6775 102.038 81.6775 103.852C81.6775 105.666 83.1165 107.136 84.8916 107.136Z" fill="#3F3D56"/>
<path d="M184.524 101.379H176.638C176.482 101.383 176.333 101.447 176.224 101.559C176.115 101.67 176.054 101.82 176.054 101.976C176.054 102.132 176.115 102.281 176.224 102.393C176.333 102.504 176.482 102.569 176.638 102.573H184.524C184.681 102.57 184.83 102.506 184.94 102.395C185.051 102.283 185.112 102.133 185.112 101.976C185.112 101.819 185.051 101.669 184.94 101.557C184.83 101.445 184.681 101.381 184.524 101.379Z" fill="#3F3D56"/>
<path d="M184.524 103.62H176.638C176.482 103.623 176.333 103.688 176.224 103.799C176.115 103.911 176.054 104.061 176.054 104.217C176.054 104.373 176.115 104.523 176.224 104.634C176.333 104.746 176.482 104.81 176.638 104.813H184.524C184.681 104.811 184.831 104.748 184.941 104.636C185.052 104.524 185.113 104.374 185.113 104.217C185.113 104.06 185.052 103.909 184.941 103.797C184.831 103.686 184.681 103.622 184.524 103.62Z" fill="#3F3D56"/>
<path d="M184.524 105.861H176.638C176.482 105.865 176.333 105.929 176.224 106.04C176.115 106.152 176.054 106.302 176.054 106.458C176.054 106.613 176.115 106.763 176.224 106.875C176.333 106.986 176.482 107.051 176.638 107.054H184.524C184.681 107.052 184.83 106.988 184.94 106.876C185.051 106.765 185.112 106.614 185.112 106.458C185.112 106.301 185.051 106.15 184.94 106.039C184.83 105.927 184.681 105.863 184.524 105.861Z" fill="#3F3D56"/>
<path d="M374.645 238.18C374.883 238.873 375.334 239.472 375.934 239.892C376.535 240.312 377.252 240.532 377.985 240.519L392.294 240.15C393.032 240.136 393.746 239.883 394.328 239.43C394.91 238.977 395.33 238.347 395.525 237.636L397.55 215.99C398.268 216.315 399.05 216.476 399.839 216.46C400.524 216.443 401.199 216.291 401.825 216.013C402.452 215.735 403.017 215.337 403.49 214.84C403.962 214.344 404.332 213.759 404.578 213.12C404.824 212.481 404.942 211.799 404.925 211.114C404.908 210.429 404.756 209.754 404.478 209.128C404.2 208.502 403.801 207.937 403.304 207.465C402.808 206.993 402.223 206.623 401.583 206.377C400.944 206.131 400.262 206.013 399.577 206.03C399.262 206.029 398.947 206.062 398.639 206.127C398.304 205.765 397.897 205.476 397.443 205.281C396.99 205.085 396.5 204.987 396.007 204.992L373.995 205.56C373.813 205.567 373.631 205.589 373.452 205.627C372.97 205.717 372.512 205.91 372.11 206.191C371.707 206.473 371.37 206.837 371.121 207.26C370.872 207.683 370.716 208.154 370.664 208.643C370.612 209.131 370.665 209.624 370.82 210.09L374.645 238.18ZM397.965 214.52L399.406 209.362C399.57 208.766 399.574 208.138 399.417 207.54C399.487 207.54 399.549 207.507 399.619 207.506C400.607 207.486 401.562 207.858 402.276 208.541C402.99 209.224 403.404 210.162 403.427 211.15C403.451 212.137 403.081 213.094 402.4 213.809C401.718 214.525 400.781 214.941 399.793 214.967C399.155 214.987 398.523 214.833 397.965 214.52Z" fill="#2F2E41"/>
<path d="M373.452 205.627C373.921 208.308 379.194 210.192 385.533 209.865C391.363 209.596 396.129 207.55 397.003 205.125C396.68 205.029 396.344 204.984 396.007 204.992L373.995 205.56C373.813 205.567 373.631 205.589 373.452 205.627Z" fill="#3F3D56"/>
<path d="M386.695 226.285C386.724 226.278 386.752 226.266 386.777 226.25L389.884 224.216C389.922 224.192 389.953 224.158 389.974 224.119C389.995 224.079 390.006 224.035 390.007 223.99C390.007 223.946 389.995 223.902 389.974 223.862C389.953 223.823 389.922 223.789 389.884 223.765L386.654 221.65C386.625 221.63 386.591 221.617 386.557 221.61C386.522 221.603 386.486 221.603 386.451 221.611C386.416 221.618 386.383 221.632 386.354 221.652C386.324 221.672 386.299 221.697 386.28 221.727C386.26 221.757 386.247 221.79 386.24 221.825C386.234 221.86 386.234 221.896 386.241 221.93C386.249 221.965 386.263 221.998 386.283 222.027C386.303 222.057 386.329 222.082 386.358 222.101L389.243 223.99L386.481 225.798C386.427 225.833 386.388 225.886 386.37 225.947C386.352 226.008 386.356 226.074 386.381 226.132C386.407 226.191 386.453 226.238 386.51 226.266C386.568 226.294 386.633 226.301 386.695 226.285Z" fill="#2B59BB"/>
<path d="M381.787 226.512C381.839 226.498 381.886 226.47 381.922 226.43C381.958 226.39 381.981 226.34 381.988 226.287C381.995 226.233 381.987 226.179 381.963 226.131C381.939 226.083 381.902 226.042 381.855 226.016L378.99 224.374L381.759 222.318C381.788 222.297 381.811 222.271 381.83 222.24C381.848 222.21 381.86 222.176 381.865 222.141C381.87 222.106 381.868 222.07 381.86 222.036C381.851 222.002 381.836 221.969 381.815 221.941C381.794 221.912 381.767 221.888 381.737 221.87C381.706 221.852 381.673 221.84 381.637 221.835C381.602 221.83 381.567 221.831 381.532 221.84C381.498 221.849 381.466 221.864 381.437 221.885L378.337 224.187C378.301 224.214 378.273 224.249 378.254 224.289C378.235 224.33 378.226 224.375 378.229 224.419C378.231 224.464 378.245 224.508 378.269 224.546C378.292 224.584 378.325 224.615 378.364 224.638L381.586 226.484C381.647 226.519 381.719 226.529 381.787 226.512Z" fill="#2B59BB"/>
<path d="M386.386 228.067C386.412 228.061 386.437 228.05 386.46 228.036C386.49 228.018 386.517 227.993 386.538 227.965C386.559 227.936 386.574 227.904 386.582 227.869C386.59 227.835 386.592 227.799 386.587 227.764C386.581 227.729 386.569 227.695 386.55 227.665L382.145 220.425C382.108 220.364 382.048 220.32 381.978 220.303C381.909 220.287 381.835 220.298 381.774 220.335C381.713 220.372 381.669 220.432 381.652 220.502C381.635 220.571 381.647 220.645 381.684 220.706L386.089 227.946C386.119 227.995 386.164 228.034 386.217 228.055C386.271 228.077 386.33 228.081 386.386 228.067Z" fill="#2B59BB"/>
<path d="M138.732 140.838H114.862C113.888 140.838 113.099 141.627 113.099 142.6V144.932C113.099 145.905 113.888 146.694 114.862 146.694H138.732C139.705 146.694 140.495 145.905 140.495 144.932V142.6C140.495 141.627 139.705 140.838 138.732 140.838Z" fill="#2B59BB"/>
<path d="M152.645 152.551H100.949C99.9748 152.551 99.1854 153.34 99.1854 154.313V156.644C99.1854 157.618 99.9748 158.407 100.949 158.407H152.645C153.619 158.407 154.408 157.618 154.408 156.644V154.313C154.408 153.34 153.619 152.551 152.645 152.551Z" fill="#E6E6E6"/>
<path d="M152.645 164.263H100.949C99.9748 164.263 99.1854 165.052 99.1854 166.026V168.357C99.1854 169.33 99.9748 170.119 100.949 170.119H152.645C153.619 170.119 154.408 169.33 154.408 168.357V166.026C154.408 165.052 153.619 164.263 152.645 164.263Z" fill="#E6E6E6"/>
<path d="M157.027 203.484L157.144 203.854L157.151 203.866L160.675 214.578L164.73 226.922L172.358 250.12L172.432 253.723V253.735L172.999 282.723L171.428 286.653L173.196 293.096C173.196 293.096 172.383 283.357 168.02 288.95C165.549 292.128 162.659 295.381 160.287 298.43C163.744 299.828 167.256 301.093 170.824 302.224C171.594 302.471 172.37 302.705 173.147 302.939C173.313 302.988 173.479 303.037 173.646 303.087C185.472 306.583 197.699 308.548 210.025 308.932C210.666 308.951 211.295 308.963 211.905 308.975C212.12 308.982 212.33 308.988 212.539 308.988C213.229 308.994 213.913 309 214.604 309C215.996 309 217.383 308.98 218.763 308.938C228.979 308.651 239.135 307.277 249.061 304.842C248.993 300.746 248.808 295.96 248.543 290.847C248.42 288.34 245.653 285.624 245.487 283C245.37 281.029 247.853 279.174 247.723 277.173C246.885 264.847 245.838 269.578 245.062 260.85C244.981 259.994 244.907 259.175 244.84 258.392C244.341 252.787 243.996 249.282 243.996 249.282L247.311 228.394L252.517 195.6L252.117 194.941L251.667 194.719L224.204 181.13L222.713 177.311C222.278 176.211 221.524 175.266 220.548 174.597C219.572 173.929 218.418 173.568 217.235 173.56L199.144 173.486C198.205 173.482 197.278 173.702 196.441 174.127C195.604 174.552 194.881 175.171 194.331 175.932L189.432 182.713L157.027 203.484Z" fill="#3F3D56"/>
<path d="M176.53 244.958L172.432 253.723L169.635 259.71L164.822 284.898L162.413 287.454L160.349 278.404L138.744 283.2C138.035 279.264 138.554 283.333 138.117 279.015C138.24 278.892 138.369 278.769 138.499 278.645C138.844 278.325 139.133 278.023 139.127 277.734C138.881 262.84 139.62 237.492 145.794 222.136C146.761 219.629 148.036 217.251 149.59 215.058C149.713 214.892 149.83 214.726 149.947 214.559C152.794 210.574 154.593 206.65 157.144 203.86V203.854C157.16 203.841 157.175 203.826 157.188 203.811C157.197 203.806 157.205 203.8 157.212 203.792L174.737 194.503L175.488 215.619L176.024 230.797L176.53 244.958Z" fill="#3F3D56"/>
<path d="M239.719 247.447L244.837 258.395L246.624 262.208L251.435 287.393L253.836 289.943L255.905 280.896L256.877 280.696L274.41 277.066L279.52 293.29C280.672 291.372 281.125 289.115 280.804 286.901C280.483 284.686 279.407 282.651 277.758 281.138C277.409 280.822 277.119 280.515 277.127 280.224C277.418 262.706 276.346 230.718 266.666 217.553C263.591 213.375 261.747 209.213 259.063 206.306C259.054 206.298 259.054 206.289 259.046 206.289L252.515 195.599L252.116 194.943L251.667 194.718L239.719 247.447Z" fill="#3F3D56"/>
<path d="M208.712 168.339C222.004 168.339 232.78 157.567 232.78 144.279C232.78 130.991 222.004 120.219 208.712 120.219C195.419 120.219 184.644 130.991 184.644 144.279C184.644 157.567 195.419 168.339 208.712 168.339Z" fill="#FFB6B6"/>
<path d="M241.243 127.474C241.056 127.274 240.831 127.115 240.582 127.004C240.332 126.894 240.063 126.835 239.79 126.831L240.151 125.827C240.27 125.51 240.301 125.168 240.244 124.836C240.186 124.503 240.041 124.191 239.823 123.933C239.606 123.675 239.323 123.479 239.005 123.366C238.687 123.253 238.344 123.226 238.012 123.289L236.695 123.543L236.819 122.662C236.866 122.335 236.828 122 236.707 121.692C236.586 121.383 236.387 121.112 236.129 120.904C235.871 120.695 235.564 120.558 235.237 120.505C234.91 120.451 234.574 120.484 234.264 120.6C233.981 120.711 233.678 120.757 233.375 120.736C233.072 120.714 232.778 120.626 232.514 120.476C232.249 120.33 232.019 120.129 231.839 119.885C231.66 119.642 231.537 119.362 231.477 119.066L231.018 116.852L230.969 116.734C228.733 113.008 224.433 110.297 219.172 109.304C214.489 108.413 209.687 108.866 205.058 109.293C203.221 109.466 201.147 109.66 199.419 110.718C197.95 111.626 196.707 113.44 196.961 115.27C192.397 113.872 187.503 116.663 185.078 120.184C182.204 124.374 181.734 129.623 181.659 133.726C181.453 143.435 183.457 151.378 187.6 157.339C187.903 157.771 187.978 158.673 188.578 158.975L188.454 158.775C189.124 159.11 189.804 159.65 189.55 160.228C188.821 161.891 193.666 165.568 197.08 166.783C203.308 169.002 211.588 168.813 217.411 168.014L217.616 166.637C219.718 166.351 221.198 165.806 221.614 164.953C222.348 164.326 222.975 163.765 223.52 163.246L223.526 163.241C223.536 163.23 223.558 163.214 223.569 163.203C226.199 160.681 226.81 159.245 227.085 157.058C227.35 154.915 226.88 152.739 226.399 150.779C236.522 152.344 222.413 140.001 231.844 137.614C231.952 137.581 232.062 137.554 232.173 137.533C232.449 137.468 232.724 137.404 232.989 137.328C234.265 136.982 235.486 136.46 236.619 135.778C239.255 134.175 240.124 132.047 241.486 129.65C241.682 129.308 241.764 128.913 241.721 128.522C241.677 128.13 241.509 127.763 241.243 127.474Z" fill="#2F2E41"/>
<path d="M293.837 249.16C293.831 250.105 293.821 251.428 293.777 253.064C293.772 253.291 293.767 253.523 293.761 253.761C293.691 256.769 293.621 259.29 293.507 262.093C293.502 262.287 293.497 262.476 293.486 262.67C293.335 266.58 293.097 271.132 292.686 278.34C291.925 291.656 290.596 280.171 289.262 284.841C289.197 285.074 289.127 285.349 289.062 285.673C288.86 286.848 288.519 287.996 288.046 289.091C287.339 289.512 286.61 289.917 285.891 290.322C283.844 291.461 281.765 292.557 279.669 293.6C278.491 294.183 277.308 294.755 276.12 295.306C275.931 295.392 275.747 295.479 275.564 295.56C269.478 298.373 263.207 300.766 256.793 302.72C255.54 303.098 254.293 303.465 253.029 303.805C251.711 304.172 250.393 304.518 249.059 304.842C239.133 307.278 228.977 308.651 218.762 308.94C217.384 308.983 215.996 308.999 214.602 308.999C213.911 308.999 213.23 308.994 212.539 308.989C212.328 308.989 212.118 308.983 211.907 308.978C211.297 308.962 210.665 308.951 210.027 308.935C197.701 308.55 185.474 306.585 173.648 303.087L173.146 302.941C172.368 302.703 171.596 302.471 170.823 302.223C167.258 301.094 163.746 299.831 160.285 298.432C157.644 297.369 155.033 296.227 152.453 295.009C152.429 295.003 152.407 294.992 152.388 294.977C151.848 294.728 151.302 294.469 150.762 294.204C150.692 294.167 150.616 294.129 150.541 294.091C148.526 293.108 146.533 292.079 144.561 291.002C142.903 287.196 140.57 286.467 139.122 283.119C138.701 282.124 138.396 281.084 138.215 280.019C138.215 280.009 138.209 279.998 138.209 279.982C138.36 281.99 137.566 276.418 138.204 279.96C138.198 279.895 138.193 279.825 138.188 279.744C138.171 279.55 138.15 279.312 138.117 279.015C136.265 260.932 136.384 240.251 135.579 223.21C135.525 222.108 135.469 221.053 135.411 220.045C135.395 219.711 135.373 219.381 135.352 219.057C135.39 218.96 135.433 218.857 135.481 218.76C135.492 218.732 135.504 218.705 135.519 218.679C135.535 218.646 135.553 218.613 135.573 218.582C135.584 218.566 135.6 218.544 135.611 218.528C135.619 218.51 135.628 218.492 135.638 218.474C135.687 218.399 135.741 218.318 135.8 218.242C135.827 218.21 135.849 218.182 135.876 218.156C135.894 218.128 135.916 218.103 135.941 218.08C135.957 218.054 135.977 218.03 136 218.01C136.022 217.988 136.043 217.961 136.07 217.934C136.082 217.917 136.096 217.903 136.113 217.891C136.156 217.842 136.203 217.797 136.254 217.756C136.447 217.579 136.652 217.416 136.87 217.27C136.945 217.221 137.026 217.173 137.102 217.119C137.646 216.793 138.219 216.519 138.814 216.298C139.019 216.222 139.225 216.152 139.446 216.077C139.527 216.055 139.603 216.028 139.684 216.001C139.803 215.963 139.921 215.925 140.046 215.898C140.661 215.715 141.326 215.558 142.044 215.412C142.131 215.396 142.222 215.38 142.314 215.359C142.444 215.332 142.579 215.31 142.714 215.288C142.898 215.256 143.087 215.224 143.276 215.191C144.88 214.937 146.7 214.748 148.71 214.624C148.899 214.613 149.088 214.603 149.277 214.592C149.498 214.581 149.72 214.57 149.947 214.559C150.136 214.549 150.33 214.543 150.525 214.538C150.714 214.527 150.908 214.522 151.108 214.516C151.653 214.5 152.215 214.484 152.788 214.473C154.419 214.441 156.137 214.451 157.941 214.489C158.778 214.511 159.632 214.532 160.507 214.57C160.566 214.57 160.62 214.576 160.674 214.576C161.436 214.603 162.203 214.635 162.991 214.678C163.542 214.705 164.099 214.732 164.655 214.765C165.179 214.797 165.708 214.829 166.243 214.867C166.659 214.889 167.075 214.921 167.496 214.948C167.853 214.975 168.209 215.002 168.566 215.024L169.052 215.056C169.316 215.078 169.581 215.094 169.851 215.121C170.445 215.17 171.039 215.218 171.644 215.267C172.244 215.321 172.854 215.375 173.465 215.429C174.075 215.483 174.691 215.542 175.307 215.602C175.371 215.607 175.431 215.612 175.49 215.618C176.052 215.677 176.614 215.731 177.181 215.79C177.311 215.801 177.446 215.812 177.575 215.828C178.116 215.883 178.667 215.946 179.213 216.004C179.38 216.022 179.547 216.04 179.715 216.058C180.142 216.105 180.564 216.145 180.994 216.195C181.561 216.26 182.139 216.32 182.701 216.395C183.139 216.444 183.576 216.492 184.014 216.546C184.7 216.627 185.397 216.714 186.093 216.806C186.358 216.838 186.623 216.87 186.887 216.908C188.875 217.157 190.884 217.432 192.926 217.718C196.021 218.156 199.165 218.631 202.33 219.144C205.501 219.657 208.69 220.198 211.896 220.769C212.706 220.915 213.517 221.061 214.332 221.212C214.7 221.282 215.067 221.352 215.434 221.422C216.061 221.536 216.687 221.654 217.314 221.773C217.94 221.892 218.567 222.011 219.194 222.135C219.939 222.281 220.69 222.427 221.435 222.572C226.345 223.544 231.228 224.581 235.992 225.666C236.775 225.845 237.559 226.028 238.337 226.206C239.892 226.568 241.433 226.935 242.96 227.308C243.382 227.405 243.797 227.508 244.213 227.61C245.25 227.87 246.288 228.129 247.308 228.393L247.487 228.442C248.237 228.625 248.972 228.814 249.707 229.009C251.441 229.462 253.146 229.921 254.822 230.386C255.935 230.694 257.035 231.005 258.122 231.32C259.748 231.79 261.341 232.265 262.892 232.745C263.275 232.864 263.659 232.983 264.037 233.096C265.171 233.447 266.289 233.804 267.375 234.16C268.239 234.441 269.082 234.727 269.914 235.013C270.745 235.299 271.561 235.586 272.361 235.872C272.874 236.055 273.381 236.25 273.889 236.433C274.618 236.703 275.337 236.973 276.039 237.243C276.255 237.324 276.466 237.411 276.676 237.492C276.811 237.551 276.941 237.6 277.071 237.654C277.324 237.756 277.584 237.853 277.832 237.956C278.086 238.053 278.335 238.156 278.583 238.264C278.826 238.361 279.075 238.464 279.312 238.566C279.555 238.663 279.793 238.766 280.031 238.874C280.23 238.955 280.425 239.041 280.614 239.128C280.997 239.295 281.381 239.463 281.754 239.635C281.937 239.722 282.121 239.803 282.305 239.889L282.726 240.084C282.785 240.116 282.845 240.143 282.904 240.17C283.039 240.235 283.18 240.305 283.315 240.37C283.628 240.516 283.936 240.672 284.238 240.818C284.644 241.023 285.038 241.228 285.416 241.428C285.799 241.633 286.172 241.838 286.529 242.038C286.588 242.071 286.642 242.103 286.701 242.135C286.783 242.179 286.864 242.227 286.945 242.27C287.22 242.427 287.485 242.589 287.749 242.746C288.268 243.064 288.759 243.377 289.219 243.691C289.321 243.761 289.418 243.831 289.521 243.896C289.861 244.139 290.185 244.376 290.488 244.619C290.488 244.625 290.488 244.625 290.493 244.625C290.596 244.7 290.693 244.781 290.79 244.857C290.871 244.932 290.958 244.997 291.039 245.073C291.32 245.316 291.579 245.548 291.817 245.786C291.896 245.859 291.972 245.936 292.044 246.018C292.075 246.044 292.104 246.073 292.13 246.104C292.238 246.212 292.335 246.32 292.427 246.428C292.441 246.443 292.454 246.459 292.465 246.477C292.594 246.628 292.713 246.779 292.827 246.93C292.881 247.006 292.94 247.081 292.989 247.157C293.054 247.249 293.118 247.346 293.172 247.438C293.221 247.513 293.264 247.594 293.307 247.67C293.422 247.865 293.52 248.069 293.599 248.28C293.66 248.424 293.709 248.572 293.745 248.723C293.786 248.866 293.817 249.013 293.837 249.16Z" fill="#2F2E41"/>
<path opacity="0.2" d="M293.837 249.16C293.831 250.105 293.821 251.428 293.777 253.064C293.772 253.291 293.761 253.523 293.756 253.761C293.702 256.056 293.621 258.891 293.507 262.093C293.502 262.287 293.497 262.476 293.486 262.67C293.334 266.58 293.097 271.132 292.686 278.34C291.925 291.656 290.596 280.171 289.262 284.841C285.556 282.563 281.494 280.176 277.152 277.725C276.368 277.282 275.578 276.837 274.78 276.391C266.095 271.547 256.394 266.472 246.266 261.445C245.866 261.245 245.461 261.045 245.061 260.851C221.862 249.387 196.54 238.237 176.025 230.796C172.066 229.36 168.285 228.064 164.73 226.925C157.244 224.533 150.773 222.859 145.793 222.135C140.607 221.379 137.026 221.649 135.579 223.21C135.525 222.108 135.469 221.053 135.411 220.045C135.39 219.711 135.368 219.381 135.346 219.057C135.38 218.968 135.423 218.884 135.465 218.798C135.471 218.785 135.475 218.773 135.481 218.76C135.492 218.732 135.504 218.705 135.519 218.679C135.535 218.646 135.553 218.613 135.573 218.582C135.591 218.544 135.612 218.508 135.638 218.474C135.687 218.398 135.741 218.317 135.8 218.242C135.844 218.185 135.891 218.131 135.94 218.08C135.957 218.054 135.977 218.03 136 218.01C136.022 217.988 136.043 217.961 136.07 217.934C136.082 217.917 136.096 217.902 136.113 217.891C136.156 217.842 136.203 217.797 136.254 217.756C136.446 217.579 136.652 217.416 136.87 217.27C136.945 217.221 137.026 217.173 137.102 217.119C137.646 216.793 138.219 216.519 138.814 216.298C139.019 216.222 139.225 216.152 139.446 216.077C139.527 216.055 139.603 216.028 139.684 216.001C139.803 215.963 139.921 215.925 140.046 215.898C140.661 215.715 141.326 215.558 142.044 215.412C142.26 215.369 142.487 215.326 142.714 215.288C142.898 215.256 143.087 215.223 143.276 215.191C144.88 214.937 146.7 214.748 148.71 214.624C148.899 214.613 149.088 214.603 149.277 214.592C149.498 214.581 149.72 214.57 149.947 214.559C150.136 214.549 150.33 214.543 150.525 214.538C150.714 214.527 150.908 214.522 151.108 214.516C151.653 214.5 152.215 214.484 152.788 214.473C154.419 214.446 156.137 214.457 157.941 214.495C158.778 214.511 159.631 214.538 160.506 214.576C160.56 214.576 160.62 214.581 160.674 214.581C161.436 214.603 162.208 214.64 162.991 214.678C163.542 214.705 164.098 214.732 164.655 214.765C165.179 214.797 165.708 214.829 166.243 214.867C166.659 214.889 167.075 214.921 167.496 214.948C167.852 214.975 168.209 215.002 168.565 215.024C168.992 215.056 169.419 215.089 169.851 215.121C170.445 215.169 171.039 215.218 171.644 215.267C172.244 215.321 172.854 215.375 173.465 215.429C174.075 215.483 174.691 215.542 175.307 215.601C175.371 215.607 175.431 215.612 175.49 215.618C176.052 215.677 176.614 215.731 177.181 215.79C180.325 216.109 183.56 216.482 186.887 216.908C188.875 217.162 190.888 217.434 192.926 217.724C196.021 218.161 199.165 218.636 202.33 219.144C205.501 219.657 208.69 220.198 211.896 220.769C212.706 220.915 213.517 221.061 214.332 221.212C215.326 221.395 216.32 221.582 217.314 221.773C217.94 221.892 218.567 222.011 219.194 222.135C219.939 222.281 220.69 222.427 221.435 222.572C226.345 223.544 231.228 224.581 235.992 225.666C236.775 225.845 237.559 226.028 238.336 226.206C239.892 226.568 241.433 226.935 242.96 227.308C243.381 227.411 243.797 227.513 244.213 227.616C245.256 227.875 246.287 228.134 247.308 228.393V228.399C247.368 228.409 247.427 228.426 247.487 228.442C248.232 228.631 248.972 228.82 249.707 229.014C251.44 229.468 253.146 229.925 254.822 230.386C255.935 230.699 257.036 231.007 258.122 231.32C259.748 231.795 261.341 232.27 262.892 232.745C263.275 232.864 263.659 232.983 264.037 233.096C265.171 233.453 266.284 233.807 267.375 234.16C268.239 234.441 269.082 234.727 269.914 235.013C270.745 235.299 271.561 235.586 272.36 235.872C272.879 236.055 273.387 236.244 273.889 236.428C274.624 236.698 275.337 236.968 276.039 237.243C276.255 237.324 276.466 237.411 276.676 237.492C277.071 237.643 277.454 237.799 277.832 237.956C278.086 238.053 278.335 238.156 278.583 238.264C278.826 238.361 279.075 238.464 279.312 238.566C279.555 238.663 279.793 238.766 280.031 238.874C280.23 238.955 280.425 239.041 280.614 239.128C280.997 239.295 281.381 239.463 281.754 239.635C281.937 239.722 282.121 239.803 282.305 239.889L282.726 240.084C282.785 240.116 282.845 240.143 282.904 240.17C283.363 240.386 283.806 240.602 284.238 240.818C284.643 241.023 285.038 241.228 285.416 241.428C285.864 241.666 286.291 241.898 286.701 242.135C286.782 242.179 286.863 242.227 286.944 242.27C287.22 242.427 287.485 242.589 287.749 242.746C288.268 243.064 288.759 243.377 289.219 243.69C289.672 244.004 290.094 244.311 290.488 244.619C290.488 244.625 290.488 244.625 290.493 244.625C290.682 244.776 290.866 244.927 291.039 245.073C291.32 245.316 291.579 245.548 291.817 245.786C291.896 245.859 291.972 245.936 292.044 246.018C292.075 246.044 292.104 246.073 292.13 246.104C292.243 246.228 292.357 246.353 292.465 246.477C292.594 246.628 292.713 246.779 292.827 246.93C292.881 247.006 292.94 247.081 292.989 247.157C293.054 247.249 293.118 247.346 293.172 247.438C293.221 247.513 293.264 247.594 293.307 247.67C293.422 247.865 293.52 248.069 293.599 248.28C293.658 248.424 293.707 248.572 293.745 248.723C293.786 248.866 293.817 249.013 293.837 249.16Z" fill="black"/>
</g>
<defs>
<clipPath id="clip0_19_21">
<rect width="425" height="309" fill="white"/>
</clipPath>
</defs>
</svg>
