<svg width="425" height="382" viewBox="0 0 425 382" fill="none" xmlns="http://www.w3.org/2000/svg">
<g clip-path="url(#clip0_19_728)">
<path opacity="0.1" d="M424.374 221.636C422.851 206.41 418.421 192.006 412.644 179.136C399.605 150.056 379.846 128.359 358.488 112.818C358.282 112.665 358.059 112.522 357.866 112.373C360.224 109.26 361.91 105.584 362.794 101.63C369.364 71.6325 325.051 33.821 263.849 17.1853C214.732 3.85187 169.656 8.1912 150.364 25.9309C105.365 22.7767 58.419 53.63 27.2215 101.152C16.0704 118.161 6.63478 138.252 2.49599 160.966C-2.53918 188.474 0.471634 218.08 7.53545 244.628C12.9781 265.072 20.9297 284.226 30.9271 300.633C31.6391 301.799 32.361 302.952 33.093 304.093C34.3539 306.058 35.6406 307.97 36.953 309.827C45.1877 321.512 54.5632 331.433 64.8738 338.941C70.7316 343.221 77.0209 346.717 83.612 349.359C101.196 356.375 120.068 356.666 137.446 349.359C140.359 348.137 143.201 346.715 145.955 345.101C147.482 344.212 148.992 343.257 150.484 342.234C153.362 340.265 156.189 338.067 158.994 335.782C162.884 332.609 166.714 329.264 170.621 326.138L170.955 325.866C175.545 322.196 180.189 318.836 185.032 316.418C188.257 314.763 191.672 313.61 195.179 312.991C200.37 312.169 205.66 312.627 210.675 314.334C211.627 314.64 212.579 314.989 213.523 315.371C216.591 316.634 219.562 318.17 222.409 319.964C234.779 327.61 246.616 339.801 258.762 349.359C260.478 350.726 262.24 352.04 263.99 353.278C279.486 364.236 296.53 369.579 313.394 374.76C332.514 380.638 352.749 386.344 371.247 377.192C381.969 371.892 391.255 361.842 398.696 349.359C401.956 343.858 404.816 338.074 407.248 332.064C408.458 329.092 409.588 326.065 410.641 322.984C416.757 305.063 420.312 285.373 422.765 265.636C424.584 251.108 425.819 236.231 424.374 221.636Z" fill="#2B59BB"/>
<g opacity="0.1">
<path d="M133.548 254.807C133.681 255.232 133.818 255.643 133.977 256.045C136.804 253.575 139.544 251.027 142.194 248.398C143.779 247.611 145.089 246.269 145.926 244.575C146.689 243.772 147.448 242.95 148.199 242.133C147.874 241.727 147.526 241.346 147.156 240.991C144.617 238.51 141.478 237.469 138.609 238.525C135.739 239.581 133.779 242.501 133.063 246.171C132.531 249.046 132.698 252.028 133.548 254.807Z" fill="#3F3D56"/>
<path d="M128.839 238.931C129.641 241.719 131.097 244.218 133.055 246.171C135.594 248.642 138.729 249.689 141.602 248.628C141.8 248.551 141.988 248.47 142.186 248.384C143.77 247.597 145.081 246.254 145.917 244.561C146.492 243.445 146.908 242.235 147.148 240.976C147.644 238.102 147.471 235.133 146.645 232.354C145.819 229.575 144.368 227.077 142.43 225.101C139.887 222.62 136.752 221.578 133.882 222.635C131.013 223.691 129.053 226.611 128.337 230.281C127.807 233.163 127.981 236.149 128.839 238.931Z" fill="#3F3D56"/>
<path d="M136.875 232.781C141.794 230.97 144.056 223.685 141.928 216.51C139.799 209.335 134.087 204.987 129.168 206.799C124.25 208.61 121.988 215.895 124.116 223.07C126.244 230.245 131.957 234.593 136.875 232.781Z" fill="#3F3D56"/>
<path d="M132.167 216.907C137.086 215.095 139.348 207.811 137.22 200.636C135.091 193.461 129.379 189.113 124.46 190.925C119.541 192.736 117.279 200.021 119.408 207.196C121.536 214.371 127.248 218.718 132.167 216.907Z" fill="#3F3D56"/>
<path d="M127.458 201.033C132.376 199.222 134.638 191.937 132.51 184.762C130.382 177.587 124.669 173.239 119.751 175.051C114.832 176.862 112.57 184.147 114.698 191.322C116.826 198.497 122.539 202.845 127.458 201.033Z" fill="#3F3D56"/>
<path d="M124.717 67.1012C125.424 64.9268 125.998 62.7009 126.433 60.4393L101.763 64.7786L127.132 55.6651C127.811 48.8853 127.242 42.0223 125.461 35.4956C123.679 28.9689 120.722 22.9156 116.77 17.7055L88.643 49.8395L112.343 12.6588C107.734 8.09394 102.331 4.63526 96.47 2.49817C90.6091 0.361087 84.4162 -0.40864 78.2767 0.236922C72.1373 0.882485 66.1828 2.92951 60.7842 6.25054C55.3855 9.57156 50.6582 14.0955 46.8967 19.5406C43.1352 24.9856 40.42 31.2353 38.9202 37.9004C37.4204 44.5655 37.1681 51.5033 38.179 58.2817C39.1899 65.0602 41.4423 71.5342 44.7961 77.3005C48.1498 83.0669 52.5331 88.0022 57.6728 91.7991C56.5723 95.184 55.803 98.6914 55.3783 102.26L90.9762 108.655L54.9966 108.473C54.9446 116.801 56.7572 125.011 60.2701 132.362C63.7831 139.713 68.8856 145.971 75.1158 150.571C72.2478 159.405 71.6684 168.959 73.4437 178.142C75.2191 187.324 79.2775 195.765 85.1551 202.499C91.0327 209.233 98.4923 213.988 106.681 216.221C114.869 218.454 123.457 218.074 131.461 215.125C139.465 212.176 146.562 206.777 151.943 199.545C157.323 192.313 160.768 183.541 161.884 174.23C163.001 164.919 161.744 155.446 158.256 146.894C154.769 138.342 149.193 131.056 142.164 125.869C145.596 115.312 145.743 103.775 142.581 93.1143C139.419 82.4531 133.132 73.2862 124.73 67.0869L124.717 67.1012Z" fill="#2B59BB"/>
<path opacity="0.1" d="M57.244 124.569C60.3932 135.235 66.6813 144.404 75.0901 150.591C72.228 159.424 71.6537 168.976 73.4329 178.156C75.2121 187.336 79.273 195.772 85.1514 202.502C91.0299 209.232 98.4889 213.983 106.676 216.213C114.863 218.443 123.448 218.062 131.45 215.112C139.452 212.163 146.547 206.765 151.926 199.535C157.305 192.305 160.75 183.535 161.868 174.226C162.985 164.918 161.73 155.447 158.246 146.896C154.762 138.345 149.189 131.059 142.164 125.869C145.471 115.676 55.6742 119.212 57.244 124.569Z" fill="black"/>
</g>
<path d="M166.448 119.571C165.38 117.143 164.981 114.405 164.595 111.719C162.331 95.862 160.212 78.7436 166.362 64.3732C167.331 62.1127 168.507 59.9144 170.222 58.3707C172.058 56.722 174.335 55.9382 176.463 54.8677C182.639 51.7709 187.614 46.213 193.043 41.6012C198.473 36.9895 205.027 33.1424 211.679 34.318C215.11 34.925 218.284 36.8365 221.612 38.0361C231.013 41.4292 241.864 39.2165 250.309 45.0995C253.358 47.2261 255.846 50.2608 258.29 53.262L269.197 66.6432C272.152 70.2657 275.163 73.979 276.951 78.519C278.74 83.0591 279.117 88.6553 276.84 92.8895C275.695 95.0257 273.885 96.8752 273.688 99.3841C273.473 102.108 275.249 104.45 275.896 107.078C277.612 114.022 271.32 119.982 265.582 122.725C248.242 130.992 229.165 130.041 210.808 129.702C197.139 129.439 174.331 137.435 166.448 119.571Z" fill="#3F3D56"/>
<path d="M197.285 153.936C196.08 157.143 193.489 159.408 190.929 161.401C188.369 163.394 185.636 165.291 182.553 165.454C187.987 173.239 195.419 178.964 202.685 184.57C206.069 187.174 209.5 189.774 213.36 191.246C216.903 192.594 220.673 192.928 224.378 193.492C229.096 194.214 233.792 195.327 238.531 195.108C246.976 194.716 255.052 189.97 260.654 182.916C266.255 175.862 269.463 166.668 270.329 157.286C267.327 157.234 264.557 155.375 262.133 153.349C259.17 150.878 256.39 148.02 254.478 144.488C252.406 140.665 251.475 136.23 250.532 131.886C240.534 131.552 230.537 131.222 220.535 131.437C216.894 131.513 213.244 131.671 209.693 132.679C206.309 133.635 199.241 136.101 197.178 139.499C195.99 141.458 197.178 143.475 197.607 145.587C198.156 148.364 198.293 151.265 197.285 153.936Z" fill="#BE6F72"/>
<path opacity="0.1" d="M197.285 153.936C196.08 157.143 193.489 159.408 190.929 161.401C188.369 163.394 185.636 165.291 182.553 165.454C187.987 173.239 195.419 178.964 202.685 184.57C206.069 187.174 209.5 189.774 213.36 191.246C216.903 192.594 220.673 192.928 224.378 193.492C229.096 194.214 233.792 195.327 238.531 195.108C246.976 194.716 255.052 189.97 260.654 182.916C266.255 175.862 269.463 166.668 270.329 157.286C267.327 157.234 264.557 155.375 262.133 153.349C259.17 150.878 256.39 148.02 254.478 144.488C252.406 140.665 251.475 136.23 250.532 131.886C240.534 131.552 230.537 131.222 220.535 131.437C216.894 131.513 213.244 131.671 209.693 132.679C206.309 133.635 199.241 136.101 197.178 139.499C195.99 141.458 197.178 143.475 197.607 145.587C198.156 148.364 198.293 151.265 197.285 153.936Z" fill="black"/>
<path d="M208.595 167.141C211.456 171.103 214.402 175.146 218.322 177.745C219.519 178.534 220.857 179.179 222.247 179.127C224.305 179.031 226.008 177.397 227.518 175.829C235.055 168.011 242.214 159.751 248.962 151.083C251.077 148.364 253.251 145.53 256.146 143.948C258.762 170.251 259.445 196.748 258.188 223.175C258.201 223.674 258.098 224.168 257.887 224.608C257.437 225.368 256.493 225.478 255.674 225.512C231.463 226.525 206.283 227.337 184.11 216.431C185.649 211.342 185.396 205.836 185.546 200.465C185.791 191.657 187.163 182.935 189.059 174.395C189.99 170.204 191.049 166.051 192.173 161.922C193.108 158.462 193.82 152.364 195.908 149.75C200.712 154.529 204.559 161.549 208.595 167.141Z" fill="#E3E8F4"/>
<path d="M219.587 179.949H222.59L230.31 194.286L222.161 216.747L212.296 194.763L219.587 179.949Z" fill="#3F3D56"/>
<path d="M219.317 202.601C216.526 198.062 214.602 192.931 213.664 187.528C213.364 185.798 213.163 184.035 212.614 182.381C211.799 179.929 210.263 177.874 208.878 175.757C203.741 167.905 200.433 158.756 199.249 149.129C198.718 144.761 198.362 139.757 195.196 137.114C193.206 135.456 190.556 135.203 188.068 135.251C178.448 135.519 169.233 139.628 162.103 146.83C160.918 148.14 159.665 149.372 158.35 150.519C157.004 151.546 155.567 152.417 154.062 153.119C150.262 155.031 146.29 156.617 142.151 157.1C141.088 157.15 140.033 157.344 139.012 157.678C137.777 158.156 136.76 159.165 135.718 160.068C132.389 162.925 128.564 164.982 124.485 166.109C118.729 181.002 114.277 196.48 111.19 212.326C110.413 216.269 109.719 220.24 108.659 224.102C107.197 229.454 105.044 234.558 103.607 239.92C97.8942 261.259 103.894 284.504 100.047 306.348L306.369 306.664C303.127 301.058 304.293 293.937 304.014 287.275C303.753 281.139 302.355 275.142 301.385 269.091C299.764 258.974 299.348 248.661 299.181 238.386C299.112 234.047 299.108 229.564 300.613 225.564C303.44 218.056 310.774 214.095 317.717 211.547C321.037 210.333 324.528 209.225 327.153 206.63C329.842 203.949 331.24 200.011 332.098 196.116C327.419 185.841 321.337 176.044 313.656 168.336C310.769 165.468 307.686 162.778 305.25 159.423C303.766 157.373 302.535 155.088 300.896 153.21C296.796 148.465 290.603 146.677 284.702 146.414C282.879 146.333 281.03 146.371 279.263 145.865C274.194 144.431 270.964 138.911 266.396 136.053C263.218 134.077 259.508 133.443 255.944 134.266C253.371 134.863 250.738 136.565 250.159 139.394C249.837 140.985 250.232 142.629 250.382 144.249C250.845 149.234 248.988 154.118 246.74 158.457C238.664 173.946 225.459 186.032 219.317 202.601Z" fill="#2B59BB"/>
<path d="M264.398 107.069C264.396 117.781 261.196 128.187 255.303 136.65C249.409 145.113 241.157 151.151 231.845 153.813C222.533 156.475 212.691 155.61 203.869 151.354C195.047 147.098 187.747 139.693 183.117 130.305C178.487 120.918 176.791 110.08 178.296 99.5008C179.802 88.9211 184.423 79.1999 191.432 71.8683C198.44 64.5368 207.439 60.0113 217.01 59.0048C226.58 57.9982 236.18 60.5677 244.296 66.3087C250.456 70.6663 255.529 76.6873 259.043 83.813C262.557 90.9386 264.399 98.938 264.398 107.069Z" fill="#BE6F72"/>
<path d="M410.649 322.975V300.618H30.9358C31.6478 301.784 32.3698 302.938 33.1017 304.078C33.6549 305.538 34.412 306.892 35.3448 308.088C35.8417 308.721 36.387 309.305 36.9746 309.832C45.2093 321.517 54.5848 331.438 64.8953 338.946C70.7532 343.225 77.0425 346.722 83.6336 349.364H398.713L410.649 322.975Z" fill="#3F3D56"/>
<path d="M229.19 275.051C223.37 274.535 217.319 272.919 211.837 275.156C209.969 275.987 208.196 277.065 206.558 278.367C200.638 282.796 195.185 287.955 190.303 293.746C188.892 295.414 187.511 297.173 186.644 299.256C185.422 302.195 185.315 305.545 184.5 308.657C184.032 310.439 183.32 312.246 183.604 314.076C183.887 315.906 185.782 317.546 187.202 316.571C187.131 317.081 187.162 317.602 187.293 318.098C187.423 318.593 187.651 319.05 187.959 319.437C188.266 319.823 188.647 320.129 189.073 320.332C189.499 320.536 189.96 320.632 190.423 320.614C192.593 320.53 194.689 319.708 196.427 318.258C196.483 318.837 196.736 319.371 197.136 319.747C197.535 320.124 198.05 320.314 198.572 320.279C202.29 320.007 205.833 317.89 209.015 315.577C212.751 312.881 216.461 309.813 220.835 308.886C218.144 310.253 215.774 312.296 213.909 314.855C213.193 315.835 212.524 316.982 213.313 318.497C213.785 319.347 214.51 319.985 215.363 320.298C220.261 322.21 225.583 319.046 228.851 314.659C230.168 312.886 231.33 310.836 233.14 309.761C236.052 308.016 239.642 309.24 242.919 308.733C246.556 308.179 249.614 305.536 252.955 303.83C257.403 301.565 262.361 300.962 267.108 299.615C267.678 299.522 268.204 299.219 268.601 298.754C268.898 298.203 269.026 297.559 268.966 296.919C268.945 290.374 268.502 283.838 267.64 277.364C267.569 276.321 267.283 275.31 266.804 274.41C265.869 272.929 264.093 272.499 262.494 272.202C259.92 271.724 257.034 270.654 254.443 270.664C251.956 270.664 249.558 272.231 247.186 273C241.348 274.889 235.251 275.584 229.19 275.051Z" fill="#BE6F72"/>
<path d="M256.322 266.434C249.893 267.187 243.845 270.199 239.055 275.036C244.403 273.531 250.159 272.045 255.314 274.224C257.825 275.286 259.996 277.155 261.553 279.594C263.11 282.032 263.981 284.931 264.058 287.923C264.134 290.914 263.411 293.864 261.981 296.397C260.552 298.93 258.479 300.933 256.026 302.152C257.068 303.457 258.599 304.098 260.122 304.59C271.123 308.164 282.9 306.023 294.15 303.586C296.209 303.142 298.439 302.554 299.695 300.666C300.815 298.96 300.781 296.661 300.682 294.544C300.395 288.432 299.919 282.119 297.431 276.676C294.06 269.287 288.206 266.535 281.155 267.39C272.86 268.374 264.625 265.498 256.322 266.434Z" fill="#E3E8F4"/>
<path d="M326.317 188.13C329.872 191.901 332.437 196.661 334.792 201.459C342.769 217.704 348.881 235.003 352.985 252.948C353.388 254.711 353.787 256.522 354.731 258.009C356.103 260.164 358.432 261.354 359.929 263.39C361.726 265.865 362.073 269.354 361.481 272.47C360.89 275.586 359.478 278.429 358.05 281.187C354.143 288.728 349.533 296.513 342.357 299.959C339.355 301.393 336.074 301.985 332.827 302.458C320.633 304.246 308.31 304.69 296.037 303.782C298.182 301.01 298.387 296.919 297.628 293.359C296.869 289.799 295.286 286.535 294.197 283.089C293.339 280.398 292.735 277.531 291.229 275.218C290.12 273.631 288.752 272.29 287.198 271.266C283.666 268.767 279.693 267.144 275.549 266.506C278.624 263.83 282.609 262.941 286.357 261.727C290.106 260.513 294.026 258.649 295.99 254.893C297.169 252.642 297.495 249.971 297.654 247.371C298.133 239.548 297.313 231.694 295.235 224.202C293.854 219.218 291.898 214.009 293.091 208.971C293.7 206.429 295.068 204.192 296.41 202.051C299.026 197.846 301.737 193.54 305.554 190.701C308.848 188.25 312.764 187.098 316.684 186.792C319.622 186.577 324.086 185.784 326.317 188.13Z" fill="#2B59BB"/>
<path d="M171.981 334.607C171.946 339.596 159.77 345.12 145.681 345.12C131.592 345.12 119.832 339.61 119.643 334.607C118.987 317.254 131.588 327.022 145.681 327.022C159.774 327.022 172.109 314.63 171.981 334.607Z" fill="#3F3D56"/>
<path opacity="0.2" d="M171.981 334.607C171.946 339.596 159.77 345.12 145.681 345.12C131.592 345.12 119.832 339.61 119.643 334.607C118.987 317.254 131.588 327.022 145.681 327.022C159.774 327.022 172.109 314.63 171.981 334.607Z" fill="black"/>
<path d="M171.196 327.022C171.196 332.016 159.77 337.536 145.681 337.536C131.592 337.536 120.166 332.031 120.166 327.022C120.166 322.014 131.588 319.443 145.681 319.443C159.774 319.443 171.196 322.033 171.196 327.022Z" fill="#3F3D56"/>
<path opacity="0.1" d="M171.196 327.022C171.196 332.016 159.77 337.536 145.681 337.536C131.592 337.536 120.166 332.031 120.166 327.022C120.166 322.014 131.588 319.443 145.681 319.443C159.774 319.443 171.196 322.033 171.196 327.022Z" fill="white"/>
<path d="M166.221 325.053C166.195 328.948 156.699 333.24 145.707 333.24C134.714 333.24 125.549 328.939 125.395 325.053C124.884 311.519 134.714 319.137 145.707 319.137C156.699 319.137 166.324 309.474 166.221 325.053Z" fill="#3F3D56"/>
<path opacity="0.2" d="M166.221 325.053C166.195 328.948 156.699 333.24 145.707 333.24C134.714 333.24 125.549 328.939 125.395 325.053C124.884 311.519 134.714 319.137 145.707 319.137C156.699 319.137 166.324 309.474 166.221 325.053Z" fill="black"/>
<path d="M165.607 318.176C165.607 322.53 156.699 327.328 145.707 327.328C134.714 327.328 125.802 322.549 125.802 318.176C125.802 313.804 134.714 311.572 145.707 311.572C156.699 311.572 165.607 313.818 165.607 318.176Z" fill="#3F3D56"/>
<path opacity="0.1" d="M165.607 318.176C165.607 322.53 156.699 327.328 145.707 327.328C134.714 327.328 125.802 322.549 125.802 318.176C125.802 313.804 134.714 311.572 145.707 311.572C156.699 311.572 165.607 313.818 165.607 318.176Z" fill="white"/>
<path d="M98.01 347.042C98.01 347.042 101.776 342.416 102.423 337.216C103.071 332.016 84.0239 324.031 84.0239 324.031C84.0239 324.031 77.4189 328.332 77.1959 332.36C77.1959 332.36 89.8396 347.5 98.01 347.042Z" fill="#3F3D56"/>
<path opacity="0.2" d="M98.01 347.042C98.01 347.042 101.776 342.416 102.423 337.216C103.071 332.016 84.0239 324.031 84.0239 324.031C84.0239 324.031 77.4189 328.332 77.1959 332.36C77.1959 332.36 89.8396 347.5 98.01 347.042Z" fill="black"/>
<path d="M97.8378 347.252C99.0152 345.066 95.2313 340.125 89.386 336.216C83.5408 332.307 77.8478 330.911 76.6703 333.097C75.4929 335.283 79.2768 340.224 85.1221 344.133C90.9673 348.042 96.6603 349.438 97.8378 347.252Z" fill="#3F3D56"/>
<path opacity="0.1" d="M97.8378 347.252C99.0152 345.066 95.2313 340.125 89.386 336.216C83.5408 332.307 77.8478 330.911 76.6703 333.097C75.4929 335.283 79.2768 340.224 85.1221 344.133C90.9673 348.042 96.6603 349.438 97.8378 347.252Z" fill="white"/>
<path d="M102.689 335.625L113.523 315.5L102.505 305.072L93.9141 303.28L91.2335 308.666L83.6936 324.255L102.689 335.625Z" fill="#3F3D56"/>
<path opacity="0.1" d="M102.689 335.625L113.523 315.5L102.505 305.072L93.9141 303.28L91.2335 308.666L83.6936 324.255L102.689 335.625Z" fill="white"/>
<path d="M113.669 317.483C113.669 317.483 120.986 308.819 119.107 304.136C117.229 299.452 107.308 290.066 100.991 291.495C94.6732 292.924 93.661 303.304 93.661 303.304L113.669 317.483Z" fill="#3F3D56"/>
<path opacity="0.2" d="M113.669 317.483C113.669 317.483 120.986 308.819 119.107 304.136C117.229 299.452 107.308 290.066 100.991 291.495C94.6732 292.924 93.661 303.304 93.661 303.304L113.669 317.483Z" fill="black"/>
<path d="M30.4426 279.409L86.4857 317.393C86.4857 317.393 91.8125 316.623 91.2335 308.676L35.7265 270.281C34.5967 269.499 33.2581 269.178 31.9394 269.373C30.4212 269.603 28.6241 270.219 28.0408 271.83C27.8918 272.239 27.7881 272.668 27.732 273.106C27.5753 274.337 27.7491 275.593 28.2314 276.714C28.7137 277.836 29.4831 278.774 30.4426 279.409Z" fill="#3F3D56"/>
<path opacity="0.2" d="M30.4426 279.409L86.4857 317.393C86.4857 317.393 91.8125 316.623 91.2335 308.676L35.7265 270.281C34.5967 269.499 33.2581 269.178 31.9394 269.373C30.4212 269.603 28.6241 270.219 28.0408 271.83C27.8918 272.239 27.7881 272.668 27.732 273.106C27.5753 274.337 27.7491 275.593 28.2314 276.714C28.7137 277.836 29.4831 278.774 30.4426 279.409Z" fill="black"/>
<path d="M102.681 338.458C102.973 338.44 103.253 338.318 103.479 338.11C103.705 337.902 103.866 337.619 103.937 337.302C104.212 336.227 103.71 335.194 103.182 334.334C102.24 332.8 101.065 331.46 99.7084 330.377C97.4267 328.537 95.2136 326.463 92.6317 325.12C91.1369 324.379 89.5714 323.829 87.9653 323.481C86.7614 323.173 85.5293 323.022 84.294 323.032C84.0748 323.039 83.8626 323.119 83.6856 323.264C83.5086 323.408 83.3752 323.609 83.3031 323.84C83.2309 324.07 83.2235 324.32 83.2818 324.556C83.34 324.791 83.4612 325.001 83.6293 325.159C84.2003 325.581 84.8376 325.879 85.5078 326.038C88.8488 327.132 91.9411 329.03 94.8362 331.185C96.3954 332.303 97.8559 333.583 99.198 335.008C100.09 335.993 101.231 338.497 102.681 338.458Z" fill="#3F3D56"/>
<path opacity="0.2" d="M102.681 338.458C102.973 338.44 103.253 338.318 103.479 338.11C103.705 337.902 103.866 337.619 103.937 337.302C104.212 336.227 103.71 335.194 103.182 334.334C102.24 332.8 101.065 331.46 99.7084 330.377C97.4267 328.537 95.2136 326.463 92.6317 325.12C91.1369 324.379 89.5714 323.829 87.9653 323.481C86.7614 323.173 85.5293 323.022 84.294 323.032C84.0748 323.039 83.8626 323.119 83.6856 323.264C83.5086 323.408 83.3752 323.609 83.3031 323.84C83.2309 324.07 83.2235 324.32 83.2818 324.556C83.34 324.791 83.4612 325.001 83.6293 325.159C84.2003 325.581 84.8376 325.879 85.5078 326.038C88.8488 327.132 91.9411 329.03 94.8362 331.185C96.3954 332.303 97.8559 333.583 99.198 335.008C100.09 335.993 101.231 338.497 102.681 338.458Z" fill="black"/>
<path d="M111.627 319.022C111.627 319.022 117.126 319.17 112.575 313.01C108.025 306.85 99.8842 300.738 94.0899 302.119C94.0899 302.119 91.6881 304.336 93.7639 304.719C95.7325 305.082 104.915 307.108 109.135 312.81C109.597 313.429 110.113 313.995 110.675 314.501C111.666 315.4 113 317.101 111.627 319.022Z" fill="#3F3D56"/>
<path opacity="0.2" d="M111.627 319.022C111.627 319.022 117.126 319.17 112.575 313.01C108.025 306.85 99.8842 300.738 94.0899 302.119C94.0899 302.119 91.6881 304.336 93.7639 304.719C95.7325 305.082 104.915 307.108 109.135 312.81C109.597 313.429 110.113 313.995 110.675 314.501C111.666 315.4 113 317.101 111.627 319.022Z" fill="black"/>
<path d="M120.591 305.448C121.768 303.262 117.984 298.321 112.139 294.412C106.294 290.504 100.601 289.107 99.4231 291.293C98.2456 293.479 102.03 298.42 107.875 302.329C113.72 306.238 119.413 307.635 120.591 305.448Z" fill="#3F3D56"/>
<path opacity="0.1" d="M120.591 305.448C121.768 303.262 117.984 298.321 112.139 294.412C106.294 290.504 100.601 289.107 99.4231 291.293C98.2456 293.479 102.03 298.42 107.875 302.329C113.72 306.238 119.413 307.635 120.591 305.448Z" fill="white"/>
<path d="M84.294 303.868C84.2197 304.981 83.9017 306.057 83.3679 307.002C82.834 307.947 82.1006 308.732 81.2318 309.288C78.3539 310.998 74.3138 309.474 72.9585 306.167C72.2551 304.446 72.2422 302.516 72.1007 300.618C72.0546 300 71.9802 299.384 71.8777 298.774C71.4488 296.313 69.6217 293.698 67.4129 294.186C65.5901 294.582 64.6294 296.862 64.4107 298.917C64.3542 299.482 64.3256 300.05 64.3249 300.618C64.3249 301.211 64.3464 301.804 64.3764 302.396C64.4364 303.61 64.5308 304.829 64.5265 306.043C64.5265 308.432 64.0633 310.97 62.515 312.609C60.6365 314.602 57.7543 314.693 55.1553 314.659C48.812 314.587 41.7524 314.181 36.9789 309.832C36.3913 309.305 35.846 308.721 35.3491 308.088C34.4163 306.892 33.6592 305.538 33.106 304.078C32.6808 302.963 32.3547 301.804 32.1324 300.618C31.4205 296.915 31.5792 292.876 32.1625 289.12C32.5399 286.664 33.269 283.973 34.8816 282.406C35.2657 282.032 35.6998 281.727 36.1683 281.502C36.9403 281.139 37.8152 281.024 38.4886 280.456C39.162 279.887 39.5994 278.855 40.3114 278.234C41.7396 276.986 43.9098 277.521 45.5824 277.101H45.6553L45.7454 277.072C47.551 276.594 49.2194 275.495 50.9221 274.683C51.6555 274.334 52.3889 273.999 53.1266 273.703C54.9633 272.886 56.9461 272.558 58.9166 272.747C65.35 273.564 73.07 277.913 77.4747 283.132C78.5599 284.333 79.4047 285.776 79.9537 287.366C80.3136 288.699 80.5126 290.08 80.5455 291.471C80.6613 293.436 80.7557 295.395 81.6306 297.072C82.1625 298.086 82.943 298.912 83.4963 299.94C83.6238 300.171 83.7357 300.412 83.8308 300.661C84.224 301.67 84.3833 302.773 84.294 303.868Z" fill="#BE6F72"/>
<path d="M70.145 280.279C72.7655 281.789 75.3431 283.495 77.4018 285.846C79.4605 288.198 80.9787 291.28 81.0988 294.568C82.8981 292.142 84.4422 289.495 85.7008 286.678C86.6958 284.456 87.515 281.827 86.6315 279.543C86.2093 278.576 85.6155 277.714 84.8859 277.01C81.0259 272.938 75.8363 270.687 70.5867 269.765C64.9125 268.766 53.5769 266.587 52.7063 275.791C59.0624 275.457 64.4665 277.02 70.145 280.279Z" fill="#E3E8F4"/>
<path d="M140.449 162.591C136.25 164.613 131.335 163.184 126.896 164.407C123.619 165.31 120.801 167.6 118.142 169.917C112.841 174.534 107.617 179.695 104.782 186.496C103.856 188.723 103.195 191.088 102.084 193.186C100.287 196.608 97.4181 199.155 94.4287 201.311C86.7902 206.797 77.9207 210.228 71.1228 216.948C68.215 219.815 65.766 223.218 63.4886 226.721C60.8123 230.831 58.2519 235.418 58.2004 240.494C58.2004 242.482 58.5521 244.499 58.2004 246.453C57.4455 250.826 53.4826 253.54 51.6941 257.526C49.9786 261.325 50.386 266.018 48.4774 269.689C47.2251 272.078 44.9563 274.468 45.6725 277.106C50.9307 272.704 57.2525 270.893 63.6859 272.327C66.9069 273.039 69.9134 274.64 72.7955 276.394C76.1366 278.429 79.4304 280.742 81.8451 284.04C84.2597 287.338 85.7051 291.725 84.8473 295.858C88.3256 293.947 90.3843 289.866 91.8125 285.851C93.2407 281.837 94.3301 277.55 96.7018 274.152C97.9242 272.398 99.4425 270.941 100.888 269.416C108.912 260.943 114.698 250.238 120.377 239.672C126.232 228.782 132.085 217.886 137.935 206.983C139.557 203.958 141.186 200.914 142.357 197.645C146.29 186.653 143.743 173.817 140.449 162.591Z" fill="#2B59BB"/>
<path d="M385.443 308.575C398.947 308.575 409.895 306.23 409.895 303.338C409.895 300.445 398.947 298.1 385.443 298.1C371.94 298.1 360.992 300.445 360.992 303.338C360.992 306.23 371.94 308.575 385.443 308.575Z" fill="#2B59BB"/>
<path d="M385.032 305.268C386.605 305.268 387.88 303.409 387.88 301.115C387.88 298.822 386.605 296.962 385.032 296.962C383.459 296.962 382.184 298.822 382.184 301.115C382.184 303.409 383.459 305.268 385.032 305.268Z" fill="#3F3D56"/>
<path d="M385.032 300.188C386.605 300.188 387.88 298.329 387.88 296.035C387.88 293.742 386.605 291.882 385.032 291.882C383.459 291.882 382.184 293.742 382.184 296.035C382.184 298.329 383.459 300.188 385.032 300.188Z" fill="#3F3D56"/>
<path d="M385.032 295.113C386.605 295.113 387.88 293.254 387.88 290.96C387.88 288.666 386.605 286.807 385.032 286.807C383.459 286.807 382.184 288.666 382.184 290.96C382.184 293.254 383.459 295.113 385.032 295.113Z" fill="#3F3D56"/>
<path d="M385.032 290.038C386.605 290.038 387.88 288.178 387.88 285.885C387.88 283.591 386.605 281.732 385.032 281.732C383.459 281.732 382.184 283.591 382.184 285.885C382.184 288.178 383.459 290.038 385.032 290.038Z" fill="#3F3D56"/>
<path d="M385.032 284.962C386.605 284.962 387.88 283.103 387.88 280.809C387.88 278.516 386.605 276.656 385.032 276.656C383.459 276.656 382.184 278.516 382.184 280.809C382.184 283.103 383.459 284.962 385.032 284.962Z" fill="#3F3D56"/>
<path d="M385.032 279.887C386.605 279.887 387.88 278.028 387.88 275.734C387.88 273.44 386.605 271.581 385.032 271.581C383.459 271.581 382.184 273.44 382.184 275.734C382.184 278.028 383.459 279.887 385.032 279.887Z" fill="#3F3D56"/>
<path d="M385.032 274.812C386.605 274.812 387.88 272.952 387.88 270.659C387.88 268.365 386.605 266.506 385.032 266.506C383.459 266.506 382.184 268.365 382.184 270.659C382.184 272.952 383.459 274.812 385.032 274.812Z" fill="#3F3D56"/>
<path d="M395.694 235.92C396.082 235.37 396.436 234.79 396.753 234.185L389.273 232.814L397.362 232.881C398.138 230.999 398.562 228.962 398.607 226.892C398.651 224.822 398.317 222.763 397.624 220.842L386.769 227.117L396.779 218.917C395.842 217.109 394.581 215.536 393.074 214.296C391.568 213.056 389.848 212.174 388.022 211.707C386.197 211.24 384.304 211.197 382.463 211.581C380.621 211.964 378.871 212.766 377.32 213.937C375.769 215.108 374.451 216.622 373.449 218.385C372.446 220.148 371.78 222.122 371.493 224.185C371.205 226.247 371.302 228.354 371.777 230.373C372.252 232.392 373.095 234.28 374.254 235.92C373.65 236.781 373.129 237.71 372.701 238.692L382.411 244.317L372.049 240.441C371.322 242.836 371.142 245.395 371.525 247.886C371.909 250.378 372.843 252.724 374.245 254.711C372.663 256.953 371.68 259.646 371.407 262.481C371.133 265.316 371.582 268.18 372.7 270.745C373.818 273.31 375.562 275.472 377.731 276.985C379.901 278.498 382.408 279.301 384.967 279.301C387.527 279.301 390.034 278.498 392.203 276.985C394.373 275.472 396.116 273.31 397.235 270.745C398.353 268.18 398.801 265.316 398.528 262.481C398.255 259.646 397.271 256.953 395.69 254.711C397.579 252.032 398.606 248.723 398.606 245.316C398.606 241.908 397.579 238.6 395.69 235.92H395.694Z" fill="#2B59BB"/>
<path opacity="0.1" d="M371.337 245.316C371.332 248.724 372.36 252.035 374.254 254.711C372.672 256.953 371.688 259.646 371.415 262.481C371.142 265.316 371.59 268.18 372.709 270.745C373.827 273.31 375.571 275.472 377.74 276.985C379.909 278.498 382.417 279.301 384.976 279.301C387.535 279.301 390.043 278.498 392.212 276.985C394.381 275.472 396.125 273.31 397.243 270.745C398.362 268.18 398.81 265.316 398.537 262.481C398.264 259.646 397.28 256.953 395.698 254.711C397.521 252.126 371.337 243.61 371.337 245.316Z" fill="black"/>
<path d="M199.635 85.9934C202.638 87.2837 205.567 89.138 208.788 89.3817C212.875 89.6875 216.735 87.3649 220.797 86.7246C228.238 85.5537 235.302 90.0699 242.293 93.138C249.284 96.2061 258.29 97.4773 263.416 91.3554C267.769 86.1511 267.168 77.4963 263.669 71.5703C260.169 65.6444 254.452 61.8116 248.799 58.5093C242.563 54.8677 236.061 51.5559 229.117 50.2703C214.381 47.5511 199.408 54.342 187.18 63.9048C183.123 67.0781 179.113 70.7818 177.174 75.8523C176.077 78.7197 175.733 82.39 176.69 85.3769C178.26 90.2897 179.289 89.7067 182.544 88.4259C188.763 85.9886 192.439 82.9253 199.635 85.9934Z" fill="#3F3D56"/>
</g>
<defs>
<clipPath id="clip0_19_728">
<rect width="425" height="382" fill="white"/>
</clipPath>
</defs>
</svg>
