<svg width="422" height="310" viewBox="0 0 422 310" fill="none" xmlns="http://www.w3.org/2000/svg">
<g clip-path="url(#clip0_19_787)">
<path d="M83.6097 250.879C83.3818 250.182 81.6549 250.489 81.4891 249.865C81.3239 249.244 82.981 248.724 84.2519 246.974C84.4811 246.658 85.9254 244.669 85.3714 243.833C84.3215 242.247 77.0162 246.196 75.2627 243.98C74.8779 243.494 74.7195 242.659 73.5731 241.105C73.117 240.487 72.8244 240.189 72.4748 240.197C71.9788 240.21 71.8013 240.83 71.0216 241.954C69.8524 243.638 69.4304 243.427 68.6602 244.807C68.0883 245.832 68.0206 246.487 67.6082 246.526C67.0247 246.58 66.7836 245.304 66.0706 245.255C65.3431 245.204 64.615 246.465 64.2541 247.45C63.5768 249.298 63.9962 250.711 64.0892 252.119C64.1903 253.649 63.953 255.889 62.2894 258.764L46.5985 283.749C49.9683 278.655 59.5338 264.766 63.3877 259.672C64.5003 258.201 65.6959 256.724 67.5361 256.447C69.3078 256.179 71.4635 257.055 74.4723 257.004C74.8237 256.998 75.8017 256.969 76.0396 256.451C76.2362 256.023 75.7479 255.651 75.9256 255.248C76.1638 254.708 77.2358 254.94 78.6967 254.581C79.7269 254.328 80.4267 253.91 81.0286 253.551C81.21 253.443 83.913 251.806 83.6097 250.879Z" fill="#F2F2F2"/>
<path d="M42.5121 256.712C42.1042 256.623 41.7566 257.558 41.4027 257.46C41.05 257.362 41.2724 256.399 40.7797 255.27C40.6908 255.067 40.1308 253.785 39.5601 253.815C38.4785 253.872 38.3101 258.595 36.7158 258.816C36.366 258.864 35.9102 258.701 34.8164 258.815C34.3812 258.86 34.1503 258.918 34.0537 259.092C33.9167 259.339 34.1701 259.605 34.4969 260.311C34.987 261.371 34.7613 261.517 35.217 262.293C35.5553 262.869 35.8574 263.091 35.7573 263.305C35.6158 263.607 34.9196 263.357 34.6896 263.692C34.4549 264.035 34.864 264.756 35.2436 265.217C35.9559 266.082 36.7708 266.284 37.4891 266.645C38.2697 267.037 39.3012 267.8 40.2331 269.445L47.9757 284.35C46.4467 281.228 42.3857 272.529 40.9958 269.168C40.5945 268.198 40.2143 267.186 40.6088 266.203C40.9886 265.257 42.0408 264.452 42.8839 262.961C42.9824 262.787 43.2503 262.299 43.0646 262.033C42.911 261.813 42.5872 261.945 42.4408 261.742C42.2443 261.469 42.6674 261.01 42.9128 260.19C43.0858 259.612 43.0826 259.148 43.0798 258.749C43.0789 258.629 43.0552 256.831 42.5121 256.712Z" fill="#F2F2F2"/>
<path d="M50.2365 260.349L50.4799 258.103L50.6292 257.962C51.3198 257.31 51.7518 256.619 51.9139 255.908C51.9396 255.795 51.9596 255.68 51.9801 255.564C52.0609 255.102 52.1612 254.528 52.6054 253.932C52.854 253.6 53.5115 252.849 54.1897 253.111C54.3727 253.18 54.4963 253.298 54.5821 253.424C54.6037 253.402 54.6257 253.381 54.6493 253.357C54.9423 253.072 55.1472 252.968 55.3446 252.868C55.4963 252.791 55.653 252.711 55.918 252.499C56.0343 252.406 56.1274 252.323 56.2059 252.252C56.4439 252.04 56.7482 251.791 57.1652 251.89C57.6071 252.011 57.7587 252.432 57.8592 252.711C58.0387 253.209 58.094 253.551 58.1306 253.778C58.1438 253.86 58.1591 253.954 58.1706 253.984C58.2674 254.228 59.4817 254.291 59.9386 254.317C60.9657 254.373 61.8544 254.421 62.0682 255.124C62.2215 255.627 61.9019 256.175 61.0908 256.797C60.8381 256.991 60.5856 257.124 60.3655 257.224C60.5009 257.352 60.6087 257.526 60.6153 257.763C60.6301 258.324 60.0546 258.754 58.9048 259.044C58.6191 259.117 58.2348 259.213 57.7319 259.189C57.495 259.177 57.2876 259.141 57.1107 259.107C57.0843 259.208 57.0359 259.313 56.9487 259.412C56.6928 259.705 56.2795 259.779 55.7186 259.614C55.0992 259.442 54.6099 259.207 54.1781 259.001C53.801 258.821 53.4758 258.668 53.2029 258.626C52.6954 258.555 52.2221 258.868 51.6557 259.285L50.2365 260.349Z" fill="#F2F2F2"/>
<path d="M54.2869 247.558L52.0517 247.893L51.8773 247.784C51.0708 247.282 50.2924 247.04 49.5628 247.064C49.4469 247.067 49.3311 247.077 49.2132 247.087C48.7458 247.126 48.1648 247.174 47.4751 246.896C47.0906 246.74 46.1972 246.295 46.279 245.573C46.2989 245.378 46.3824 245.229 46.4823 245.114C46.4557 245.099 46.429 245.083 46.4002 245.066C46.0505 244.855 45.8977 244.683 45.7505 244.518C45.6372 244.391 45.5206 244.26 45.2483 244.057C45.1289 243.968 45.0243 243.9 44.9364 243.842C44.6705 243.665 44.3526 243.434 44.3422 243.006C44.347 242.548 44.7163 242.295 44.9608 242.127C45.3968 241.827 45.714 241.687 45.9243 241.594C46.0012 241.56 46.0877 241.522 46.1141 241.503C46.3254 241.348 46.0784 240.158 45.988 239.709C45.7814 238.702 45.6026 237.831 46.2287 237.446C46.6764 237.17 47.2883 237.34 48.0961 237.966C48.3476 238.162 48.5409 238.372 48.6933 238.559C48.7828 238.396 48.9238 238.248 49.1514 238.181C49.6904 238.025 50.2528 238.472 50.8252 239.51C50.9683 239.767 51.1591 240.115 51.2631 240.607C51.3118 240.839 51.3294 241.049 51.3415 241.228C51.4457 241.228 51.5593 241.248 51.6776 241.307C52.0258 241.481 52.2027 241.861 52.1853 242.445C52.1755 243.088 52.0726 243.62 51.9825 244.09C51.9044 244.5 51.8382 244.854 51.8668 245.128C51.9269 245.637 52.3501 246.015 52.8971 246.456L54.2869 247.558Z" fill="#F2F2F2"/>
<path d="M54.5882 240.85L54.8315 238.605L54.9808 238.464C55.6714 237.811 56.1034 237.12 56.2655 236.409C56.2913 236.296 56.3112 236.182 56.3317 236.065C56.4125 235.603 56.5128 235.029 56.957 234.433C57.2056 234.101 57.8631 233.35 58.5413 233.613C58.7244 233.681 58.8479 233.8 58.9337 233.925C58.9553 233.904 58.9774 233.882 59.001 233.858C59.2939 233.574 59.4989 233.47 59.6963 233.369C59.8479 233.292 60.0046 233.213 60.2696 233.001C60.3859 232.908 60.4791 232.824 60.5575 232.754C60.7955 232.542 61.0999 232.293 61.5168 232.391C61.9588 232.512 62.1103 232.933 62.2108 233.212C62.3904 233.71 62.4457 234.052 62.4823 234.279C62.4954 234.362 62.5107 234.455 62.5223 234.486C62.619 234.729 63.8334 234.792 64.2903 234.819C65.3173 234.874 66.2061 234.922 66.4198 235.625C66.5732 236.128 66.2535 236.676 65.4424 237.299C65.1898 237.492 64.9372 237.626 64.7171 237.725C64.8525 237.853 64.9603 238.027 64.9669 238.264C64.9818 238.825 64.4063 239.255 63.2565 239.545C62.9707 239.618 62.5864 239.715 62.0835 239.69C61.8467 239.679 61.6392 239.642 61.4623 239.609C61.4359 239.709 61.3876 239.814 61.3004 239.913C61.0445 240.206 60.6312 240.281 60.0702 240.116C59.4509 239.943 58.9615 239.708 58.5297 239.502C58.1526 239.323 57.8274 239.169 57.5545 239.127C57.047 239.056 56.5737 239.369 56.0074 239.786L54.5882 240.85Z" fill="#F2F2F2"/>
<path d="M47.3403 283.877L46.9451 283.486L46.3958 283.428C46.3985 283.377 46.3949 283.256 46.3908 283.067C46.3697 282.034 46.3041 278.89 46.7422 274.06C47.0481 270.688 47.5592 267.265 48.2614 263.884C48.9648 260.498 49.6948 257.979 50.2811 255.955C50.7236 254.427 51.1702 252.979 51.6062 251.568C52.7697 247.799 53.8682 244.238 54.5486 240.176C54.7009 239.27 55.0171 237.382 54.3697 235.155C53.9941 233.863 53.3511 232.647 52.4577 231.541L53.3223 230.844C54.3081 232.065 55.0193 233.412 55.4364 234.846C56.1542 237.316 55.8097 239.372 55.6442 240.361C54.9517 244.494 53.8422 248.089 52.6672 251.895C52.2335 253.3 51.7883 254.743 51.3478 256.263C50.7667 258.269 50.0433 260.767 49.3491 264.109C48.6548 267.449 48.1502 270.83 47.8477 274.16C47.4155 278.929 47.4804 282.027 47.5017 283.044C47.5127 283.587 47.515 283.701 47.3403 283.877Z" fill="#F2F2F2"/>
<path d="M50.0857 232.819C50.0412 232.81 49.9965 232.798 49.9517 232.785C49.0397 232.53 48.3082 231.787 47.7769 230.578C47.5282 230.009 47.4695 229.411 47.3524 228.218C47.334 228.034 47.2529 227.103 47.3527 225.869C47.4176 225.063 47.5043 224.739 47.7238 224.485C47.9676 224.202 48.296 224.04 48.6431 223.958C48.6525 223.851 48.6874 223.747 48.7567 223.648C49.0423 223.238 49.5202 223.406 49.7795 223.494C49.9102 223.541 50.073 223.601 50.2561 223.631C50.5439 223.681 50.7158 223.631 50.9759 223.555C51.2248 223.483 51.5343 223.393 51.9621 223.401C52.8062 223.413 53.4311 223.792 53.6371 223.916C54.7223 224.568 55.097 225.608 55.5306 226.812C55.6167 227.053 55.9026 227.925 55.9692 229.048C56.0173 229.858 55.9111 230.19 55.7892 230.427C55.5404 230.915 55.1594 231.141 54.2138 231.616C53.2259 232.115 52.7302 232.364 52.3238 232.492C51.3781 232.789 50.7843 232.975 50.0857 232.819Z" fill="#F2F2F2"/>
<path d="M175.55 164.588C178.499 162.098 177.716 156.326 173.801 151.694C172.088 149.667 170.058 148.195 168.07 147.389L165.785 144.754L136.279 107.806C136.279 107.806 119.939 71.0504 115.116 67.0796C110.292 63.1087 104.617 65.1761 104.617 65.1761L100.189 70.6509L127.782 121.97L156.02 150.372L159.832 154.344C160.296 156.437 161.409 158.683 163.123 160.71C167.037 165.342 172.601 167.078 175.55 164.588Z" fill="#FFB6B6"/>
<path d="M119.854 73.9136L127.248 84.7513L137.863 100.452L118.789 107.046L101.949 78.1671L119.854 73.9136Z" fill="#E6E6E6"/>
<path d="M422 282.877H0V284.163H422V282.877Z" fill="#3F3D56"/>
<path d="M298.753 193.503H265.109V182.086C265.109 163.719 280.029 148.808 298.407 148.808H298.753V193.503Z" fill="#2F2E41"/>
<path d="M272.607 187.524L278.183 169.284L292.489 168.568L298.753 193.503L272.607 187.524Z" fill="#A0616A"/>
<path opacity="0.1" d="M272.607 187.524L278.183 169.284L292.489 168.568L298.753 193.503L272.607 187.524Z" fill="black"/>
<path d="M285.624 179.972C294.915 179.972 302.446 172.445 302.446 163.16C302.446 153.874 294.915 146.347 285.624 146.347C276.333 146.347 268.802 153.874 268.802 163.16C268.802 172.445 276.333 179.972 285.624 179.972Z" fill="#A0616A"/>
<path d="M249.969 257.131L245.516 261.58C245.516 261.58 221.725 245.632 212.6 251.58C203.475 257.528 203.078 269.045 213.807 275.399C224.536 281.753 251.956 297.242 251.956 297.242C251.956 297.242 288.515 303.596 313.153 284.136C337.79 264.676 342.36 265.669 337.989 255.343C333.618 245.018 324.081 247.401 324.081 247.401L305.801 258.123L298.251 256.535L249.969 257.131Z" fill="#2F2E41"/>
<path d="M250.962 262.095L270.037 270.435L262.884 287.512L234.67 280.761" fill="#2F2E41"/>
<path d="M299.717 262.095L274.01 274.009L283.945 294.661L312.557 282.349" fill="#2F2E41"/>
<path d="M274.01 184.222L249.174 195.176L257.122 238.862L249.969 257.131L288.118 263.088L307.68 257.021L306 248.393L307.68 216.194L314.345 197.162L296.463 184.851L274.01 184.222Z" fill="#E6E6E6"/>
<path d="M267.652 272.023L279.971 275.598L274.01 290.193L257.718 283.938L267.652 272.023Z" fill="#A0616A"/>
<path d="M284.773 272.023L269.639 279.569V291.094L286.727 289.101L284.773 272.023Z" fill="#A0616A"/>
<path d="M262.884 293.866C262.884 293.866 289.111 311.34 299.046 304.192C308.98 297.043 314.544 287.909 312.557 286.718C310.57 285.526 304.609 283.541 304.609 283.541L271.229 290.292L262.884 293.866Z" fill="#2F2E41"/>
<path d="M229.504 280.761C229.504 280.761 215.993 301.412 228.709 304.589C241.425 307.766 273.471 294.661 273.471 294.661L271.229 277.583L265.268 283.541L229.504 280.761Z" fill="#2F2E41"/>
<path d="M313.71 137.817C309.993 134.383 308.753 129.683 310.94 127.319C313.127 124.956 317.912 125.824 321.63 129.259C323.134 130.611 324.292 132.303 325.008 134.195L340.573 148.943L333.492 156.095L318.899 140.797C316.956 140.232 315.177 139.21 313.71 137.817Z" fill="#A0616A"/>
<path d="M309.476 183.548L337.641 169.812L323.072 144.769L327.633 135.508C327.633 135.508 363.091 155.261 359.562 169.635C356.034 184.009 320.864 210.415 309.631 206.193C306.222 204.912 304.246 202.625 303.148 200.06C300.468 193.8 303.353 186.535 309.476 183.548Z" fill="#E6E6E6"/>
<path d="M253.418 176.761C254.273 174.161 255.963 171.884 256.718 169.253C257.722 165.76 259.858 173.51 260.067 169.881C260.463 162.985 270.995 145.244 277.007 141.837C283.02 138.429 286.473 139.457 292.599 142.657C292.599 142.657 295.572 142.846 299.274 144.672C302.976 146.499 306.308 149.424 307.748 153.291C308.889 156.356 308.763 159.722 309.144 162.97C310.206 172.019 315.282 180.624 314.193 189.67C313.853 192.492 312.779 195.411 310.47 197.07C308.162 198.73 304.431 198.55 302.912 196.147C302.393 195.327 302.174 194.354 301.729 193.492C301.285 192.63 300.482 191.826 299.511 191.853C298.053 191.893 297.311 193.849 297.886 195.189C298.461 196.529 299.812 197.338 301.081 198.057C298.059 199.416 294.311 198.993 291.668 196.995C289.026 194.997 287.599 191.507 288.085 188.231C288.77 183.615 295.499 184.571 296.292 179.972C296.869 176.624 298.895 171.022 298.343 167.67C297.791 164.318 295.14 168.377 297.933 166.44C294.86 167.92 288.289 157.794 285.072 156.66C281.856 155.526 279.129 153.07 277.666 149.99C274.255 154.933 271.254 153.59 270.032 159.469C268.811 165.348 270.839 183.481 275.87 186.763C273.856 188.136 271.353 185.321 270.408 187.567C269.873 188.839 269.526 190.231 268.638 191.287C266.941 193.305 263.809 193.428 261.312 192.579C258.216 191.527 255.57 189.217 254.11 186.292C252.651 183.368 252.396 179.865 253.418 176.761Z" fill="#2F2E41"/>
<path d="M210.386 172.82C209.477 167.844 206.171 164.279 203.002 164.858C199.833 165.436 198.002 169.939 198.912 174.918C199.249 176.911 200.058 178.795 201.272 180.412L205.391 201.449L215.228 199.307L210.123 178.796C210.687 176.854 210.777 174.805 210.386 172.82Z" fill="#A0616A"/>
<path d="M251.29 193.753L224.592 210.158L211.242 184.445L200.975 183.331C200.975 183.331 198.663 223.835 212.697 228.56C226.731 233.285 267.885 217.759 270.338 206.019C271.082 202.455 270.208 199.562 268.63 197.262C264.777 191.645 257.094 190.186 251.29 193.753Z" fill="#E6E6E6"/>
<path d="M396.944 224.381L301.312 254.589V138.215L396.944 108.008V224.381Z" fill="white"/>
<path d="M300.668 255.467V137.745L397.588 107.13V224.852L300.668 255.467ZM301.955 138.686V253.711L396.301 223.911V108.885L301.955 138.686Z" fill="#3F3D56"/>
<path d="M162.753 250.197L239.448 274.423V181.094L162.753 156.868V250.197Z" fill="white"/>
<path d="M240.091 275.3L239.254 275.035L162.11 250.668V155.991L162.947 156.256L240.091 180.623V275.3ZM163.396 249.726L238.805 273.545V181.565L163.396 157.746V249.726Z" fill="#3F3D56"/>
<path d="M324.555 145.408C323.462 151.101 325.456 157.292 329.667 161.28C333.878 165.267 340.171 166.923 345.801 165.526C351.146 164.2 356.145 158.551 353.884 153.532C352.271 149.954 347.354 148.601 343.825 150.321C340.296 152.042 338.334 156.178 338.537 160.097C338.741 164.016 340.828 167.659 343.612 170.426C350.873 177.645 362.503 179.516 368.904 187.507C374.492 194.486 374.32 205.438 368.515 212.237C362.71 219.037 351.915 220.93 344.14 216.513C340.935 214.692 338.178 211.771 337.382 208.174C336.585 204.577 338.19 200.358 341.557 198.86C347.909 196.034 354.304 203.624 361.255 203.735C365.236 203.798 369.103 201.046 370.345 197.265C371.587 193.484 370.104 188.977 366.859 186.671" fill="#2B59BB"/>
<path d="M189.972 226.832C191.201 230.439 188.653 234.836 184.912 235.567C181.17 236.297 177.154 233.18 176.935 229.376C176.717 225.573 180.349 222.017 184.15 222.314C190.273 222.793 193.889 231.169 200.019 230.778C204.212 230.51 206.862 226.223 208.41 222.318C210.192 217.822 211.496 213.137 212.292 208.367C212.955 204.388 213.26 200.268 212.302 196.349C211.345 192.43 208.973 188.71 205.376 186.879C199.913 184.098 192.435 186.811 189.826 192.356C187.217 197.901 189.73 205.227 195.086 208.209C201.784 211.939 211.01 209.253 217.096 213.915C221.973 217.65 222.811 224.54 223.256 230.666C223.54 234.572 223.821 238.54 223.02 242.374C222.22 246.209 220.182 249.962 216.801 251.944C214.241 253.445 210.823 253.743 208.358 252.088C205.894 250.434 204.969 246.605 206.886 244.339C208.454 242.484 211.31 242.189 213.605 242.985C215.901 243.782 217.769 245.452 219.571 247.081" fill="#2B59BB"/>
<path d="M127.361 37.0292L122.006 57.4339L101.589 53.4199C101.589 53.4199 109.621 38.7017 107.613 32.0117L127.361 37.0292Z" fill="#FFB6B6"/>
<path d="M105.808 302.635L118.103 302.634L123.952 255.238L105.806 255.24L105.808 302.635Z" fill="#FFB6B6"/>
<path d="M147.932 302.356C148.315 303.001 148.517 305.08 148.517 305.83C148.517 308.133 146.649 310 144.344 310H106.268C104.696 310 103.421 308.726 103.421 307.155V305.571C103.421 305.571 101.538 300.809 105.415 294.94C105.415 294.94 110.235 299.536 117.437 292.338L119.561 288.493L134.935 299.729L143.456 300.778C145.32 301.007 146.973 300.742 147.932 302.356Z" fill="#2F2E41"/>
<path d="M139.947 165.472L123.005 280.69H101.749L104.575 214.921L106.063 180.339L101.749 163.878C101.749 163.878 99.7819 160.219 98.1249 155.784C96.2572 150.778 94.782 144.778 96.9721 141.933C97.7778 140.884 99.8729 140.107 102.72 139.529C104.46 139.174 106.484 138.897 108.67 138.683C121.24 137.44 139.12 138.216 139.12 138.216L139.575 153.207L139.827 161.578L139.947 165.472Z" fill="#2F2E41"/>
<path d="M84.15 297L96.3144 298.786L108.999 252.745L91.0457 250.109L84.15 297Z" fill="#FFB6B6"/>
<path d="M125.867 302.848C126.152 303.541 126.049 305.628 125.94 306.369C125.605 308.648 123.484 310.224 121.204 309.889L83.533 304.354C81.9776 304.125 80.9019 302.68 81.1306 301.125L81.3612 299.558C81.3612 299.558 80.1906 294.573 84.8816 289.33C84.8816 289.33 88.9813 294.577 97.1543 288.503L99.8151 285.008L113.39 298.36L121.668 300.635C123.479 301.133 125.153 301.111 125.867 302.848Z" fill="#2F2E41"/>
<path d="M140.214 146.257L137.89 166.257L125.217 208.402L104.356 277.788L83.3284 274.7L102.2 176.043L100.332 159.126C100.332 159.126 99.7233 157.445 99.0257 154.983C97.6411 150.113 95.9045 142.181 97.8151 138.136C98.073 137.586 98.3969 137.109 98.7975 136.722C99.549 135.994 101.076 135.552 103.123 135.317C111.676 134.351 129.29 137.114 137.128 138.47L140.214 146.257Z" fill="#2F2E41"/>
<path d="M124.014 51.4129L147.108 80.5146L142.963 110.856L139.41 141.729L97.572 135.373C97.572 135.373 106.609 113.63 107.613 112.627C108.617 111.623 111.139 114.102 109.376 110.856C107.613 107.609 105.605 107.609 107.278 105.937C108.952 104.264 94.225 82.5216 94.225 70.814C94.225 59.1064 101.254 49.7403 101.254 49.7403L124.014 51.4129Z" fill="#E6E6E6"/>
<path d="M118.625 40.8826C127.218 40.8826 134.183 33.9214 134.183 25.3343C134.183 16.7472 127.218 9.78601 118.625 9.78601C110.033 9.78601 103.068 16.7472 103.068 25.3343C103.068 33.9214 110.033 40.8826 118.625 40.8826Z" fill="#FFB6B6"/>
<path d="M117.898 55.0622C117.898 55.0622 120.226 36.6528 120.638 31.2992C121.051 25.9457 128.612 17.5872 128.612 17.5872L133.969 21.9112C133.969 21.9112 138.501 21.9112 135.411 15.3222C132.321 8.73321 126.552 7.70367 126.552 7.70367C126.552 7.70367 125.934 -0.944404 115.22 0.0851346C104.506 1.11467 99.7676 9.76275 99.7676 9.76275C99.7676 9.76275 99.1495 -1.1503 92.3505 6.88005C85.5515 14.9104 81.6369 18.2049 88.848 20.8817C96.0591 23.5585 101.416 21.4994 101.416 21.4994C101.416 21.4994 94.4108 22.9408 95.647 27.8825C96.8832 32.8243 79.3705 55.2681 87.4058 57.739C95.441 60.2098 113.366 66.1811 115.426 62.2689C117.486 58.3567 117.898 55.0622 117.898 55.0622Z" fill="#2F2E41"/>
<path d="M182.031 166.13C185 163.665 184.266 157.886 180.39 153.222C178.693 151.181 176.676 149.691 174.695 148.869L172.432 146.214L143.237 109.021C143.237 109.021 127.206 72.1298 122.416 68.1187C117.626 64.1076 111.934 66.1274 111.934 66.1274L107.46 71.5649L134.621 123.114L162.621 151.751L166.399 155.755C166.845 157.852 167.939 160.107 169.636 162.148C173.512 166.812 179.061 168.595 182.031 166.13Z" fill="#FFB6B6"/>
<path d="M105.765 63.268C105.765 63.268 112.912 100.334 121.045 105.798L137.252 93.1691C137.252 93.1691 138.67 93.1081 136.03 90.1284C133.391 87.1486 134.067 80.7498 134.067 80.7498C134.067 80.7498 135.254 82.2856 132.67 80.1536C130.085 78.0216 132.491 63.3594 132.491 63.3594L105.765 63.268Z" fill="#E6E6E6"/>
</g>
<defs>
<clipPath id="clip0_19_787">
<rect width="422" height="310" fill="white"/>
</clipPath>
</defs>
</svg>
