<svg width="119" height="119" viewBox="0 0 119 119" fill="none" xmlns="http://www.w3.org/2000/svg">
<g filter="url(#filter0_d_38_76)">
<circle cx="59.5" cy="49.5" r="39.5" fill="#A4B5DA"/>
</g>
<path d="M59.5001 33.1667C60.4896 33.1667 61.2917 33.9689 61.2917 34.9584V45.7084H72.0417C73.0313 45.7084 73.8334 46.5106 73.8334 47.5001C73.8334 48.4896 73.0313 49.2918 72.0417 49.2918H61.2917V60.0417C61.2917 61.0313 60.4896 61.8334 59.5001 61.8334C58.5106 61.8334 57.7084 61.0313 57.7084 60.0417V49.2918H46.9584C45.9689 49.2918 45.1667 48.4896 45.1667 47.5001C45.1667 46.5106 45.9689 45.7084 46.9584 45.7084H57.7084V34.9584C57.7084 33.9689 58.5106 33.1667 59.5001 33.1667Z" fill="white"/>
<defs>
<filter id="filter0_d_38_76" x="0" y="0" width="119" height="119" filterUnits="userSpaceOnUse" color-interpolation-filters="sRGB">
<feFlood flood-opacity="0" result="BackgroundImageFix"/>
<feColorMatrix in="SourceAlpha" type="matrix" values="0 0 0 0 0 0 0 0 0 0 0 0 0 0 0 0 0 0 127 0" result="hardAlpha"/>
<feOffset dy="10"/>
<feGaussianBlur stdDeviation="10"/>
<feComposite in2="hardAlpha" operator="out"/>
<feColorMatrix type="matrix" values="0 0 0 0 0.168627 0 0 0 0 0.34902 0 0 0 0 0.733333 0 0 0 0.68 0"/>
<feBlend mode="normal" in2="BackgroundImageFix" result="effect1_dropShadow_38_76"/>
<feBlend mode="normal" in="SourceGraphic" in2="effect1_dropShadow_38_76" result="shape"/>
</filter>
</defs>
</svg>
