<svg width="681" height="495" viewBox="0 0 681 495" fill="none" xmlns="http://www.w3.org/2000/svg">
<g clip-path="url(#clip0_14_74)">
<path d="M575.215 223.763L508.406 215.514L512.067 156.855H575.215V223.763Z" fill="#FFB6B6"/>
<path d="M613.231 295.44C612.182 295.438 611.156 295.129 610.28 294.55C609.404 293.971 608.716 293.149 608.301 292.183L599.024 270.507L626.522 270.603L645.415 250.594L654.475 271.781C655.024 273.079 655.044 274.541 654.53 275.853C654.016 277.165 653.009 278.224 651.725 278.802L615.407 294.974C614.723 295.281 613.981 295.439 613.231 295.44Z" fill="#E6E6E6"/>
<path d="M622.344 273.335C622.115 273.335 621.886 273.328 621.657 273.315L599.563 272.063L598.965 270.719L599.383 270.532L645.337 250.039L645.936 251.383L631.877 268.782C630.725 270.202 629.273 271.348 627.624 272.136C625.975 272.923 624.171 273.333 622.344 273.335Z" fill="#CCCCCC"/>
<path d="M583.432 72.6546L518.201 73.4712C516.977 73.4698 515.803 72.9821 514.937 72.115C514.072 71.248 513.585 70.0725 513.583 68.8463V47.2614C513.583 38.1294 517.206 29.3715 523.653 22.9142C530.101 16.4569 538.846 12.8292 547.964 12.8292C557.083 12.8292 565.828 16.4569 572.276 22.9142C578.723 29.3715 582.346 38.1294 582.346 47.2614L588.051 68.0297C588.049 69.2558 587.562 70.4314 586.697 71.2984C585.831 72.1654 584.656 72.6531 583.432 72.6546Z" fill="#2F2E41"/>
<path d="M615.367 264.57C614.282 263.586 613.425 262.376 612.857 261.024C612.289 259.673 612.024 258.213 612.081 256.748C612.137 255.283 612.513 253.848 613.184 252.544C613.854 251.241 614.801 250.1 615.959 249.202L604.61 215.422L622.49 220.154L630.529 251.507C631.913 253.554 632.497 256.04 632.171 258.491C631.844 260.943 630.63 263.188 628.758 264.801C626.886 266.414 624.488 267.282 622.019 267.239C619.55 267.196 617.183 266.247 615.367 264.57Z" fill="#FFB6B6"/>
<path d="M538.023 481.862L524.634 479.687L526.642 426.932L546.403 430.14L538.023 481.862Z" fill="#FFB6B6"/>
<path d="M604.753 453.894L592.643 460.013L560.568 413.397L578.441 404.366L604.753 453.894Z" fill="#FFB6B6"/>
<path d="M547.68 73.2473C560.83 73.2473 571.49 62.5715 571.49 49.4022C571.49 36.2329 560.83 25.5571 547.68 25.5571C534.53 25.5571 523.87 36.2329 523.87 49.4022C523.87 62.5715 534.53 73.2473 547.68 73.2473Z" fill="#FFB8B8"/>
<path d="M566.532 436.944L510.77 294.545C490.813 239.95 508.644 202.323 508.827 201.95L508.918 201.766L509.109 201.697C511.399 210.622 563.318 210.015 575.215 196.266C582.16 202.108 591.402 215.864 593.383 232.301C595.452 249.936 593.882 267.808 588.772 284.81L566.807 359.381L593.982 420.69L566.532 436.944Z" fill="#2F2E41"/>
<path d="M539.642 348.617L519.508 450.864L546.323 455.928L563.195 367.423L539.642 348.617Z" fill="#2F2E41"/>
<path d="M510.236 174.269C514.526 175.417 556.929 192.915 577.046 175.186L592.832 97.1281L573.919 91.1539L567.319 83.1162C566.604 82.2445 565.703 81.5453 564.681 81.0705C563.66 80.5957 562.545 80.3575 561.419 80.3737L537.956 80.6879C536.918 80.703 535.895 80.9328 534.95 81.363C534.005 81.7931 533.159 82.4142 532.465 83.1873L524.95 91.5809L507.974 95.5376L510.236 174.269Z" fill="#2B59BB"/>
<path d="M585.634 103.217L590.774 96.3619C590.774 96.3619 600.191 98.8401 604.976 112.355C609.76 125.869 629.364 233.846 629.364 233.846L608.253 243.662L579.665 148.234L585.634 103.217Z" fill="#2B59BB"/>
<path d="M416.466 231.805C416.665 230.353 417.181 228.962 417.975 227.73C418.769 226.498 419.824 225.456 421.064 224.676C422.304 223.897 423.699 223.399 425.152 223.218C426.605 223.037 428.08 223.178 429.473 223.63L450.929 195.194L457.109 212.651L435.785 236.977C434.875 239.274 433.155 241.157 430.95 242.267C428.746 243.378 426.211 243.639 423.827 243C421.443 242.362 419.376 240.87 418.019 238.806C416.662 236.742 416.11 234.251 416.466 231.805Z" fill="#FFB6B6"/>
<path d="M515.516 101.703L508.406 95.4453C508.406 95.4453 500.959 97.3269 496.174 110.842C491.39 124.356 430.318 214.962 430.318 214.962L451.429 224.778L521.486 146.717L515.516 101.703Z" fill="#2B59BB"/>
<path d="M572.491 47.8293H539.211C538.586 47.8286 537.983 47.5996 537.514 47.1852C537.045 46.7708 536.744 46.1994 536.665 45.5782L536.234 42.1264C536.192 41.7948 536.044 41.4858 535.812 41.246C535.579 41.0062 535.275 40.8485 534.945 40.7968C534.616 40.7451 534.278 40.8021 533.983 40.9593C533.689 41.1165 533.453 41.3653 533.312 41.6682L531.129 46.3463C530.922 46.7884 530.593 47.1625 530.182 47.4249C529.77 47.6873 529.293 47.8272 528.805 47.8283H523.75C523.07 47.8294 522.418 47.5599 521.937 47.0794C521.456 46.5988 521.185 45.9464 521.184 45.2658C521.184 45.1816 521.188 45.0975 521.196 45.0136L523.189 24.1629C523.232 23.7171 523.389 23.2899 523.646 22.9231C523.902 22.5564 524.249 22.2626 524.653 22.0704C539.894 14.9451 555.35 14.9543 570.591 22.0979C570.977 22.2799 571.312 22.5556 571.566 22.9C571.819 23.2444 571.983 23.6466 572.042 24.0703L575.029 44.8935C575.081 45.258 575.055 45.6296 574.951 45.983C574.847 46.3363 574.669 46.6633 574.428 46.9415C574.187 47.2197 573.889 47.4428 573.555 47.5955C573.22 47.7482 572.857 47.827 572.489 47.8265L572.491 47.8293Z" fill="#2F2E41"/>
<path d="M35.6661 16.4943C34.5087 16.493 33.3981 16.9516 32.5779 17.7693C31.7576 18.587 31.2946 19.6971 31.2905 20.8562L30.2152 488.701C30.2139 489.861 30.6718 490.973 31.4883 491.794C32.3048 492.616 33.4132 493.079 34.5706 493.083L410.911 493.951C412.069 493.952 413.179 493.493 414 492.675C414.82 491.857 415.283 490.747 415.287 489.588L416.362 21.7425C416.363 20.5832 415.905 19.4708 415.088 18.6493C414.272 17.8278 413.163 17.3643 412.006 17.3604L35.6661 16.4943Z" fill="#E6E6E6"/>
<path d="M49.6082 30.5186C48.4509 30.5173 47.3403 30.9758 46.52 31.7935C45.6997 32.6112 45.2368 33.7214 45.2327 34.8804L44.226 474.742C44.2247 475.901 44.6826 477.014 45.4991 477.835C46.3156 478.657 47.424 479.12 48.5814 479.124L396.98 479.927C398.137 479.928 399.248 479.47 400.068 478.652C400.888 477.835 401.351 476.724 401.356 475.565L402.362 35.7035C402.363 34.5443 401.906 33.4319 401.089 32.6104C400.272 31.7889 399.163 31.3253 398.006 31.3215L49.6082 30.5186Z" fill="white"/>
<path d="M351.724 221.524L95.0111 220.933C93.2875 220.909 91.6428 220.205 90.4338 218.975C89.2248 217.744 88.549 216.086 88.553 214.359C88.557 212.633 89.2404 210.978 90.455 209.753C91.6697 208.528 93.3176 207.832 95.0413 207.816L351.754 208.408C353.477 208.432 355.122 209.136 356.331 210.366C357.54 211.597 358.216 213.255 358.212 214.981C358.208 216.708 357.524 218.363 356.31 219.588C355.095 220.813 353.447 221.509 351.724 221.525V221.524Z" fill="#E6E6E6"/>
<path d="M354.209 99.3206L183.897 98.9283C181.497 98.9228 179.559 95.9816 179.567 92.3593C179.575 88.7371 181.527 85.8051 183.927 85.8106L354.239 86.2028C356.639 86.2083 358.577 89.1496 358.569 92.7718C358.561 96.394 356.609 99.3297 354.209 99.3206Z" fill="#E6E6E6"/>
<path d="M354.122 136.923L183.81 136.531C181.41 136.525 179.472 133.584 179.48 129.962C179.488 126.34 181.44 123.408 183.84 123.413L354.152 123.806C356.552 123.811 358.49 126.752 358.482 130.374C358.474 133.997 356.522 136.929 354.122 136.923Z" fill="#E6E6E6"/>
<path d="M351.623 263.936L94.9104 263.344C93.1868 263.32 91.5421 262.617 90.3331 261.386C89.1241 260.156 88.4483 258.497 88.4523 256.771C88.4563 255.045 89.1397 253.39 90.3543 252.165C91.569 250.94 93.2169 250.244 94.9406 250.228L351.653 250.819C353.39 250.803 355.062 251.478 356.302 252.697C357.541 253.915 358.246 255.577 358.263 257.317C358.279 259.056 357.604 260.731 356.387 261.972C355.171 263.213 353.511 263.92 351.774 263.936C351.724 263.936 351.673 263.936 351.623 263.936Z" fill="#E6E6E6"/>
<path d="M351.531 306.347L94.8188 305.755C93.0952 305.731 91.4505 305.028 90.2415 303.797C89.0326 302.567 88.3568 300.908 88.3607 299.182C88.3647 297.456 89.0481 295.8 90.2628 294.575C91.4774 293.35 93.1253 292.654 94.849 292.638L351.561 293.231C352.422 293.221 353.277 293.381 354.076 293.703C354.875 294.024 355.602 294.5 356.218 295.104C356.833 295.707 357.323 296.426 357.66 297.219C357.997 298.013 358.175 298.865 358.183 299.727C358.191 300.589 358.03 301.445 357.708 302.244C357.385 303.044 356.909 303.772 356.305 304.387C355.702 305.002 354.983 305.491 354.19 305.828C353.397 306.164 352.546 306.341 351.685 306.348C351.634 306.348 351.583 306.348 351.531 306.347Z" fill="#E6E6E6"/>
<path d="M351.432 348.76L94.7191 348.168C92.9955 348.144 91.3508 347.44 90.1418 346.21C88.9328 344.979 88.257 343.321 88.261 341.595C88.265 339.868 88.9484 338.213 90.163 336.988C91.3777 335.763 93.0256 335.067 94.7493 335.051L351.462 335.643C353.197 335.629 354.867 336.305 356.106 337.523C357.344 338.741 358.048 340.402 358.065 342.14C358.081 343.878 357.408 345.551 356.193 346.793C354.978 348.034 353.321 348.742 351.586 348.76C351.534 348.761 351.483 348.761 351.432 348.76Z" fill="#E6E6E6"/>
<path d="M225.037 389.339L94.6212 388.747C92.8976 388.723 91.2529 388.019 90.0439 386.788C88.8349 385.558 88.1591 383.9 88.1631 382.173C88.1671 380.447 88.8505 378.792 90.0651 377.567C91.2798 376.342 92.9277 375.646 94.6514 375.63L225.067 376.222C226.802 376.208 228.471 376.885 229.709 378.103C230.946 379.321 231.65 380.981 231.667 382.719C231.683 384.456 231.01 386.129 229.796 387.37C228.582 388.612 226.926 389.32 225.191 389.339C225.139 389.339 225.088 389.339 225.037 389.339Z" fill="#E6E6E6"/>
<path d="M224.94 431.751L94.5241 431.159C92.8005 431.135 91.1558 430.432 89.9469 429.201C88.7379 427.971 88.0621 426.312 88.0661 424.586C88.07 422.86 88.7534 421.204 89.9681 419.979C91.1827 418.754 92.8306 418.058 94.5543 418.042L224.97 418.635C226.705 418.621 228.374 419.298 229.611 420.516C230.849 421.734 231.553 423.394 231.569 425.131C231.586 426.869 230.913 428.542 229.699 429.783C228.485 431.024 226.828 431.732 225.093 431.752C225.042 431.752 224.991 431.752 224.94 431.751Z" fill="#E6E6E6"/>
<path d="M297.907 49.2509V18.0442C297.958 15.7261 297.552 13.4208 296.713 11.2597C295.875 9.09859 294.619 7.12412 293.018 5.44897C291.418 3.77382 289.503 2.43081 287.384 1.49663C285.266 0.562452 282.984 0.0553861 280.669 0.00439286C278.354 -0.0466004 276.053 0.359483 273.895 1.19944C271.737 2.0394 269.765 3.29678 268.092 4.89981C266.42 6.50285 265.079 8.42012 264.146 10.5422C263.213 12.6642 262.707 14.9495 262.656 17.2676H266.535C266.674 13.7097 268.181 10.3435 270.742 7.87347C273.302 5.40344 276.718 4.02108 280.273 4.01575H280.475C284.125 4.07433 287.603 5.58165 290.144 8.20658C292.686 10.8315 294.083 14.3594 294.028 18.0151V49.5001C293.996 51.9293 293.011 54.2483 291.285 55.9558C289.56 57.6634 287.232 58.6224 284.807 58.6256H284.693C282.244 58.5914 279.909 57.585 278.201 55.8274C276.493 54.0697 275.551 51.7048 275.583 49.2523L275.604 18.2556C275.6 17.0215 276.086 15.8364 276.954 14.961C277.823 14.0856 279.003 13.5915 280.235 13.5874C281.467 13.5834 282.651 14.0697 283.525 14.9395C284.399 15.8092 284.892 16.9911 284.896 18.2251V27.2307C284.896 27.7459 285.101 28.2399 285.464 28.6042C285.828 28.9685 286.322 29.1731 286.836 29.1731C287.35 29.1731 287.844 28.9685 288.207 28.6042C288.571 28.2399 288.775 27.7459 288.775 27.2307V18.1943C288.774 17.0733 288.551 15.9636 288.121 14.9286C287.691 13.8936 287.061 12.9536 286.268 12.1623C285.476 11.371 284.535 10.7438 283.5 10.3166C282.465 9.88933 281.356 9.67044 280.237 9.67237C279.117 9.6743 278.009 9.89701 276.976 10.3278C275.942 10.7586 275.004 11.389 274.214 12.1831C273.424 12.9772 272.797 13.9193 272.371 14.9558C271.944 15.9922 271.726 17.1027 271.727 18.2237L271.707 49.2274C271.669 52.7061 273.01 56.0578 275.436 58.5474C277.863 61.037 281.176 62.4611 284.649 62.5072H284.811C288.257 62.5019 291.564 61.1384 294.015 58.7115C296.466 56.2846 297.865 52.9891 297.91 49.5375C297.907 49.4374 297.907 49.3359 297.907 49.2509Z" fill="#2B59BB"/>
<path d="M350.992 404.086C350.999 409.254 350.079 414.381 348.276 419.223C347.457 421.44 346.453 423.585 345.273 425.633C341.482 432.258 336.012 437.763 329.415 441.592C322.818 445.42 315.329 447.437 307.704 447.437C300.08 447.437 292.59 445.42 285.993 441.592C279.396 437.763 273.926 432.258 270.135 425.633C269.751 424.967 269.387 424.291 269.043 423.605C266.101 417.759 264.518 411.322 264.414 404.776C264.311 398.23 265.688 391.746 268.444 385.81C271.2 379.873 275.262 374.639 280.326 370.5C285.39 366.36 291.325 363.423 297.684 361.908C304.044 360.394 310.663 360.341 317.046 361.754C323.428 363.167 329.409 366.01 334.538 370.068C339.667 374.126 343.812 379.295 346.662 385.187C349.512 391.078 350.992 397.54 350.992 404.086Z" fill="#E4E4E4"/>
<path d="M309.955 411.405C314.525 411.405 318.231 407.694 318.231 403.117C318.231 398.54 314.525 394.829 309.955 394.829C305.384 394.829 301.679 398.54 301.679 403.117C301.679 407.694 305.384 411.405 309.955 411.405Z" fill="#2B59BB"/>
<path d="M269.043 423.605C272.689 419.658 277.564 413.393 282.136 417.92C284.43 420.056 288.021 425.347 291.458 421.888L318.3 395.006C318.805 394.507 319.405 394.113 320.064 393.849C320.724 393.585 321.429 393.456 322.139 393.468C322.849 393.481 323.549 393.636 324.199 393.923C324.848 394.211 325.433 394.626 325.921 395.143L348.276 419.223C347.457 421.44 346.453 423.585 345.273 425.633H270.135L269.043 423.605Z" fill="#3F3D56"/>
<path d="M156.971 109.872C156.977 115.04 156.057 120.167 154.254 125.009C153.436 127.226 152.431 129.371 151.252 131.419C147.461 138.044 141.99 143.549 135.393 147.378C128.796 151.206 121.307 153.222 113.683 153.222C106.058 153.222 98.5688 151.206 91.9719 147.378C85.3751 143.549 79.9045 138.044 76.1134 131.419C75.7296 130.753 75.3657 130.077 75.0216 129.391C72.0791 123.545 70.4965 117.108 70.3928 110.562C70.289 104.016 71.6667 97.532 74.4225 91.5957C77.1783 85.6593 81.2407 80.4251 86.3048 76.2856C91.3689 72.1461 97.3033 69.2088 103.663 67.6941C110.022 66.1795 116.642 66.1267 123.024 67.5399C129.407 68.953 135.387 71.7954 140.516 75.8537C145.646 79.912 149.791 85.0809 152.64 90.9726C155.49 96.8642 156.971 103.326 156.971 109.872Z" fill="#E4E4E4"/>
<path d="M115.933 117.191C120.504 117.191 124.209 113.48 124.209 108.903C124.209 104.326 120.504 100.615 115.933 100.615C111.363 100.615 107.657 104.326 107.657 108.903C107.657 113.48 111.363 117.191 115.933 117.191Z" fill="#2B59BB"/>
<path d="M75.0217 129.391C78.6679 125.444 83.5424 119.179 88.1141 123.706C90.4085 125.841 93.9992 131.133 97.4365 127.674L124.278 100.792C124.783 100.293 125.383 99.8992 126.043 99.6351C126.702 99.3709 127.407 99.2414 128.117 99.2542C128.827 99.2669 129.528 99.4216 130.177 99.7092C130.826 99.9968 131.412 100.411 131.899 100.929L154.254 125.009C153.435 127.226 152.431 129.371 151.252 131.419H76.1134L75.0217 129.391Z" fill="#3F3D56"/>
<path d="M283.268 55.117C285.795 55.117 287.844 53.0652 287.844 50.5342C287.844 48.0032 285.795 45.9514 283.268 45.9514C280.741 45.9514 278.692 48.0032 278.692 50.5342C278.692 53.0652 280.741 55.117 283.268 55.117Z" fill="#2B59BB"/>
<path d="M544.899 494.147H536.189L534.634 485.911L530.653 494.147H507.553C506.446 494.147 505.367 493.792 504.475 493.135C503.583 492.478 502.925 491.553 502.595 490.494C502.266 489.435 502.283 488.299 502.644 487.25C503.005 486.202 503.691 485.297 504.602 484.667L523.049 471.908V463.582L542.452 464.742L544.899 494.147Z" fill="#2F2E41"/>
<path d="M622.076 473.732L614.759 478.463L608.992 472.39L610.108 481.471L590.702 494.021C589.772 494.622 588.674 494.91 587.569 494.843C586.463 494.775 585.409 494.356 584.558 493.645C583.708 492.935 583.107 491.971 582.842 490.894C582.578 489.817 582.664 488.684 583.088 487.66L591.674 466.919L587.165 459.925L604.093 450.359L622.076 473.732Z" fill="#2F2E41"/>
<path d="M681 493.167H0V495H681V493.167Z" fill="#CCCCCC"/>
</g>
<defs>
<clipPath id="clip0_14_74">
<rect width="681" height="495" fill="white"/>
</clipPath>
</defs>
</svg>
