<svg width="44" height="44" viewBox="0 0 44 44" fill="none" xmlns="http://www.w3.org/2000/svg">
<path fill-rule="evenodd" clip-rule="evenodd" d="M34.9999 0.333344H8.99992C4.21345 0.333344 0.333252 4.21354 0.333252 9.00001V35C0.333252 39.7865 4.21345 43.6667 8.99992 43.6667H34.9999C39.7864 43.6667 43.6666 39.7865 43.6666 35V9.00001C43.6666 4.21354 39.7864 0.333344 34.9999 0.333344ZM31.9493 16.4977C32.5003 15.7893 32.3727 14.7684 31.6643 14.2174C30.9558 13.6664 29.9349 13.794 29.3839 14.5024L20.7021 25.6648C20.509 25.913 20.1459 25.9452 19.9121 25.7349L14.4203 20.7922C13.7533 20.1919 12.7258 20.2459 12.1254 20.913C11.525 21.5801 11.5791 22.6076 12.2462 23.2079L17.738 28.1506C19.3741 29.6231 21.9161 29.3976 23.2675 27.6601L31.9493 16.4977Z" fill="#28303F"/>
</svg>
