<svg width="47" height="46" viewBox="0 0 47 46" fill="none" xmlns="http://www.w3.org/2000/svg">
<path fill-rule="evenodd" clip-rule="evenodd" d="M34.4023 1.71633C35.883 0.235587 38.2838 0.235592 39.7645 1.71633L45.367 7.31887C46.8478 8.79961 46.8478 11.2004 45.367 12.6811L39.3158 18.7324L39.2887 18.7588L15.8279 41.1532C15.3993 41.5623 14.8807 41.8653 14.3138 42.0378L2.34818 45.6796C1.77405 45.8543 1.15035 45.6984 0.725993 45.274C0.301636 44.8497 0.145711 44.226 0.320446 43.6518L3.94658 31.7374C4.13649 31.1134 4.48413 30.549 4.95592 30.0986L28.3644 7.75423L34.4023 1.71633ZM29.4736 11.1883L7.19997 32.4496C7.13257 32.5139 7.0829 32.5945 7.05578 32.6837L4.31677 41.6832L13.3676 38.9287C13.4486 38.904 13.5226 38.8607 13.5839 38.8023L35.8416 17.5563L29.4736 11.1883ZM38.1667 15.2852L43.0689 10.383C43.2805 10.1715 43.2805 9.8285 43.0689 9.61696L37.4664 4.01443C37.2549 3.80289 36.9119 3.80289 36.7004 4.01442L31.7981 8.91664L38.1667 15.2852Z" fill="#525B6D"/>
</svg>
