<svg width="52" height="52" viewBox="0 0 52 52" fill="none" xmlns="http://www.w3.org/2000/svg">
<path d="M38.168 6.87175L38.6983 6.34142L38.168 6.87175ZM45.1282 13.832L44.5978 14.3623L45.1282 13.832ZM14.4166 47.6667V48.4167H15.9166V47.6667H14.4166ZM36.0833 47.6667V48.4167H37.5833V47.6667H36.0833ZM32.4999 15.9167C32.9141 15.9167 33.2499 15.5809 33.2499 15.1667C33.2499 14.7525 32.9141 14.4167 32.4999 14.4167V15.9167ZM19.4999 14.4167C19.0857 14.4167 18.7499 14.7525 18.7499 15.1667C18.7499 15.5809 19.0857 15.9167 19.4999 15.9167V14.4167ZM46.9166 19.9602V39H48.4166V19.9602H46.9166ZM38.9999 46.9167H12.9999V48.4167H38.9999V46.9167ZM5.08325 39V13H3.58325V39H5.08325ZM12.9999 5.08334H32.0397V3.58334H12.9999V5.08334ZM37.6376 7.40208L44.5978 14.3623L45.6585 13.3016L38.6983 6.34142L37.6376 7.40208ZM32.0397 5.08334C34.1393 5.08334 36.153 5.91742 37.6376 7.40208L38.6983 6.34142C36.9323 4.57545 34.5372 3.58334 32.0397 3.58334V5.08334ZM12.9999 46.9167C8.62766 46.9167 5.08325 43.3723 5.08325 39H3.58325C3.58325 44.2007 7.79924 48.4167 12.9999 48.4167V46.9167ZM46.9166 39C46.9166 43.3723 43.3722 46.9167 38.9999 46.9167V48.4167C44.2006 48.4167 48.4166 44.2007 48.4166 39H46.9166ZM48.4166 19.9602C48.4166 17.4628 47.4245 15.0676 45.6585 13.3016L44.5978 14.3623C46.0825 15.847 46.9166 17.8606 46.9166 19.9602H48.4166ZM5.08325 13C5.08325 8.62776 8.62767 5.08334 12.9999 5.08334V3.58334C7.79924 3.58334 3.58325 7.79933 3.58325 13H5.08325ZM15.9166 47.6667V34.6667H14.4166V47.6667H15.9166ZM19.4999 31.0833H32.4999V29.5833H19.4999V31.0833ZM36.0833 34.6667V47.6667H37.5833V34.6667H36.0833ZM32.4999 31.0833C34.4789 31.0833 36.0833 32.6877 36.0833 34.6667H37.5833C37.5833 31.8592 35.3074 29.5833 32.4999 29.5833V31.0833ZM15.9166 34.6667C15.9166 32.6877 17.5209 31.0833 19.4999 31.0833V29.5833C16.6925 29.5833 14.4166 31.8592 14.4166 34.6667H15.9166ZM32.4999 14.4167L19.4999 14.4167V15.9167L32.4999 15.9167V14.4167Z" fill="#28303F"/>
</svg>
