<svg width="44" height="44" viewBox="0 0 44 44" fill="none" xmlns="http://www.w3.org/2000/svg">
<path d="M22 0.333313C17.7977 0.341297 13.6884 1.57115 10.1727 3.87308C6.65694 6.17501 3.88647 9.44965 2.19873 13.2981C0.510995 17.1466 -0.0211605 21.4029 0.667082 25.5484C1.35532 29.694 3.23426 33.55 6.07503 36.6466C8.10394 38.8459 10.5664 40.6011 13.3072 41.8016C16.048 43.0021 19.0078 43.6219 22 43.6219C24.9922 43.6219 27.952 43.0021 30.6928 41.8016C33.4337 40.6011 35.8961 38.8459 37.925 36.6466C40.7658 33.55 42.6447 29.694 43.333 25.5484C44.0212 21.4029 43.4891 17.1466 41.8013 13.2981C40.1136 9.44965 37.3431 6.17501 33.8274 3.87308C30.3116 1.57115 26.2023 0.341297 22 0.333313ZM22 39.3333C17.5117 39.3265 13.201 37.5789 9.97503 34.4583C10.9545 32.074 12.6206 30.0346 14.7617 28.5994C16.9029 27.1642 19.4224 26.3979 22 26.3979C24.5777 26.3979 27.0972 27.1642 29.2383 28.5994C31.3795 30.0346 33.0456 32.074 34.025 34.4583C30.799 37.5789 26.4883 39.3265 22 39.3333ZM17.6667 17.6666C17.6667 16.8096 17.9208 15.9718 18.397 15.2592C18.8731 14.5466 19.5499 13.9911 20.3417 13.6632C21.1335 13.3352 22.0048 13.2494 22.8454 13.4166C23.686 13.5838 24.4581 13.9965 25.0642 14.6025C25.6702 15.2085 26.0829 15.9807 26.2501 16.8213C26.4173 17.6618 26.3315 18.5331 26.0035 19.3249C25.6755 20.1168 25.1201 20.7935 24.4075 21.2697C23.6949 21.7458 22.8571 22 22 22C20.8508 22 19.7486 21.5434 18.9359 20.7308C18.1232 19.9181 17.6667 18.8159 17.6667 17.6666ZM36.9717 30.6666C35.0358 27.3555 32.0564 24.7799 28.5 23.3433C29.6032 22.0924 30.322 20.5497 30.5702 18.9004C30.8184 17.2511 30.5854 15.5652 29.8992 14.0451C29.2129 12.5249 28.1026 11.235 26.7015 10.3302C25.3004 9.42545 23.6679 8.94419 22 8.94419C20.3321 8.94419 18.6997 9.42545 17.2986 10.3302C15.8974 11.235 14.7871 12.5249 14.1009 14.0451C13.4147 15.5652 13.1817 17.2511 13.4298 18.9004C13.678 20.5497 14.3968 22.0924 15.5 23.3433C11.9437 24.7799 8.96421 27.3555 7.02836 30.6666C5.48557 28.0387 4.67042 25.0473 4.66669 22C4.66669 17.4029 6.49288 12.9941 9.74351 9.74346C12.9941 6.49283 17.4029 4.66665 22 4.66665C26.5971 4.66665 31.0059 6.49283 34.2565 9.74346C37.5072 12.9941 39.3334 17.4029 39.3334 22C39.3296 25.0473 38.5145 28.0387 36.9717 30.6666Z" fill="#ffff"/>
</svg>
